<svg width="150" height="151" viewBox="0 0 150 151" fill="none" xmlns="http://www.w3.org/2000/svg">
<g clip-path="url(#clip0_6952_13773)">
<path d="M150 75.1601C150.009 83.3613 148.671 91.5082 146.039 99.2755C145.888 99.7193 145.734 100.162 145.575 100.602C142.788 108.31 138.758 115.51 133.644 121.915C132.118 123.83 130.5 125.666 128.791 127.423C127.083 129.182 125.289 130.856 123.411 132.444C112.931 141.331 100.202 147.151 86.625 149.264H86.6228C84.892 149.532 83.1442 149.742 81.3795 149.892C79.2781 150.069 77.1516 150.159 75 150.16C64.9942 150.173 55.0876 148.178 45.8671 144.292C36.6467 140.406 28.3001 134.709 21.3218 127.538C20.8314 127.037 20.3484 126.528 19.8728 126.011C18.6879 124.727 17.5481 123.402 16.4534 122.037C15.8388 121.27 15.2389 120.49 14.6539 119.699C11.0501 114.83 8.05175 109.541 5.72487 103.949C4.73256 101.567 3.86599 99.1344 3.12872 96.6616C3.07547 96.4863 3.02443 96.3111 2.97339 96.1357C2.86245 95.7585 2.7552 95.3791 2.65165 94.9974C0.886519 88.533 -0.00527992 81.8613 2.3515e-05 75.1601C2.3515e-05 33.7393 33.5792 0.160156 75 0.160156C116.421 0.160156 150 33.7393 150 75.1601Z" fill="#F2F2F2"/>
<path d="M31.8072 44.9904C31.691 45.6954 31.7309 46.4173 31.924 47.1052C32.117 47.7932 32.4586 48.4304 32.9246 48.972C33.3905 49.5137 33.9696 49.9466 34.621 50.2402C35.2723 50.5338 35.9801 50.6811 36.6946 50.6716L48.6667 85.5072L56.3058 80.2572L41.559 45.3673C41.4635 44.1682 40.9314 43.0458 40.0636 42.2127C39.1958 41.3797 38.0525 40.8939 36.8505 40.8474C35.6485 40.801 34.4711 41.1971 33.5416 41.9606C32.6121 42.7242 31.995 43.8022 31.8072 44.9904Z" fill="#A0616A"/>
<path d="M94.2942 56.7776C88.9776 62.8264 75.8682 73.4861 65.0686 80.8264C62.7343 82.4129 60.5065 83.8419 58.4895 85.0379C57.127 85.8456 55.86 86.5446 54.7195 87.1148C53.954 87.4962 53.118 87.7153 52.2639 87.7586C51.4098 87.8018 50.5559 87.6683 49.7558 87.3662C48.9557 87.0642 48.2266 86.6002 47.6142 86.0033C47.0017 85.4064 46.5191 84.6894 46.1966 83.8974L38.7188 65.8064L41.306 64.0912L47.6855 59.8597L49.1344 58.9011L55.1167 73.1489L61.4251 68.0852L65.3415 64.941L83.1951 50.6134L84.735 50.1562L88.3275 53.6622L90.8681 56.1429L93.2579 56.5579C93.6152 56.62 93.9613 56.6932 94.2942 56.7776Z" fill="#FEA800"/>
<path d="M141.994 106.482C142.365 106.952 142.749 107.42 143.133 107.891C141.81 110.606 140.324 113.238 138.682 115.772C138.559 115.686 138.437 115.599 138.315 115.513C138.296 115.502 138.278 115.49 138.26 115.477C137.805 115.153 137.348 114.834 136.893 114.51V114.508C136.518 113.231 136.308 111.911 136.27 110.58C136.504 110.526 136.717 110.402 136.878 110.223C137.039 110.044 137.142 109.82 137.172 109.582C137.201 109.343 137.157 109.101 137.044 108.888C136.932 108.675 136.757 108.502 136.542 108.392C136.483 108.288 136.44 108.212 136.38 108.106C136.383 108.079 136.387 108.05 136.389 108.024C136.738 105.252 140.27 104.285 141.994 106.482Z" fill="white"/>
<path d="M145.977 96.9866C146.243 97.7189 146.486 98.4593 146.705 99.2078C146.554 99.6516 146.399 100.094 146.241 100.535C146.181 100.302 146.119 100.069 146.055 99.8357C145.694 98.5403 145.26 97.2661 144.757 96.0192C144.344 94.9963 143.887 93.9948 143.385 93.0147C140.658 87.6907 136.707 83.0898 131.856 79.5902C129.851 79.1265 128.036 78.0593 126.657 76.5325C126.159 75.9839 125.743 75.3666 125.421 74.6997C125.625 74.6708 125.829 74.6309 126.029 74.5887C126.091 74.5754 126.155 74.5599 126.217 74.5465L126.242 74.5421C126.46 74.4915 126.659 74.3789 126.815 74.2178C126.971 74.0567 127.077 73.8541 127.12 73.6342C127.163 73.4143 127.142 73.1866 127.059 72.9784C126.976 72.7702 126.835 72.5905 126.652 72.4608C126.539 72.3786 126.424 72.2988 126.311 72.2189C126.137 72.0924 125.962 71.9726 125.787 71.8483C125.768 71.8368 125.751 71.8242 125.734 71.8106C125.534 71.6686 125.334 71.531 125.137 71.3868C125.29 70.8924 125.555 70.4398 125.911 70.0643C127.152 68.784 129.366 68.8128 130.813 69.8557C132.262 70.8986 132.99 72.7248 133.083 74.5044C133.165 76.0288 132.836 77.5377 132.404 79.0088C132.512 79.0887 132.626 79.1642 132.734 79.2463C134.732 80.7268 136.58 82.3998 138.251 84.2411C137.285 81.9511 136.935 78.9645 137.186 76.9075C137.472 74.5643 138.61 72.3387 139.542 70.122C140.658 67.4593 144.466 67.4238 145.54 70.1042C145.551 70.1309 145.562 70.1553 145.571 70.1819C145.391 70.3616 145.218 70.548 145.052 70.7411C144.843 70.9843 144.712 71.285 144.677 71.6037C144.642 71.9225 144.704 72.2444 144.854 72.5274C145.005 72.8104 145.238 73.0412 145.522 73.1897C145.806 73.3381 146.129 73.3973 146.447 73.3594L146.481 73.355C146.619 74.146 146.698 74.9464 146.716 75.7492C146.743 77.9954 146.307 80.2231 145.433 82.2926C144.559 84.3621 143.268 86.2289 141.639 87.7758C141.532 87.8757 141.428 87.9733 141.319 88.0687C142.347 89.5305 143.271 91.0632 144.082 92.6553C144.802 94.0586 145.435 95.5052 145.977 96.9866Z" fill="white"/>
<path d="M103.221 76.171L102.551 122.194L48.418 120.641L57.0629 101.558C57.0008 100.945 60.8573 96.6474 60.8351 96.0105C60.7686 94.1444 62.162 92.4159 62.3884 90.4632C62.8499 86.4358 60.2072 71.2272 61.4254 68.0852C61.9443 66.6822 62.6092 65.3375 63.4091 64.0734C64.1014 63.0261 64.8115 62.3205 65.4905 62.0653L67.4919 57.4011L69.2671 54.7384L83.1953 50.6134L84.7353 50.1562L88.3277 53.6622L90.8684 56.1429L93.2582 56.5579C93.6154 56.62 93.9616 56.6932 94.2944 56.7776C95.8975 57.1472 97.3916 57.8874 98.6569 58.9388C102.828 62.4824 103.314 69.1481 103.221 76.171Z" fill="#FEA800"/>
<path d="M134.308 121.848C132.781 123.763 131.164 125.598 129.455 127.355L123.602 127.359L92.1216 127.395L86.4545 127.402L82.6867 127.406L77.0817 127.411L72.7703 127.415L64.8065 127.424L60.1091 127.43L50.217 127.439L45.4951 127.446L32.4101 127.459L24.1912 127.468L21.9855 127.47C21.4951 126.969 21.0122 126.46 20.5366 125.944C19.3517 124.659 18.2119 123.334 17.1172 121.97L21.6838 121.965L24.7947 121.963L31.9974 121.954L45.8968 121.941L50.5943 121.936L52.4937 121.934H52.5003L53.9914 121.932L54.6593 121.93L56.3701 121.928H57.0935L62.166 121.923L73.1076 121.91L77.9227 121.905L82.5336 121.901L86.8561 121.896L93.058 121.89L126.182 121.857L134.308 121.848Z" fill="#CCCCCC"/>
<path d="M59.4145 52.7444L59.4024 52.7456C58.7623 52.8051 58.1247 52.608 57.63 52.1975C57.1352 51.7869 56.8238 51.1967 56.7642 50.5566L55.5023 37.0877C55.2739 34.6749 55.533 32.2407 56.2642 29.93C57.6973 25.4201 60.8155 21.6372 64.969 19.3697C67.1136 18.202 69.4725 17.4806 71.9034 17.249C81.8486 16.3015 85.483 18.3728 91.6263 33.5407C97.7697 48.7087 92.8901 47.0301 92.8901 47.0301C92.9209 47.3547 92.886 47.6822 92.7875 47.993C92.5941 48.5994 92.1739 49.1077 91.6147 49.4116C91.3277 49.5672 91.0124 49.6635 90.6874 49.6948C78.9301 52.6834 67.0665 55.8293 59.4125 52.7446L59.4145 52.7444Z" fill="#2F2E41"/>
<path d="M81.2992 30.0091C82.7751 32.1927 83.5708 34.7648 83.5858 37.4004C83.6007 40.036 82.8343 42.617 81.3833 44.8173C79.9323 47.0175 77.8618 48.7385 75.4333 49.7627C73.0048 50.787 70.3272 51.0686 67.7388 50.572C66.0253 50.2489 64.393 49.5889 62.9364 48.6304C61.4798 47.6719 60.2279 46.4338 59.2532 44.988C57.7805 42.8051 56.987 40.2349 56.9728 37.6016C56.9587 34.9684 57.7246 32.3898 59.1738 30.1912C60.6231 27.9926 62.6909 26.2722 65.1165 25.2472C67.5421 24.2221 70.2169 23.9381 72.8037 24.4311C74.5185 24.7523 76.1525 25.4108 77.6109 26.3684C79.0692 27.326 80.323 28.5637 81.2993 30.0096L81.2992 30.0091Z" fill="#9E616A"/>
<path d="M51.3331 38.5812C51.1526 36.6729 51.3575 34.7478 51.9357 32.9202C52.0698 28.4497 53.3669 24.4005 58.8195 24.5704C60.5049 23.6536 62.3576 23.085 64.2673 22.8988L66.9618 22.6327C66.9921 22.6297 67.0223 22.6268 67.0526 22.6239C68.9194 22.4502 70.8021 22.6458 72.5933 23.1997C74.3845 23.7536 76.0491 24.6549 77.4919 25.852C78.9348 27.0492 80.1278 28.5188 81.0027 30.177C81.8776 31.8352 82.4173 33.6495 82.591 35.5163L82.6163 35.7861L76.9156 36.3434L74.4621 31.093L74.5832 36.5726L71.6389 36.8615L70.4016 34.2126L70.462 36.9753C66.0904 40.8255 59.4613 41.0273 51.3609 38.8512L51.3331 38.5812Z" fill="#2F2E41"/>
<path d="M69.5682 51.3618C69.5197 51.8056 69.5967 52.2541 69.7905 52.6563C69.8881 52.8623 70.0141 53.0535 70.1648 53.2246C70.2938 53.3702 70.4395 53.5001 70.599 53.6115C71.0712 53.9403 71.6452 54.0901 72.2179 54.0339C72.2536 54.0303 72.2892 54.0259 72.3247 54.0209C72.3602 54.0159 72.3957 54.01 72.4311 54.0034C72.4669 53.997 72.5024 53.9896 72.5376 53.9813C72.5728 53.9729 72.6082 53.9639 72.6436 53.9542L74.6332 53.3967L76.8631 47.1794L77.3742 52.635L86.4214 50.1161L84.2524 26.9648L68.832 28.4843L69.2549 28.8915C70.6601 30.2592 71.6607 31.9881 72.1466 33.8878C72.6288 35.8129 72.7777 37.8064 72.5867 39.7817C72.4082 41.7791 72.0384 43.7548 71.4823 45.6815C70.9982 47.3876 70.4163 49.0644 69.7393 50.7035C69.6518 50.9139 69.5942 51.1355 69.5682 51.3618Z" fill="#2F2E41"/>
<path d="M71.6238 124.357C71.3587 124.357 71.097 124.298 70.8575 124.184L28.1386 125.274C27.8108 125.118 27.5378 124.867 27.3557 124.554C27.1736 124.24 27.0909 123.878 27.1185 123.517C27.1461 123.155 27.2828 122.81 27.5105 122.528C27.7382 122.246 28.0462 122.039 28.3938 121.935L56.3417 113.602C56.6311 113.516 56.9377 113.504 57.2328 113.568L100.463 118.837C100.846 118.92 101.191 119.125 101.446 119.422C101.701 119.72 101.851 120.092 101.874 120.483C101.898 120.873 101.792 121.261 101.575 121.586C101.357 121.912 101.039 122.157 100.669 122.284L72.2092 124.258C72.0209 124.323 71.8231 124.357 71.6238 124.357Z" fill="#3F3D56"/>
<path d="M73.1984 121.383C73.0055 121.384 72.8158 121.334 72.6474 121.24L37.9534 122.861C37.7564 122.75 37.5972 122.583 37.4966 122.381C37.396 122.179 37.3586 121.951 37.3894 121.727C37.4201 121.503 37.5175 121.294 37.6689 121.126C37.8203 120.959 38.0187 120.84 38.2382 120.787L50.7981 117.739C50.9942 117.691 51.1993 117.697 51.3922 117.756L83.6452 117.717C83.8748 117.788 84.0759 117.93 84.2191 118.122C84.3622 118.315 84.4399 118.549 84.4407 118.789C84.4416 119.029 84.3656 119.263 84.2238 119.457C84.082 119.651 83.8819 119.794 83.6528 119.866L73.5339 121.332C73.4253 121.366 73.3122 121.383 73.1984 121.383Z" fill="#2F2E41"/>
<path d="M69.5436 119.534C70.1441 119.921 70.8222 120.171 71.5301 120.268C72.2381 120.365 72.9586 120.305 73.641 120.093C74.3233 119.882 74.9509 119.523 75.4796 119.042C76.0083 118.561 76.4251 117.971 76.7008 117.312L113.423 120.196L111.648 111.099L73.7714 110.738C72.6333 110.348 71.3918 110.389 70.2822 110.854C69.1725 111.318 68.2718 112.174 67.7507 113.258C67.2295 114.342 67.1242 115.58 67.4547 116.736C67.7851 117.893 68.5284 118.888 69.5436 119.534Z" fill="#A0616A"/>
<path d="M91.2366 60.284C91.2366 60.284 96.7839 55.8461 103.441 63.8343C107.93 69.2214 116.59 101.788 117.308 115.283C117.353 116.137 117.222 116.991 116.922 117.792C116.622 118.593 116.159 119.323 115.564 119.936C114.968 120.55 114.253 121.034 113.461 121.358C112.67 121.683 111.82 121.84 110.965 121.82L91.3919 121.48L89.2031 109.176L104.657 109.359L91.2366 60.284Z" fill="#FEA800"/>
<path d="M69.2496 124.359C68.5781 124.359 67.9135 124.224 67.2947 123.963L27.6996 124.867C26.6546 124.431 25.7871 123.655 25.2375 122.666C24.6878 121.676 24.488 120.53 24.6705 119.412L23.1992 84.6389C23.3943 83.3968 24.0481 82.2731 25.0314 81.4895C26.0146 80.7059 27.256 80.3195 28.5103 80.4066L65.2698 81.9312C65.9754 81.9775 66.6635 82.1716 67.2892 82.5008C67.915 82.8301 68.4646 83.2872 68.9024 83.8426C69.3401 84.3979 69.6562 85.0391 69.8302 85.7245C70.0042 86.4099 70.0322 87.1242 69.9124 87.8211L74.2192 120.166C74.0167 121.338 73.4073 122.401 72.4983 123.168C71.5893 123.935 70.4389 124.357 69.2496 124.359Z" fill="#3F3D56"/>
<path d="M39.1815 20.8357L22.6571 20.7891C22.2141 20.7885 21.7891 20.9637 21.475 21.276C21.161 21.5884 20.9836 22.0125 20.9818 22.4555L20.9219 44.3364C20.9209 44.7789 21.0957 45.2036 21.4077 45.5173C21.7198 45.8311 22.1436 46.0081 22.5861 46.0095L31.7525 46.0361L39.1127 46.0561C39.5555 46.0569 39.9805 45.8818 40.2943 45.5693C40.608 45.2568 40.7848 44.8325 40.7858 44.3897L40.7902 43.096L40.8479 22.511C40.8488 22.0679 40.6738 21.6426 40.3614 21.3285C40.0489 21.0144 39.6245 20.8371 39.1815 20.8357Z" fill="#E6E6E6"/>
<path d="M38.017 22.1415L23.8158 22.1016C23.4011 22.101 23.0031 22.2649 22.709 22.5573C22.415 22.8497 22.2488 23.2468 22.247 23.6615L22.207 37.7295C22.2043 39.577 22.9344 41.3502 24.2372 42.6601C25.5401 43.97 27.3093 44.7097 29.1567 44.7169L31.855 44.7236L37.9548 44.7414C38.3696 44.7423 38.7678 44.5785 39.062 44.286C39.3561 43.9935 39.5222 43.5963 39.5236 43.1814L39.528 41.7658L39.5769 23.7103C39.5778 23.2955 39.414 22.8973 39.1215 22.6031C38.829 22.309 38.4318 22.143 38.017 22.1415Z" fill="white"/>
<path d="M36.4246 31.7539H25.3521C25.2648 31.7539 25.1784 31.7711 25.0977 31.8045C25.0171 31.8379 24.9439 31.8868 24.8821 31.9486C24.8204 32.0103 24.7715 32.0835 24.7381 32.1642C24.7047 32.2448 24.6875 32.3312 24.6875 32.4185C24.6875 32.5057 24.7047 32.5922 24.7381 32.6728C24.7715 32.7534 24.8204 32.8267 24.8821 32.8884C24.9439 32.9501 25.0171 32.9991 25.0977 33.0325C25.1784 33.0659 25.2648 33.083 25.3521 33.083H36.4246C36.6008 33.083 36.7698 33.013 36.8945 32.8884C37.0191 32.7638 37.0891 32.5947 37.0891 32.4185C37.0891 32.2422 37.0191 32.0732 36.8945 31.9486C36.7698 31.8239 36.6008 31.7539 36.4246 31.7539Z" fill="#FEA800"/>
<path d="M27.7862 28.1094H25.3521C25.1758 28.1094 25.0068 28.1794 24.8822 28.304C24.7575 28.4287 24.6875 28.5977 24.6875 28.7739C24.6875 28.9502 24.7575 29.1192 24.8822 29.2439C25.0068 29.3685 25.1758 29.4385 25.3521 29.4385H27.7862C27.9625 29.4385 28.1315 29.3685 28.2562 29.2439C28.3808 29.1192 28.4508 28.9502 28.4508 28.7739C28.4508 28.5977 28.3808 28.4287 28.2562 28.304C28.1315 28.1794 27.9625 28.1094 27.7862 28.1094Z" fill="#FEA800"/>
<path d="M36.4246 37.5977H25.3521C25.1758 37.5977 25.0068 37.6677 24.8821 37.7923C24.7575 37.9169 24.6875 38.086 24.6875 38.2622C24.6875 38.4385 24.7575 38.6075 24.8821 38.7322C25.0068 38.8568 25.1758 38.9268 25.3521 38.9268H36.4246C36.6008 38.9268 36.7698 38.8568 36.8945 38.7322C37.0191 38.6075 37.0891 38.4385 37.0891 38.2622C37.0891 38.086 37.0191 37.9169 36.8945 37.7923C36.7698 37.6677 36.6008 37.5977 36.4246 37.5977Z" fill="#FEA800"/>
<path d="M36.4234 34.6758H25.351C25.175 34.6758 25.0062 34.7457 24.8818 34.8701C24.7574 34.9945 24.6875 35.1633 24.6875 35.3392C24.6875 35.5152 24.7574 35.684 24.8818 35.8084C25.0062 35.9328 25.175 36.0027 25.351 36.0027H36.4234C36.5994 36.0027 36.7682 35.9328 36.8926 35.8084C37.017 35.684 37.0869 35.5152 37.0869 35.3392C37.0869 35.1633 37.017 34.9945 36.8926 34.8701C36.7682 34.7457 36.5994 34.6758 36.4234 34.6758Z" fill="#FEA800"/>
<path d="M34.271 30.46C33.4935 30.46 32.7334 30.2294 32.087 29.7974C31.4405 29.3655 30.9366 28.7515 30.6391 28.0332C30.3415 27.3149 30.2637 26.5245 30.4154 25.7619C30.5671 24.9993 30.9415 24.2988 31.4913 23.7491C32.041 23.1993 32.7415 22.8249 33.5041 22.6732C34.2666 22.5215 35.0571 22.5994 35.7754 22.8969C36.4937 23.1944 37.1077 23.6983 37.5396 24.3448C37.9716 24.9913 38.2022 25.7513 38.2022 26.5288C38.201 27.5711 37.7864 28.5703 37.0494 29.3073C36.3125 30.0442 35.3132 30.4588 34.271 30.46ZM34.271 22.8708C33.5475 22.8708 32.8403 23.0854 32.2387 23.4873C31.6372 23.8893 31.1683 24.4606 30.8915 25.129C30.6146 25.7974 30.5422 26.5329 30.6833 27.2424C30.8244 27.952 31.1728 28.6038 31.6844 29.1154C32.196 29.627 32.8478 29.9754 33.5573 30.1165C34.2669 30.2576 35.0024 30.1852 35.6708 29.9083C36.3392 29.6315 36.9105 29.1626 37.3125 28.5611C37.7144 27.9595 37.929 27.2523 37.929 26.5288C37.9279 25.559 37.5421 24.6292 36.8564 23.9435C36.1706 23.2577 35.2408 22.872 34.271 22.8708Z" fill="#FEA800"/>
<path d="M35.9237 28.0516C35.6521 26.6497 35.0866 25.3212 34.2643 24.1538C34.2457 24.1235 34.2197 24.0985 34.1888 24.0811C34.1578 24.0638 34.1229 24.0547 34.0874 24.0547C34.0519 24.0547 34.017 24.0638 33.986 24.0811C33.955 24.0985 33.929 24.1235 33.9105 24.1538C33.1943 25.4063 32.7366 26.7898 32.5643 28.2223C32.5324 28.4835 32.9425 28.4812 32.974 28.2223C33.0316 27.7581 33.1214 27.2984 33.2427 26.8466C33.2584 26.8435 33.2737 26.8388 33.2885 26.8326C33.8334 26.559 34.4489 26.4588 35.0525 26.5453C35.0577 26.5461 35.0628 26.545 35.068 26.5455C35.2673 27.0697 35.4214 27.61 35.5285 28.1605C35.5785 28.4192 35.9735 28.3096 35.9237 28.0516ZM33.3902 26.344C33.5783 25.7605 33.8177 25.1948 34.1057 24.6536C34.4106 25.1194 34.6753 25.6102 34.897 26.1208C34.3843 26.0822 33.8696 26.1585 33.3902 26.344Z" fill="#FEA800"/>
</g>
<defs>
<clipPath id="clip0_6952_13773">
<rect width="150" height="150" fill="white" transform="translate(0 0.160156)"/>
</clipPath>
</defs>
</svg>
