<svg width="345" height="388" viewBox="0 0 345 388" fill="none" xmlns="http://www.w3.org/2000/svg">
<path d="M344.253 158.32C345.783 116.9 330.903 74.9803 298.103 55.0303C281.913 45.1803 262.983 39.4103 244.043 40.2603C223.723 41.1703 204.593 49.4403 185.433 56.2603C166.273 63.0803 145.523 68.5303 125.773 63.6903C111.483 60.1903 98.9133 51.5403 84.7733 47.6003C29.0633 32.0903 -19.4467 95.3003 7.81328 145.55C14.5033 157.87 24.8133 167.75 33.4833 178.78C42.1533 189.81 49.4233 203.13 48.2533 217.1C47.2533 228.67 40.6933 238.97 37.9633 250.25C32.7433 271.86 43.1033 295.63 61.0133 308.8C78.9233 321.97 103.083 325.04 124.683 319.62C146.283 314.2 165.283 300.94 180.253 284.52C188.253 275.72 196.093 265.44 207.603 262.45C218.653 259.59 230.043 264.25 241.253 266.39C251.617 268.307 262.263 268.09 272.54 265.752C282.817 263.413 292.509 259.003 301.023 252.79C328.073 232.78 342.873 195.75 344.253 158.32Z" fill="#FEA800"/>
<path opacity="0.7" d="M344.253 158.32C345.783 116.9 330.903 74.9803 298.103 55.0303C281.913 45.1803 262.983 39.4103 244.043 40.2603C223.723 41.1703 204.593 49.4403 185.433 56.2603C166.273 63.0803 145.523 68.5303 125.773 63.6903C111.483 60.1903 98.9133 51.5403 84.7733 47.6003C29.0633 32.0903 -19.4467 95.3003 7.81328 145.55C14.5033 157.87 24.8133 167.75 33.4833 178.78C42.1533 189.81 49.4233 203.13 48.2533 217.1C47.2533 228.67 40.6933 238.97 37.9633 250.25C32.7433 271.86 43.1033 295.63 61.0133 308.8C78.9233 321.97 103.083 325.04 124.683 319.62C146.283 314.2 165.283 300.94 180.253 284.52C188.253 275.72 196.093 265.44 207.603 262.45C218.653 259.59 230.043 264.25 241.253 266.39C251.617 268.307 262.263 268.09 272.54 265.752C282.817 263.413 292.509 259.003 301.023 252.79C328.073 232.78 342.873 195.75 344.253 158.32Z" fill="white"/>
<path d="M166.073 387.75C240.748 387.75 301.283 375.644 301.283 360.71C301.283 345.777 240.748 333.67 166.073 333.67C91.3988 333.67 30.8633 345.777 30.8633 360.71C30.8633 375.644 91.3988 387.75 166.073 387.75Z" fill="#FEA800"/>
<path opacity="0.5" d="M166.073 387.75C240.748 387.75 301.283 375.644 301.283 360.71C301.283 345.777 240.748 333.67 166.073 333.67C91.3988 333.67 30.8633 345.777 30.8633 360.71C30.8633 375.644 91.3988 387.75 166.073 387.75Z" fill="white"/>
<path d="M309.613 1H212.123C208.793 1 206.093 3.69973 206.093 7.03V114.5C206.093 117.83 208.793 120.53 212.123 120.53H309.613C312.944 120.53 315.643 117.83 315.643 114.5V7.03C315.643 3.69973 312.944 1 309.613 1Z" fill="white" stroke="#263238" stroke-linecap="round" stroke-linejoin="round"/>
<path d="M212.123 1.00008H309.603C311.195 1.00008 312.721 1.63222 313.846 2.75743C314.971 3.88265 315.603 5.40877 315.603 7.00007V13.2601H206.093V7.03008C206.089 6.2371 206.243 5.45119 206.544 4.7178C206.846 3.98441 207.29 3.31809 207.851 2.75736C208.411 2.19663 209.078 1.75261 209.811 1.45098C210.544 1.14936 211.33 0.9961 212.123 1.00008Z" fill="#263238" stroke="#263238" stroke-linecap="round" stroke-linejoin="round"/>
<path d="M212.063 64.8203H256.143" stroke="#263238" stroke-linecap="round" stroke-linejoin="round"/>
<path d="M212.063 70.5103H256.143" stroke="#263238" stroke-linecap="round" stroke-linejoin="round"/>
<path d="M212.063 76.2002H256.143" stroke="#263238" stroke-linecap="round" stroke-linejoin="round"/>
<path d="M212.063 81.8901H256.143" stroke="#263238" stroke-linecap="round" stroke-linejoin="round"/>
<path d="M212.063 87.5801H256.143" stroke="#263238" stroke-linecap="round" stroke-linejoin="round"/>
<path d="M212.063 93.2803H256.143" stroke="#263238" stroke-linecap="round" stroke-linejoin="round"/>
<path d="M212.063 98.9702H256.143" stroke="#263238" stroke-linecap="round" stroke-linejoin="round"/>
<path d="M212.063 104.66H256.143" stroke="#263238" stroke-linecap="round" stroke-linejoin="round"/>
<path d="M212.063 110.35H256.143" stroke="#263238" stroke-linecap="round" stroke-linejoin="round"/>
<path d="M263.893 64.8203H307.973" stroke="#263238" stroke-linecap="round" stroke-linejoin="round"/>
<path d="M263.893 70.5103H307.973" stroke="#263238" stroke-linecap="round" stroke-linejoin="round"/>
<path d="M263.893 76.2002H307.973" stroke="#263238" stroke-linecap="round" stroke-linejoin="round"/>
<path d="M263.893 81.8901H307.973" stroke="#263238" stroke-linecap="round" stroke-linejoin="round"/>
<path d="M263.893 87.5801H307.973" stroke="#263238" stroke-linecap="round" stroke-linejoin="round"/>
<path d="M263.893 93.2803H307.973" stroke="#263238" stroke-linecap="round" stroke-linejoin="round"/>
<path d="M263.893 98.9702H307.973" stroke="#263238" stroke-linecap="round" stroke-linejoin="round"/>
<path d="M263.893 104.66H307.973" stroke="#263238" stroke-linecap="round" stroke-linejoin="round"/>
<path d="M263.893 110.35H307.973" stroke="#263238" stroke-linecap="round" stroke-linejoin="round"/>
<g clip-path="url(#clip0_52_899)">
<mask id="mask0_52_899" style="mask-type:luminance" maskUnits="userSpaceOnUse" x="210" y="29" width="49" height="19">
<path d="M258.683 29.5498H210.691V47.5382H258.683V29.5498Z" fill="white"/>
</mask>
<g mask="url(#mask0_52_899)">
<path d="M250.593 29.5498H250.697L250.956 29.948L251.112 30.2056L251.345 30.5804L251.475 30.7912L251.682 31.0957L252.149 31.8452L252.357 32.1497L252.486 32.3605L252.849 32.9226L253.186 33.4613L253.601 34.0937L253.86 34.5153L254.016 34.7496L254.249 35.1243L254.456 35.4523L254.767 35.9207L254.923 36.1783L255.208 36.6233L255.468 37.0215L255.701 37.3963V37.4431H255.753L255.96 37.8179L256.09 38.0053L256.323 38.3566L256.427 38.5206L256.764 39.0593L257.127 39.6214L257.282 39.8791L257.49 40.1836L257.723 40.5583L258.112 41.1673L258.346 41.5186L258.372 41.6123L258.32 41.6357H251.76L251.708 41.6123V39.1295L251.786 39.0125L252.071 38.7548L252.149 38.6377H252.201L252.227 38.544H252.279L252.33 38.4503L252.59 38.1224L252.771 37.9116L253.03 37.5603L253.341 37.1152L253.368 36.9981L253.238 36.8576L253.03 36.6936L252.849 36.5063L252.615 36.272L252.253 35.827L252.201 35.7099H252.149L251.993 35.4523L251.812 35.1712L251.579 34.7262L251.371 34.2811L251.267 34.0469L251.216 33.8595L251.06 33.4145L251.008 33.3676H250.853L250.826 33.3911V36.272L251.112 36.4126L251.293 36.5999L251.371 36.7873V37.0215L251.319 37.2089L251.138 37.4197L250.878 37.5368H250.826L250.801 41.6123L250.775 41.6357H250.515L250.49 41.6123L250.463 37.654L250.412 37.5368L250.101 37.3963L249.971 37.2558L249.893 37.0684V36.7873L249.997 36.5765L250.127 36.436L250.412 36.2954H250.463V33.3676H250.282L250.205 33.4379L250.101 33.7658L249.997 34.0703L249.893 34.2811L249.764 34.5856L249.53 35.0541L249.167 35.6162L248.986 35.8738L248.726 36.1783L248.389 36.5531L248.052 36.8576H248L247.975 36.9279L247.923 36.9513L247.949 37.1152L248.13 37.3963L248.338 37.6774L248.519 37.935L248.882 38.3801L249.115 38.6377L249.323 38.8485V38.8953L249.401 38.9188L249.556 39.1061V41.6123L249.53 41.6357H238.667L238.381 41.6123V41.5889L238.615 41.5421L238.848 41.4484L239.211 41.2844L239.496 41.0502L239.678 40.816L239.807 40.5115L239.859 40.207V33.7658L239.885 29.7138L239.937 29.6669H243.93L243.982 29.6903V29.7372L243.619 29.8543L243.334 30.0183L243.178 30.1354L242.996 30.393L242.893 30.6741V40.5583L243.022 40.8628L243.178 41.0502L243.282 41.0033L243.671 40.3709L243.852 40.1133L244.008 39.8556L244.345 39.3404L244.5 39.0593L244.63 38.8719L244.734 38.708L244.941 38.4034L245.019 38.2629L245.33 37.7945L245.486 37.5368L245.797 37.0684L245.9 36.881L246.212 36.4126L246.367 36.1549L246.574 35.8504L246.678 35.663L246.963 35.218L247.223 34.8198L247.352 34.609L247.663 34.1406L247.793 33.9298L248.026 33.555L248.338 33.0632L248.597 32.665L248.986 32.0794L249.115 31.8218H249.167L249.193 31.7281L249.427 31.3533L249.608 31.0957L249.686 30.9551L249.893 30.6272L250.101 30.3227L250.256 30.0651L250.438 29.784L250.593 29.5498Z" fill="#FEA800"/>
<path d="M221.062 29.5498H221.14L221.269 29.8543L221.503 30.4633L221.606 30.6975L221.762 31.1191L221.943 31.5641L222.306 32.501L222.41 32.7352L222.462 32.9226L222.488 33.0866L222.358 33.3442L222.099 33.9064L221.943 34.2811L221.736 34.7964L221.58 35.2883L221.321 36.3189L221.243 36.8576L221.191 37.2089L221.165 37.6071V38.5674L221.191 38.9422L221.321 39.6917L221.503 40.3475L221.606 40.6286L221.736 40.9331L221.917 41.2844L222.125 41.6357L222.306 41.9168L222.566 42.2447L222.799 42.5258L222.98 42.6898L222.954 42.5492L222.747 42.1042L222.591 41.7529L222.514 41.5186L222.358 41.097L222.228 40.6286L222.177 40.4881L222.073 39.9962L222.021 39.7854L221.917 39.0593L221.865 38.4269V37.5837L221.891 37.1855L221.969 36.5999L222.047 36.1549L222.151 35.8036L222.203 35.5693L222.436 34.8901L222.591 34.5153L222.773 34.164L222.98 33.7658L223.162 33.4848L223.317 33.2271L223.603 32.8289L224.017 32.3136L224.303 32.0092L224.536 31.7515L224.718 31.5875L224.899 31.4002L225.366 30.9786L225.703 30.7209L225.988 30.4867L226.325 30.2525L226.844 29.9011L226.973 29.9246V34.0235L226.895 34.1406L226.532 34.4216L225.832 35.0541L225.651 35.2414L225.418 35.4991L225.158 35.8036L224.925 36.1081L224.718 36.3891L224.329 36.9747L224.121 37.326L223.914 37.7242L223.836 37.8882L223.603 38.4737L223.499 38.7548L223.291 39.5511L223.24 39.9025L223.214 39.9728L223.188 40.2304L223.162 40.7925V41.2142L223.214 41.9871L223.266 42.1745L223.343 42.6429L223.447 43.0645L223.551 43.369L223.629 43.6501L223.577 43.6735H223.214L222.41 43.6267L221.762 43.5798L221.114 43.5095L220.595 43.4159L220.206 43.369L219.558 43.2519L219.091 43.1348L218.417 42.9708L217.691 42.7366L217.173 42.5492L216.887 42.4321L216.291 42.1745L215.928 41.9871L215.513 41.7529L214.969 41.4015V41.3547L214.865 41.3312L214.424 40.9565L214.269 40.8394L214.087 40.652L213.854 40.4178L213.543 40.043L213.309 39.7151L212.998 39.1764L212.843 38.8485L212.635 38.3098L212.557 38.0053L212.532 37.7711L212.609 37.7476L213.128 37.8647L213.413 37.9584L214.424 38.2395L214.709 38.3098L214.917 38.3801L215.15 38.4269L215.384 38.5206L215.461 38.5674L215.591 38.8016L215.772 39.0593L216.006 39.3872L216.317 39.762L216.576 40.0665L216.861 40.3709L217.095 40.6052L217.354 40.8394V40.8862L217.432 40.9096L217.821 41.261L218.106 41.4718L218.521 41.7763L219.221 42.1979L219.584 42.3853L220.025 42.5961L220.362 42.7366L220.984 42.9474L221.554 43.0879L221.917 43.1582H222.228L221.969 43.0177L221.217 42.6663L220.802 42.4555L220.543 42.2916L220.18 42.1042L219.921 41.9403L219.61 41.7529L219.247 41.4952L218.832 41.2142L218.547 41.0033L218.158 40.6754L217.821 40.3944L217.536 40.1367L217.354 39.9493L217.043 39.6448L216.836 39.3872L216.447 38.9188L216.161 38.4971L215.824 37.9116L215.695 37.6305L215.565 37.326L215.41 36.8576L215.28 36.3189L215.202 35.5225V35.1946L215.28 34.4451L215.41 34.4216L215.798 34.6793L215.85 34.7027V34.7496L215.98 34.7964L216.317 35.0306L216.602 35.218L217.095 35.5459L217.458 35.7802L217.691 35.9675L217.847 36.5999L217.95 36.9513L218.08 37.3963L218.184 37.6305L218.391 38.1927L218.495 38.4034L218.625 38.6845L218.884 39.1998L219.013 39.4341L219.247 39.8322L219.558 40.3007L219.843 40.6754V40.7223H219.895L220.206 41.097L220.465 41.3547L220.647 41.5421L221.036 41.8934L221.321 42.1042L221.554 42.2682L221.762 42.4087L222.125 42.6195L222.462 42.7834H222.54L222.125 42.4555L221.503 41.8934L221.321 41.706L221.088 41.4718L220.932 41.3078V41.261H220.88L220.725 41.0736L220.543 40.8394V40.7925H220.491L220.31 40.5349L220.102 40.2772L220.025 40.1367L219.843 39.8791L219.713 39.6683L219.506 39.2935L219.299 38.8953L219.143 38.544L218.988 38.1458L218.832 37.654L218.676 36.9981L218.599 36.436L218.573 36.0612V35.1946L218.625 34.609L218.702 34.1874L218.806 33.7424L218.91 33.3442L219.065 32.9226L219.273 32.3839L219.532 31.8218L219.817 31.3299L219.973 31.0723L220.18 30.7209L220.414 30.393L220.543 30.2291L220.647 30.0651L220.906 29.7372L221.062 29.5498Z" fill="#FEA800"/>
<path d="M232.937 29.7139H233.585L233.714 29.7841L233.844 30.0418L234.051 30.4868L234.259 30.9553L234.363 31.1661L234.648 31.7985L234.777 32.0561L234.959 32.4777L235.063 32.6651L235.426 33.4849L235.529 33.6723L235.737 34.1407L235.789 34.211L235.84 34.3515L235.97 34.656L236.1 34.9136L236.411 35.5929L236.8 36.4361L237.007 36.8811L237.163 37.1856L237.318 37.3027L237.396 37.3261H237.707L237.915 37.2325L238.2 37.0216L238.252 36.9748L238.278 37.0685L238.096 37.4667L237.966 37.7477L237.837 37.982L237.681 38.3567L237.396 39.0126L237.137 39.5747L237.007 39.9026L236.67 40.6521L236.515 41.0269L236.307 41.4719L236.203 41.5656L235.97 41.5422L235.789 41.1908L235.659 40.9097L235.477 40.535L235.166 39.8557L234.985 39.481L234.855 39.2233L234.726 38.9423L234.363 38.1693L234.259 37.9586L234.129 37.6541L234.077 37.5838L234.026 37.4198L233.922 37.2559L233.792 36.9514L233.014 35.3118L232.885 35.0308L232.677 34.5857L232.418 34.047L232.159 33.4849L232.003 33.1804L231.874 32.8759L231.666 32.4309L231.511 32.1264L231.329 31.7048L231.225 31.5174L231.096 31.2129L230.966 30.9553L230.94 30.8381L230.862 30.885V34.9839L230.992 35.101L231.148 35.265L231.251 35.4524L231.277 35.6631L231.251 35.8739L231.122 36.1082L230.94 36.2721L230.862 36.319V39.5278L230.914 40.2539L230.992 40.6287L231.148 40.9097L231.433 41.1908L231.692 41.3548L232.081 41.4953L232.211 41.5187V41.5422L232.055 41.5656H228.684L228.581 41.5187L229.047 41.3314L229.384 41.1206L229.566 40.9332L229.722 40.7458L229.877 40.4413L230.007 39.9963L230.085 39.4107V36.319L229.825 36.1082L229.67 35.8271V35.4992L229.825 35.1947L230.033 35.0542H230.085V31.2597L230.007 30.9787L229.825 30.6508L229.67 30.44L229.41 30.2057L229.151 30.0418L228.736 29.8544L228.581 29.8076L228.607 29.7607L228.944 29.7373L232.937 29.7139Z" fill="#FEA800"/>
<path d="M216.732 43.416H218.261L219.039 43.4628L219.61 43.5331L220.206 43.6268L220.854 43.7674L221.321 43.9079L221.658 44.025L222.073 44.1889L222.617 44.47L222.954 44.7042L223.136 44.8214L223.499 45.1961L223.628 45.3132L223.68 45.4772L223.577 45.4537L223.214 45.3366L223.006 45.2664L222.747 45.1727L222.41 45.079L221.839 44.915L221.269 44.7745L221.036 44.7277L220.491 44.6105L220.076 44.5403L219.61 44.47L218.806 44.3763L218.339 44.3529L218.184 44.3295H216.317L215.358 44.3997L215.15 44.4466L214.424 44.5403L214.243 44.5871L213.828 44.6574L213.594 44.7277L213.361 44.7745L212.713 44.9619L212.583 45.0321L212.48 45.2898L212.272 45.9924L212.246 46.1564L212.817 46.0159L213.205 45.9222L213.491 45.8519L214.087 45.7582L214.269 45.7114L214.683 45.6645L215.539 45.5709L216.135 45.5474H217.587L218.573 45.5943L218.65 45.6177L219.221 45.6645L219.739 45.7348L220.232 45.8285L220.543 45.8754L221.217 46.0159L221.684 46.133L222.125 46.2501L222.747 46.4375L223.058 46.5546H223.214L223.421 46.3906L223.706 46.133L223.991 45.9222L224.277 45.7348L224.717 45.524L225.003 45.4303L225.262 45.3835H226.014L226.273 45.4537L226.532 45.5474L226.688 45.6177L227.051 45.8285L227.284 45.9924L227.466 46.1798L227.595 46.297L227.881 46.6015L228.14 46.5312L228.451 46.4141L228.814 46.297L229.151 46.2033L229.825 46.0393L230.37 45.9222L230.577 45.8754L231.018 45.8051L231.433 45.7348L231.536 45.7114L232.288 45.6411L232.91 45.5943L233.948 45.5709L234.803 45.5943L235.607 45.6645L236.022 45.7114L236.1 45.7582L235.996 45.7817L235.425 45.8285L234.959 45.8754L234.751 45.9222L234.362 45.9691L233.662 46.0861L232.573 46.3204L232.159 46.4141L231.692 46.5312L231.303 46.6249L231.07 46.6952L230.655 46.7888L230.344 46.8825L229.877 46.9996L229.514 47.1167L229.151 47.2104L228.736 47.3275L228.269 47.4446H227.906L227.647 47.3744L227.31 47.2104L226.792 46.8825L226.403 46.6483L226.169 46.5312L225.91 46.4375L225.703 46.3906H225.314L225.08 46.4375L224.821 46.5312L224.562 46.6483L224.199 46.9059L224.069 47.0231L223.706 47.3744L223.551 47.4915L223.473 47.5149H223.265L223.006 47.3978L222.773 47.3275L222.306 47.1636L222.047 47.0933L221.839 47.0231L221.243 46.8591L220.647 46.742L220.387 46.6952L220.05 46.6249L219.221 46.5312L219.143 46.5078L218.028 46.4609L217.821 46.4375H216.991L216.732 46.4609L215.617 46.5078L214.865 46.6015L214.476 46.6483L214.035 46.7185L213.646 46.7888L213.439 46.8357L212.946 46.9294L212.48 47.0465L211.935 47.187L211.468 47.3275L211.131 47.4212L210.898 47.5149L210.691 47.5383L210.716 47.3744L210.872 46.8122L210.924 46.578L211.028 46.2033L211.079 45.9691L211.235 45.3601L211.313 44.9853L211.416 44.6105L211.52 44.1889L211.65 44.1187L213.257 43.8142L213.517 43.7674L214.165 43.6737L215.046 43.5565L215.617 43.5097L215.98 43.4628L216.732 43.416Z" fill="#FEA800"/>
<path d="M238.355 34.937L238.692 34.9604L238.978 35.101L239.133 35.2649L239.211 35.4055L239.263 35.5928V35.7568L239.159 36.0379L238.978 36.2252L238.718 36.3658L238.589 36.3892H238.355L238.122 36.3424L237.889 36.2018L237.733 36.0144L237.655 35.8271V35.4991L237.759 35.2883L237.915 35.101L238.226 34.9604L238.355 34.937Z" fill="#FEA800"/>
<path d="M230.085 43.0284V43.3983H229.601V44.2613H229.109V43.3983H228.626V43.0284H230.085ZM231.329 43.0284H231.822V44.2613H231.329V43.8312H230.848V44.2613H230.358V43.0284H230.848V43.4584H231.329V43.0284ZM232.102 44.2613V43.0284H233.358V43.3821H232.593V43.5025H233.329V43.7872H232.593V43.9061H233.358V44.2613H232.102ZM234.243 44.2613V43.0284H234.86L235.044 43.6771H235.079L235.263 43.0284H235.88V44.2613H235.412V43.7799H235.375L235.242 44.2613H234.881L234.748 43.7799H234.711V44.2613H234.243ZM237.28 44.2613L237.228 44.113H236.672L236.62 44.2613H236.113L236.606 43.0284H237.295L237.788 44.2613H237.28ZM236.788 43.7858H237.113L236.992 43.4452H236.908L236.788 43.7858ZM238.626 44.3024C238.137 44.3009 237.915 44.1688 237.929 43.8386H238.369C238.373 43.912 238.441 43.9545 238.626 43.9575C238.785 43.9589 238.854 43.9208 238.854 43.8767C238.854 43.8532 238.847 43.8122 238.724 43.7975L238.545 43.7725C238.288 43.7358 237.96 43.7197 237.96 43.388C237.96 43.1399 238.179 42.9873 238.631 42.9873C239.034 42.9873 239.315 43.0813 239.304 43.4482H238.865C238.85 43.3763 238.781 43.3322 238.62 43.3322C238.482 43.3322 238.431 43.3675 238.431 43.4115C238.431 43.432 238.443 43.4731 238.535 43.4863L238.678 43.5069C238.953 43.548 239.343 43.5436 239.343 43.8958C239.343 44.1717 239.109 44.3038 238.626 44.3024ZM241.006 43.0284V43.3983H240.522V44.2613H240.03V43.3983H239.547V43.0284H241.006ZM241.279 44.2613V43.0284H242.535V43.3821H241.77V43.5025H242.506V43.7872H241.77V43.9061H242.535V44.2613H241.279ZM244.272 44.2613H243.789L243.617 43.9589H243.308V44.2613H242.818V43.0284H243.62C244.004 43.0284 244.221 43.1722 244.221 43.5098C244.221 43.6713 244.143 43.7887 244.035 43.862L244.272 44.2613ZM243.308 43.3968V43.6287H243.584C243.682 43.6287 243.729 43.5847 243.729 43.5128C243.729 43.4408 243.682 43.3968 243.584 43.3968H243.308ZM245.146 44.3024C244.657 44.3009 244.435 44.1688 244.449 43.8386H244.89C244.893 43.912 244.961 43.9545 245.146 43.9575C245.306 43.9589 245.374 43.9208 245.374 43.8767C245.374 43.8532 245.367 43.8122 245.244 43.7975L245.065 43.7725C244.809 43.7358 244.48 43.7197 244.48 43.388C244.48 43.1399 244.7 42.9873 245.151 42.9873C245.554 42.9873 245.835 43.0813 245.824 43.4482H245.385C245.371 43.3763 245.301 43.3322 245.14 43.3322C245.002 43.3322 244.951 43.3675 244.951 43.4115C244.951 43.432 244.963 43.4731 245.055 43.4863L245.198 43.5069C245.473 43.548 245.863 43.5436 245.863 43.8958C245.863 44.1717 245.629 44.3038 245.146 44.3024ZM247.836 44.2613L247.784 44.113H247.228L247.176 44.2613H246.669L247.161 43.0284H247.85L248.344 44.2613H247.836ZM247.343 43.7858H247.668L247.548 43.4452H247.464L247.343 43.7858ZM249.194 44.3024C248.728 44.3024 248.421 44.0426 248.421 43.6449C248.421 43.2471 248.728 42.9873 249.194 42.9873C249.537 42.9873 249.891 43.1238 249.928 43.5582H249.46C249.43 43.4305 249.334 43.3704 249.194 43.3704C249.036 43.3704 248.908 43.4746 248.908 43.6449C248.908 43.8136 249.036 43.9193 249.194 43.9193C249.334 43.9193 249.43 43.8591 249.46 43.7285H249.928C249.891 44.1659 249.542 44.3024 249.194 44.3024ZM251.202 44.2613L251.15 44.113H250.595L250.543 44.2613H250.036L250.528 43.0284H251.217L251.711 44.2613H251.202ZM250.71 43.7858H251.035L250.915 43.4452H250.83L250.71 43.7858ZM252.648 43.0284C253.212 43.0284 253.405 43.2882 253.405 43.6449C253.405 44 253.212 44.2613 252.648 44.2613H251.943V43.0284H252.648ZM252.648 43.8899C252.793 43.8899 252.911 43.8283 252.911 43.6449C252.911 43.4599 252.793 43.3997 252.648 43.3997H252.437L252.435 43.8899H252.648ZM253.67 44.2613V43.0284H254.926V43.3821H254.161V43.5025H254.897V43.7872H254.161V43.9061H254.926V44.2613H253.67ZM255.209 44.2613V43.0284H255.826L256.01 43.6771H256.046L256.229 43.0284H256.847V44.2613H256.379V43.7799H256.342L256.208 44.2613H255.848L255.714 43.7799H255.677V44.2613H255.209ZM258.675 43.0284L258.118 43.8826V44.2613H257.626V43.8782L257.07 43.0284H257.587L257.855 43.4628H257.892L258.16 43.0284H258.675Z" fill="#FEA800"/>
</g>
</g>
<path d="M308.283 17.6802H262.923V58.6802H308.283V17.6802Z" fill="#FEA800" stroke="#263238" stroke-width="2" stroke-linecap="round" stroke-linejoin="round"/>
<path d="M308.283 34.8203C306.762 34.907 305.25 35.1177 303.763 35.4503C296.873 36.9503 295.073 46.8403 287.283 46.8403C280.383 46.8403 279.793 37.5503 269.903 36.3503C267.497 35.9713 265.033 36.4078 262.903 37.5903V58.6803H308.283V34.8203Z" fill="#263238" stroke="#263238" stroke-linecap="round" stroke-linejoin="round"/>
<path d="M277.993 27.0602C277.995 28.0698 277.698 29.0572 277.138 29.8974C276.578 30.7376 275.782 31.3928 274.85 31.7801C273.917 32.1673 272.891 32.2692 271.901 32.0727C270.911 31.8762 270.001 31.3903 269.287 30.6765C268.573 29.9626 268.087 29.053 267.891 28.0627C267.694 27.0725 267.796 26.0462 268.183 25.1139C268.571 24.1816 269.226 23.3852 270.066 22.8256C270.906 22.2659 271.894 21.9682 272.903 21.9702C274.253 21.9702 275.548 22.5065 276.502 23.4611C277.457 24.4156 277.993 25.7103 277.993 27.0602Z" fill="white" stroke="#263238" stroke-linecap="round" stroke-linejoin="round"/>
<path d="M310.353 4.58984H209.383V8.47984H310.353V4.58984Z" fill="white" stroke="#263238" stroke-linecap="round" stroke-linejoin="round"/>
<path d="M304.053 144.38H260.343C258.625 144.38 256.976 145.063 255.761 146.278C254.546 147.493 253.863 149.141 253.863 150.86V174.24C253.863 175.958 254.546 177.607 255.761 178.822C256.976 180.037 258.625 180.72 260.343 180.72H261.683C260.323 183.72 257.683 188.32 253.513 191.05C253.513 191.05 262.383 190.43 271.623 180.72H304.033C305.752 180.72 307.4 180.037 308.615 178.822C309.831 177.607 310.513 175.958 310.513 174.24V150.86C310.513 149.145 309.833 147.5 308.622 146.285C307.411 145.07 305.768 144.385 304.053 144.38Z" fill="#263238" stroke="#263238" stroke-linecap="round" stroke-linejoin="round"/>
<path d="M274.683 161.72C274.685 161.059 274.491 160.412 274.125 159.861C273.758 159.31 273.237 158.88 272.626 158.626C272.015 158.372 271.343 158.305 270.694 158.434C270.045 158.562 269.449 158.881 268.982 159.348C268.514 159.816 268.196 160.412 268.067 161.061C267.938 161.71 268.005 162.382 268.259 162.993C268.513 163.604 268.943 164.125 269.494 164.491C270.045 164.858 270.692 165.052 271.353 165.05C272.236 165.047 273.081 164.696 273.705 164.072C274.329 163.448 274.681 162.602 274.683 161.72Z" fill="#FEA800" stroke="#263238" stroke-linecap="round" stroke-linejoin="round"/>
<path d="M286.013 161.72C286.013 161.062 285.818 160.418 285.452 159.87C285.086 159.322 284.566 158.896 283.958 158.644C283.349 158.392 282.68 158.326 282.034 158.454C281.388 158.583 280.794 158.9 280.329 159.365C279.863 159.831 279.546 160.425 279.417 161.07C279.289 161.716 279.355 162.386 279.607 162.994C279.859 163.603 280.286 164.123 280.833 164.489C281.381 164.855 282.025 165.05 282.683 165.05C283.566 165.047 284.411 164.696 285.035 164.072C285.659 163.448 286.011 162.602 286.013 161.72Z" fill="#FEA800" stroke="#263238" stroke-linecap="round" stroke-linejoin="round"/>
<path d="M297.353 161.72C297.355 161.059 297.161 160.412 296.795 159.862C296.429 159.311 295.909 158.882 295.298 158.627C294.688 158.373 294.016 158.305 293.368 158.433C292.719 158.561 292.123 158.878 291.655 159.345C291.187 159.812 290.868 160.407 290.738 161.055C290.609 161.703 290.674 162.375 290.927 162.986C291.179 163.597 291.607 164.119 292.157 164.487C292.706 164.854 293.352 165.05 294.013 165.05C294.897 165.047 295.743 164.696 296.369 164.072C296.994 163.449 297.348 162.603 297.353 161.72Z" fill="#FEA800" stroke="#263238" stroke-linecap="round" stroke-linejoin="round"/>
<path d="M63.6833 15.1802H135.683C137.397 15.1802 139.04 15.8608 140.251 17.0723C141.463 18.2838 142.143 19.9269 142.143 21.6402V71.5502H57.2533V21.6402C57.2533 19.9321 57.9298 18.2935 59.1348 17.0828C60.3398 15.8722 61.9752 15.1881 63.6833 15.1802Z" fill="#FEA800" stroke="#263238" stroke-linecap="round" stroke-linejoin="round"/>
<path d="M142.103 63.5H57.2533V71.52H142.103V63.5Z" fill="#263238" stroke="#263238" stroke-linecap="round" stroke-linejoin="round"/>
<path d="M138.223 66.2402H61.1433V68.7802H138.223V66.2402Z" fill="white" stroke="#263238" stroke-linecap="round" stroke-linejoin="round"/>
<path d="M99.6833 52.48C106.156 52.48 111.403 47.2328 111.403 40.76C111.403 34.2873 106.156 29.04 99.6833 29.04C93.2105 29.04 87.9633 34.2873 87.9633 40.76C87.9633 47.2328 93.2105 52.48 99.6833 52.48Z" fill="#263238" stroke="#263238" stroke-linecap="round" stroke-linejoin="round"/>
<path d="M94.3933 33.4702L107.043 40.7702L94.3933 48.0702V33.4702Z" fill="white" stroke="#263238" stroke-linecap="round" stroke-linejoin="round"/>
<path d="M105.403 92.0503H24.8733C23.3158 92.0503 22.0533 93.3129 22.0533 94.8703V125.56C22.0533 127.118 23.3158 128.38 24.8733 128.38H105.403C106.961 128.38 108.223 127.118 108.223 125.56V94.8703C108.223 93.3129 106.961 92.0503 105.403 92.0503Z" fill="#263238" stroke="#263238" stroke-linecap="round" stroke-linejoin="round"/>
<path d="M32.3133 97L32.7333 97.7C30.8333 98.76 29.0633 100.62 29.0633 102.8C29.039 103.174 29.0896 103.55 29.2123 103.905C29.335 104.259 29.5273 104.586 29.7778 104.865C30.0283 105.145 30.3321 105.371 30.6713 105.532C31.0105 105.692 31.3784 105.783 31.7533 105.8C32.0333 105.8 32.2233 105.66 32.2233 105.38C32.2233 105.1 32.0833 105.01 31.8033 104.96C31.4257 104.858 31.0967 104.625 30.8751 104.302C30.6535 103.98 30.5536 103.589 30.5933 103.2C30.6006 102.889 30.6709 102.584 30.8001 102.301C30.9293 102.019 31.1145 101.766 31.3446 101.557C31.5747 101.348 31.8449 101.189 32.1386 101.088C32.4324 100.987 32.7436 100.947 33.0533 100.97C33.3902 100.971 33.7235 101.04 34.0334 101.172C34.3433 101.304 34.6236 101.497 34.8576 101.74C35.0916 101.982 35.2746 102.269 35.3958 102.583C35.517 102.898 35.574 103.233 35.5633 103.57C35.5584 103.993 35.4683 104.411 35.2983 104.799C35.1283 105.186 34.8819 105.536 34.5739 105.826C34.2659 106.116 33.9025 106.342 33.5055 106.488C33.1085 106.635 32.686 106.7 32.2633 106.68C31.7377 106.714 31.2108 106.637 30.7168 106.455C30.2228 106.272 29.7726 105.988 29.3955 105.62C29.0184 105.252 28.7228 104.81 28.5277 104.32C28.3327 103.831 28.2426 103.306 28.2633 102.78C28.2333 100.25 30.1833 98.21 32.3133 97ZM40.9033 97L41.3233 97.7C39.4133 98.76 37.6533 100.62 37.6533 102.8C37.6276 103.175 37.6773 103.551 37.7994 103.906C37.9216 104.261 38.1138 104.589 38.3646 104.868C38.6154 105.148 38.9197 105.374 39.2596 105.535C39.5994 105.695 39.9679 105.785 40.3433 105.8C40.6233 105.8 40.8133 105.66 40.8133 105.38C40.8133 105.1 40.6733 105.01 40.3933 104.96C40.0157 104.858 39.6867 104.625 39.4651 104.302C39.2435 103.98 39.1436 103.589 39.1833 103.2C39.1891 102.889 39.2585 102.583 39.3872 102.299C39.5159 102.016 39.7012 101.762 39.9316 101.554C40.162 101.345 40.4327 101.185 40.7271 101.085C41.0215 100.984 41.3332 100.945 41.6433 100.97C41.9802 100.971 42.3135 101.04 42.6234 101.172C42.9333 101.304 43.2136 101.497 43.4476 101.74C43.6816 101.982 43.8646 102.269 43.9858 102.583C44.107 102.898 44.164 103.233 44.1533 103.57C44.147 103.993 44.0559 104.41 43.8855 104.797C43.715 105.184 43.4686 105.533 43.1609 105.823C42.8532 106.113 42.4904 106.338 42.094 106.485C41.6976 106.633 41.2757 106.699 40.8533 106.68C40.3281 106.712 39.8019 106.635 39.3085 106.451C38.8152 106.268 38.3657 105.984 37.9889 105.617C37.6122 105.249 37.3165 104.807 37.1209 104.318C36.9253 103.83 36.8341 103.306 36.8533 102.78C36.8133 100.25 38.7633 98.21 40.9033 97Z" fill="#FEA800"/>
<path d="M49.1233 104.4H98.1633" stroke="white" stroke-linecap="round" stroke-linejoin="round"/>
<path d="M49.1233 108.61H98.1633" stroke="white" stroke-linecap="round" stroke-linejoin="round"/>
<path d="M49.1233 112.82H98.1633" stroke="white" stroke-linecap="round" stroke-linejoin="round"/>
<path d="M49.1233 117.04H98.1633" stroke="white" stroke-linecap="round" stroke-linejoin="round"/>
<path d="M89.4865 184.709C99.6085 183.057 106.475 173.513 104.823 163.391C103.17 153.269 93.6257 146.402 83.5037 148.055C73.3817 149.707 66.5155 159.251 68.1676 169.373C69.8197 179.495 79.3645 186.362 89.4865 184.709Z" fill="#263238" stroke="#263238" stroke-linecap="round" stroke-linejoin="round"/>
<path d="M98.2738 176.744C103.984 170.241 103.342 160.34 96.8398 154.629C90.3371 148.919 80.4362 149.561 74.7255 156.063C69.0148 162.566 69.6568 172.467 76.1595 178.178C82.6621 183.888 92.563 183.246 98.2738 176.744Z" fill="white" stroke="#263238" stroke-linecap="round" stroke-linejoin="round"/>
<path d="M86.5033 155.05V166.38H94.1633" stroke="#263238" stroke-width="2" stroke-linecap="round" stroke-linejoin="round"/>
<path d="M202.683 166.42C202.683 166.42 213.333 189.15 213.333 190.35C213.333 191.55 203.883 196.69 202.083 197.77C200.687 198.566 199.248 199.283 197.773 199.92L198.853 210.45C198.853 210.45 215.123 206.74 221.943 203.03C228.763 199.32 228.523 195.13 226.943 188.91C225.363 182.69 214.853 158.65 214.853 158.65L202.683 166.42Z" fill="white"/>
<mask id="mask1_52_899" style="mask-type:luminance" maskUnits="userSpaceOnUse" x="197" y="158" width="31" height="53">
<path d="M202.683 166.42C202.683 166.42 213.333 189.15 213.333 190.35C213.333 191.55 203.883 196.69 202.083 197.77C200.687 198.566 199.248 199.283 197.773 199.92L198.853 210.45C198.853 210.45 215.123 206.74 221.943 203.03C228.763 199.32 228.523 195.13 226.943 188.91C225.363 182.69 214.853 158.65 214.853 158.65L202.683 166.42Z" fill="white"/>
</mask>
<g mask="url(#mask1_52_899)">
<g style="mix-blend-mode:multiply" opacity="0.5">
<path d="M221.913 203.03C228.733 199.32 228.493 195.13 226.913 188.91C225.333 182.69 214.823 158.65 214.823 158.65L213.123 159.73L212.583 160.73C212.583 160.73 222.393 184.81 222.983 192.83C223.383 198.22 212.533 204.94 205.363 208.78C210.683 207.37 217.923 205.2 221.913 203.03Z" fill="#FEA800"/>
</g>
</g>
<path d="M202.683 166.42C202.683 166.42 213.333 189.15 213.333 190.35C213.333 191.55 203.883 196.69 202.083 197.77C200.687 198.566 199.248 199.283 197.773 199.92L198.853 210.45C198.853 210.45 215.123 206.74 221.943 203.03C228.763 199.32 228.523 195.13 226.943 188.91C225.363 182.69 214.853 158.65 214.853 158.65L202.683 166.42Z" stroke="#263238" stroke-linecap="round" stroke-linejoin="round"/>
<path d="M125.843 161.4C125.843 161.4 118.073 189.87 117.843 194.9C117.613 199.93 133.273 209.85 133.843 210.45C134.413 211.05 132.953 193.15 132.953 193.15L138.263 167.15L125.843 161.4Z" fill="white"/>
<mask id="mask2_52_899" style="mask-type:luminance" maskUnits="userSpaceOnUse" x="117" y="161" width="22" height="50">
<path d="M125.843 161.4C125.843 161.4 118.073 189.87 117.843 194.9C117.613 199.93 133.273 209.85 133.843 210.45C134.413 211.05 132.953 193.15 132.953 193.15L138.263 167.15L125.843 161.4Z" fill="white"/>
</mask>
<g mask="url(#mask2_52_899)">
<g style="mix-blend-mode:multiply" opacity="0.5">
<path d="M129.403 163.73L129.233 162.96L125.843 161.4C125.843 161.4 118.073 189.87 117.843 194.9C117.613 199.93 133.273 209.85 133.843 210.45C134.073 210.69 133.983 208.01 133.793 204.7C129.133 200.75 122.443 195.19 121.663 192.85" fill="#FEA800"/>
</g>
</g>
<path d="M125.843 161.4C125.843 161.4 118.073 189.87 117.843 194.9C117.613 199.93 133.273 209.85 133.843 210.45C134.413 211.05 132.953 193.15 132.953 193.15L138.263 167.15L125.843 161.4Z" stroke="#263238" stroke-linecap="round" stroke-linejoin="round"/>
<path d="M162.333 132.801C162.333 132.801 159.333 134.961 153.483 135.201C147.633 135.441 147.353 131.201 140.083 131.201C131.273 131.201 120.223 159.071 120.223 159.071C120.223 159.071 125.723 164.461 131.113 166.731C134.095 168.037 137.23 168.961 140.443 169.481L141.283 187.791H200.623L201.333 169.481L219.883 157.451C219.883 157.451 210.783 141.181 206.363 135.081C201.943 128.981 194.513 131.251 192.243 132.801C189.973 134.351 183.243 134.721 180.763 134.361C177.528 133.645 174.331 132.767 171.183 131.731C171.183 131.731 167.363 128.551 162.333 132.801Z" fill="#FEA800" stroke="#263238" stroke-linecap="round" stroke-linejoin="round"/>
<path d="M141.043 139.261L140.803 169.651" stroke="#263238" stroke-width="0.5" stroke-linecap="round" stroke-linejoin="round"/>
<path d="M143.193 142.021C143.193 142.021 144.033 156.851 147.193 165.111" stroke="#263238" stroke-width="0.5" stroke-linecap="round" stroke-linejoin="round"/>
<path d="M147.743 166.3C148.426 168.316 149.265 170.275 150.253 172.16" stroke="#263238" stroke-width="0.5" stroke-linecap="round" stroke-linejoin="round"/>
<path d="M145.103 140.34C146.239 145.733 147.841 151.016 149.893 156.13" stroke="#263238" stroke-width="0.5" stroke-linecap="round" stroke-linejoin="round"/>
<path d="M196.683 142.971C196.683 142.971 193.813 154.701 191.293 159.971" stroke="#263238" stroke-width="0.5" stroke-linecap="round" stroke-linejoin="round"/>
<path d="M201.333 169.53L201.213 145.84" stroke="#263238" stroke-width="0.5" stroke-linecap="round" stroke-linejoin="round"/>
<path d="M200.023 146.32C200.023 146.32 197.863 161.32 192.603 169.17" stroke="#263238" stroke-width="0.5" stroke-linecap="round" stroke-linejoin="round"/>
<path d="M197.393 166.181C197.393 166.181 194.993 170.731 193.323 173.121" stroke="#263238" stroke-width="0.5" stroke-linecap="round" stroke-linejoin="round"/>
<path d="M158.983 134.601C158.983 134.601 160.663 144.891 163.053 150.151C165.443 155.411 169.633 156.491 173.223 154.941C176.813 153.391 179.443 145.721 179.223 135.941" stroke="#263238" stroke-width="0.5" stroke-linecap="round" stroke-linejoin="round"/>
<path d="M150.493 113.06C150.493 113.06 148.213 109.12 146.423 111.15C144.633 113.18 147.863 117.85 149.653 119.4C151.443 120.95 152.763 120 152.653 118.33C152.543 116.66 150.493 113.06 150.493 113.06Z" fill="#FEA800" stroke="#263238" stroke-linecap="round" stroke-linejoin="round"/>
<path opacity="0.5" d="M150.493 113.06C150.493 113.06 148.213 109.12 146.423 111.15C144.633 113.18 147.863 117.85 149.653 119.4C151.443 120.95 152.763 120 152.653 118.33C152.543 116.66 150.493 113.06 150.493 113.06Z" fill="white"/>
<path d="M150.493 113.06C150.493 113.06 148.213 109.12 146.423 111.15C144.633 113.18 147.863 117.85 149.653 119.4C151.443 120.95 152.763 120 152.653 118.33C152.543 116.66 150.493 113.06 150.493 113.06Z" stroke="#263238" stroke-linecap="round" stroke-linejoin="round"/>
<path d="M186.683 113.06C186.683 113.06 188.953 109.12 190.753 111.15C192.553 113.18 189.313 117.85 187.523 119.4C185.733 120.95 184.403 120 184.523 118.33C184.643 116.66 186.683 113.06 186.683 113.06Z" fill="#FEA800" stroke="#263238" stroke-linecap="round" stroke-linejoin="round"/>
<path opacity="0.5" d="M186.683 113.06C186.683 113.06 188.953 109.12 190.753 111.15C192.553 113.18 189.313 117.85 187.523 119.4C185.733 120.95 184.403 120 184.523 118.33C184.643 116.66 186.683 113.06 186.683 113.06Z" fill="white"/>
<path d="M186.683 113.06C186.683 113.06 188.953 109.12 190.753 111.15C192.553 113.18 189.313 117.85 187.523 119.4C185.733 120.95 184.403 120 184.523 118.33C184.643 116.66 186.683 113.06 186.683 113.06Z" stroke="#263238" stroke-linecap="round" stroke-linejoin="round"/>
<path d="M161.253 131.971C162.383 137.077 163.822 142.109 165.563 147.041C167.723 152.421 171.783 152.421 173.463 148.951C175.143 145.481 176.213 132.551 176.213 132.551C176.213 132.551 164.963 134.121 161.253 131.971Z" fill="white" stroke="#263238" stroke-linecap="round" stroke-linejoin="round"/>
<path d="M150.733 114.38C150.733 114.38 153.843 125.38 159.733 131.85C165.623 138.32 167.733 139.85 170.863 139.38C173.993 138.91 177.323 134.84 181.983 126.38C186.643 117.92 186.983 111.43 187.373 110.83C187.763 110.23 186.373 98.2705 179.713 93.1205C173.053 87.9705 165.593 85.7105 159.133 91.3305C152.673 96.9505 148.573 106.12 150.733 114.38Z" fill="white"/>
<mask id="mask3_52_899" style="mask-type:luminance" maskUnits="userSpaceOnUse" x="150" y="88" width="38" height="52">
<path d="M150.733 114.38C150.733 114.38 153.843 125.38 159.733 131.85C165.623 138.32 167.733 139.85 170.863 139.38C173.993 138.91 177.323 134.84 181.983 126.38C186.643 117.92 186.983 111.43 187.373 110.83C187.763 110.23 186.373 98.2705 179.713 93.1205C173.053 87.9705 165.593 85.7105 159.133 91.3305C152.673 96.9505 148.573 106.12 150.733 114.38Z" fill="white"/>
</mask>
<g mask="url(#mask3_52_899)">
<g style="mix-blend-mode:multiply" opacity="0.5">
<path d="M179.683 93.0804C172.983 87.9404 165.563 85.6704 159.103 91.2904C152.643 96.9104 148.573 106.12 150.733 114.38C150.733 114.38 151.323 116.5 152.493 119.38C152.49 119.012 152.54 118.644 152.643 118.29C154.073 113.76 158.293 104.99 172.493 109.01C183.773 112.19 182.393 122.11 181.343 127.4L181.953 126.3C186.623 117.81 186.953 111.35 187.343 110.75C187.733 110.15 186.383 98.2304 179.683 93.0804Z" fill="#FEA800"/>
</g>
</g>
<path d="M150.733 114.38C150.733 114.38 153.843 125.38 159.733 131.85C165.623 138.32 167.733 139.85 170.863 139.38C173.993 138.91 177.323 134.84 181.983 126.38C186.643 117.92 186.983 111.43 187.373 110.83C187.763 110.23 186.373 98.2705 179.713 93.1205C173.053 87.9705 165.593 85.7105 159.133 91.3305C152.673 96.9505 148.573 106.12 150.733 114.38Z" stroke="#263238" stroke-linecap="round" stroke-linejoin="round"/>
<path d="M170.833 120.121C170.462 122.456 170.262 124.816 170.233 127.181C170.353 129.571 171.073 130.291 169.993 130.531C168.913 130.771 167.723 129.091 167.723 129.091" stroke="#263238" stroke-linecap="round" stroke-linejoin="round"/>
<path d="M158.863 122.041C159.556 122.541 160.385 122.821 161.24 122.842C162.095 122.863 162.936 122.626 163.653 122.161" stroke="#263238" stroke-linecap="round" stroke-linejoin="round"/>
<path d="M174.063 122.041C174.755 122.54 175.582 122.819 176.435 122.841C177.288 122.862 178.127 122.625 178.843 122.161" stroke="#263238" stroke-linecap="round" stroke-linejoin="round"/>
<path d="M166.503 118.01C166.503 118.01 164.223 112.38 156.693 115.01" stroke="#263238" stroke-linecap="round" stroke-linejoin="round"/>
<path d="M172.773 117.321C172.773 117.321 174.683 111.811 181.503 115.041" stroke="#263238" stroke-linecap="round" stroke-linejoin="round"/>
<path d="M167.953 122.45C167.953 125.53 164.423 128.02 160.063 128.02C155.703 128.02 152.163 125.53 152.163 122.45C152.163 119.37 155.463 118.09 159.823 118.09C164.183 118.09 167.953 119.38 167.953 122.45Z" stroke="#263238" stroke-linecap="round" stroke-linejoin="round"/>
<path d="M186.143 122.45C186.143 125.53 182.603 128.02 178.243 128.02C173.883 128.02 170.353 125.53 170.353 122.45C170.353 119.37 173.643 118.09 178.003 118.09C182.363 118.09 186.143 119.38 186.143 122.45Z" stroke="#263238" stroke-linecap="round" stroke-linejoin="round"/>
<path d="M85.3133 218.38L84.8233 339.61C84.8233 339.992 84.975 340.359 85.2451 340.629C85.5151 340.899 85.8814 341.05 86.2633 341.05C86.6357 341.051 86.9935 340.905 87.2606 340.646C87.5276 340.386 87.6829 340.033 87.6933 339.66L91.1533 218.55L85.3133 218.38Z" fill="white" stroke="#263238" stroke-linecap="round" stroke-linejoin="round"/>
<path d="M77.1533 246.721L76.6833 372.051C76.682 372.24 76.7183 372.428 76.7902 372.603C76.8621 372.779 76.9681 372.938 77.1021 373.072C77.2361 373.206 77.3953 373.312 77.5707 373.384C77.746 373.456 77.9338 373.492 78.1233 373.491C78.495 373.491 78.8525 373.348 79.1209 373.09C79.3893 372.833 79.5478 372.482 79.5633 372.111L83.0133 246.881L77.1533 246.721Z" fill="white" stroke="#263238" stroke-linecap="round" stroke-linejoin="round"/>
<path d="M252.913 218.38L253.403 339.61C253.405 339.799 253.369 339.986 253.297 340.161C253.226 340.335 253.121 340.494 252.988 340.628C252.855 340.762 252.697 340.868 252.523 340.941C252.349 341.013 252.162 341.05 251.973 341.05C251.6 341.051 251.241 340.906 250.972 340.646C250.704 340.387 250.546 340.034 250.533 339.66L247.083 218.55L252.913 218.38Z" fill="white" stroke="#263238" stroke-linecap="round" stroke-linejoin="round"/>
<path d="M261.083 246.721L261.573 372.051C261.575 372.24 261.538 372.428 261.466 372.603C261.394 372.779 261.288 372.938 261.154 373.072C261.02 373.206 260.861 373.312 260.686 373.384C260.511 373.456 260.323 373.492 260.133 373.491C259.763 373.491 259.406 373.347 259.139 373.09C258.873 372.832 258.716 372.481 258.703 372.111L255.243 246.881L261.083 246.721Z" fill="white" stroke="#263238" stroke-linecap="round" stroke-linejoin="round"/>
<path d="M133.973 251.931L133.683 363.171C133.652 363.448 133.729 363.727 133.898 363.949C134.068 364.171 134.317 364.318 134.593 364.361C134.863 364.323 135.108 364.185 135.279 363.973C135.45 363.761 135.534 363.492 135.513 363.221L137.683 252.061L133.973 251.931Z" fill="white" stroke="#263238" stroke-linecap="round" stroke-linejoin="round"/>
<path d="M204.383 248.351L204.653 345.431C204.676 345.666 204.608 345.9 204.463 346.086C204.318 346.273 204.107 346.396 203.873 346.431C203.641 346.396 203.43 346.272 203.287 346.086C203.143 345.899 203.077 345.665 203.103 345.431L201.253 248.431L204.383 248.351Z" fill="white" stroke="#263238" stroke-linecap="round" stroke-linejoin="round"/>
<path d="M132.883 248.351L133.153 345.431C133.176 345.666 133.108 345.9 132.963 346.086C132.818 346.273 132.607 346.396 132.373 346.431C132.141 346.396 131.93 346.272 131.787 346.086C131.643 345.899 131.577 345.665 131.603 345.431L129.753 248.431L132.883 248.351Z" fill="white" stroke="#263238" stroke-linecap="round" stroke-linejoin="round"/>
<path d="M202.373 251.931L202.683 363.171C202.715 363.448 202.638 363.727 202.468 363.949C202.298 364.171 202.049 364.318 201.773 364.361C201.505 364.321 201.261 364.182 201.09 363.97C200.92 363.759 200.835 363.492 200.853 363.221L198.683 252.061L202.373 251.931Z" fill="white" stroke="#263238" stroke-linecap="round" stroke-linejoin="round"/>
<path d="M167.683 259.72C192.26 259.72 212.183 255.167 212.183 249.55C212.183 243.934 192.26 239.38 167.683 239.38C143.107 239.38 123.183 243.934 123.183 249.55C123.183 255.167 143.107 259.72 167.683 259.72Z" fill="white" stroke="#263238" stroke-linecap="round" stroke-linejoin="round"/>
<path d="M146.013 335.881C146.013 335.881 143.683 339.221 145.353 340.881C147.023 342.541 148.683 341.881 148.513 343.551C148.343 345.221 145.683 350.881 143.353 356.881C141.023 362.881 145.853 368.881 150.353 367.221C154.853 365.561 154.353 348.881 155.013 345.881C155.673 342.881 156.183 342.381 156.013 339.551C155.843 336.721 155.683 333.721 153.513 333.381C151.343 333.041 147.013 334.721 146.013 335.881Z" fill="white" stroke="#263238" stroke-linecap="round" stroke-linejoin="round"/>
<path d="M153.163 362.621C150.163 361.481 145.563 361.711 142.973 361.971C143.843 365.741 147.173 368.391 150.353 367.221C151.683 366.731 152.553 364.951 153.163 362.621Z" fill="#FEA800" stroke="#263238" stroke-linecap="round" stroke-linejoin="round"/>
<path d="M140.853 328.551C140.853 328.551 145.683 336.721 147.013 338.881C148.343 341.041 152.853 340.381 153.353 337.381C153.853 334.381 151.513 326.051 151.513 326.051L141.513 328.551H140.853Z" fill="white" stroke="#263238" stroke-linecap="round" stroke-linejoin="round"/>
<path d="M129.353 315.551C129.353 315.551 128.013 317.721 128.683 319.221C129.353 320.721 131.183 325.051 132.353 327.221C133.523 329.391 138.853 330.721 145.013 329.721C151.173 328.721 154.683 325.881 154.853 323.381C155.023 320.881 153.853 317.551 153.013 313.551C152.173 309.551 150.013 309.721 147.013 309.721C144.013 309.721 131.853 313.221 129.353 315.551Z" fill="#FEA800" stroke="#263238" stroke-linecap="round" stroke-linejoin="round"/>
<path d="M147.353 266.55C147.443 262.45 149.813 260.43 149.993 257.62C150.275 253.905 149.968 250.169 149.083 246.55L144.523 240.32C131.403 240.49 122.003 240.71 121.853 240.76C121.353 240.92 121.013 243.76 120.683 246.09C120.683 246.09 115.113 246.8 116.113 262.3C116.253 264.46 121.873 289.45 122.283 292.3C124.783 309.71 130.353 318.43 130.353 318.43C130.353 318.43 130.853 320.6 137.353 320.1C143.853 319.6 150.353 315.27 150.353 315.27C150.353 315.27 147.013 281.38 147.353 266.55Z" fill="#263238" stroke="#263238" stroke-linecap="round" stroke-linejoin="round"/>
<path d="M119.783 243.551C119.783 243.551 112.893 244.551 108.673 249.371C104.453 254.191 108.033 257.371 116.233 256.511C124.433 255.651 133.893 247.261 134.293 246.811C134.693 246.361 125.743 240.661 119.783 243.551Z" fill="white" stroke="#263238" stroke-linecap="round" stroke-linejoin="round"/>
<path d="M132.013 246.551C136.403 246.777 140.759 247.447 145.013 248.551C150.683 250.221 160.683 253.551 163.013 253.551C165.343 253.551 164.683 244.881 164.683 243.221C164.683 241.561 134.683 240.551 131.013 240.551C127.343 240.551 132.013 246.551 132.013 246.551Z" fill="white" stroke="#263238" stroke-linecap="round" stroke-linejoin="round"/>
<path d="M164.683 243.221C164.683 243.221 162.013 244.551 161.013 249.551C160.013 254.551 158.683 257.221 160.683 258.551C162.683 259.881 171.353 260.881 172.683 259.551C174.013 258.221 177.683 251.551 178.353 247.221C179.023 242.891 164.683 243.221 164.683 243.221Z" fill="#FEA800" stroke="#263238" stroke-linecap="round" stroke-linejoin="round"/>
<path d="M176.013 244.88C174.463 246.659 173.226 248.688 172.353 250.88C171.646 253.175 171.089 255.514 170.683 257.88C173.874 258.755 176.993 259.872 180.013 261.22C185.353 263.55 194.353 265.22 203.013 267.22C211.673 269.22 214.013 271.22 217.013 271.22C220.013 271.22 223.683 268.88 228.353 263.22C233.023 257.56 229.013 245.55 224.353 241.88C219.693 238.21 194.683 235.22 191.353 236.22C188.023 237.22 176.013 244.88 176.013 244.88Z" fill="#263238" stroke="#263238" stroke-linecap="round" stroke-linejoin="round"/>
<path d="M113.473 256.601C112.815 253.609 111.481 250.808 109.573 248.411C109.263 248.701 108.963 249.001 108.673 249.331C104.963 253.551 107.283 256.551 113.473 256.601Z" fill="#FEA800" stroke="#263238" stroke-linecap="round" stroke-linejoin="round"/>
<path d="M146.843 259.241C146.843 259.241 143.403 296.051 136.383 301.781" stroke="white" stroke-width="0.5" stroke-linecap="round" stroke-linejoin="round"/>
<path d="M144.413 294.181C144.413 294.181 141.683 306.181 134.523 310.951" stroke="white" stroke-width="0.5" stroke-linecap="round" stroke-linejoin="round"/>
<path d="M188.683 252.551C188.683 252.551 178.013 253.221 185.013 257.881C192.013 262.541 204.683 265.551 204.683 265.551" stroke="white" stroke-width="0.5" stroke-linecap="round" stroke-linejoin="round"/>
<path d="M266.143 239.941L262.543 236.701L254.223 218.701C253.829 217.882 253.209 217.192 252.437 216.712C251.665 216.232 250.772 215.982 249.863 215.991H88.2633C87.3526 215.98 86.4578 216.229 85.6838 216.709C84.9098 217.189 84.2887 217.88 83.8933 218.701L73.5233 241.121L71.8133 240.491V245.621L71.8933 245.561C71.9952 246.245 72.3425 246.869 72.8706 247.316C73.3987 247.763 74.0714 248.003 74.7633 247.991H263.353C264.082 248.007 264.789 247.74 265.324 247.246C265.86 246.751 266.182 246.068 266.223 245.341L266.143 239.941Z" fill="#263238" stroke="#263238" stroke-linecap="round" stroke-linejoin="round"/>
<path d="M263.353 243.3H74.7633C74.2963 243.319 73.8322 243.218 73.4145 243.009C72.9969 242.799 72.6394 242.486 72.3755 242.101C72.1117 241.715 71.9501 241.268 71.906 240.803C71.8619 240.338 71.9366 239.869 72.1233 239.44L83.8933 214.01C84.2867 213.188 84.9074 212.496 85.6818 212.016C86.4563 211.536 87.3521 211.287 88.2633 211.3H249.863C250.773 211.289 251.666 211.539 252.439 212.019C253.211 212.499 253.831 213.19 254.223 214.01L265.993 239.44C266.18 239.869 266.255 240.338 266.211 240.803C266.166 241.268 266.005 241.715 265.741 242.101C265.477 242.486 265.12 242.799 264.702 243.009C264.284 243.218 263.82 243.319 263.353 243.3Z" fill="white" stroke="#263238" stroke-linecap="round" stroke-linejoin="round"/>
<g style="mix-blend-mode:multiply" opacity="0.5">
<path d="M84.3133 226.22C84.3133 226.22 80.0433 229.15 82.7133 230.22C85.3833 231.29 116.073 230.49 119.813 229.42C123.553 228.35 127.813 218.48 127.813 216.88C127.813 215.28 122.433 214.13 120.453 214.04C118.473 213.95 92.3133 215.54 92.3133 215.54L84.3133 226.22Z" fill="#FEA800"/>
</g>
<g style="mix-blend-mode:multiply" opacity="0.5">
<path d="M236.973 231.29C243.015 231.29 247.913 229.258 247.913 226.75C247.913 224.243 243.015 222.21 236.973 222.21C230.931 222.21 226.033 224.243 226.033 226.75C226.033 229.258 230.931 231.29 236.973 231.29Z" fill="#FEA800"/>
</g>
<g style="mix-blend-mode:multiply" opacity="0.5">
<path d="M167.323 236.901C188.989 236.901 206.553 233.614 206.553 229.561C206.553 225.507 188.989 222.221 167.323 222.221C145.657 222.221 128.093 225.507 128.093 229.561C128.093 233.614 145.657 236.901 167.323 236.901Z" fill="#FEA800"/>
</g>
<path d="M228.973 208.891C228.973 208.891 228.253 206.021 225.863 206.981C223.473 207.941 223.713 214.281 224.183 217.871C224.653 221.461 227.893 219.781 227.893 219.781V217.631C227.893 217.631 226.703 218.581 226.103 217.271C225.503 215.961 225.623 209.371 226.223 209.491C226.823 209.611 228.013 211.641 228.013 211.641C228.013 211.641 228.373 211.411 228.973 208.891Z" fill="#FEA800" stroke="#263238" stroke-linecap="round" stroke-linejoin="round"/>
<path d="M227.253 209.371V225.091C227.253 226.941 231.503 228.441 236.753 228.441C242.003 228.441 246.243 226.941 246.243 225.091V209.371H227.253Z" fill="#FEA800" stroke="#263238" stroke-linecap="round" stroke-linejoin="round"/>
<path d="M246.243 209.37C246.243 210.97 241.993 212.26 236.753 212.26C231.513 212.26 227.253 210.97 227.253 209.37C227.253 207.77 231.503 206.48 236.753 206.48C242.003 206.48 246.243 207.78 246.243 209.37Z" fill="white" stroke="#263238" stroke-linecap="round" stroke-linejoin="round"/>
<path d="M245.003 209.37C245.003 210.76 241.303 211.88 236.753 211.88C232.203 211.88 228.493 210.76 228.493 209.37C228.493 207.98 232.193 206.86 236.753 206.86C241.313 206.86 245.003 207.98 245.003 209.37Z" fill="white" stroke="#263238" stroke-linecap="round" stroke-linejoin="round"/>
<path d="M230.383 210.97C234.54 212.183 238.957 212.183 243.113 210.97C238.957 209.757 234.54 209.757 230.383 210.97Z" fill="#263238" stroke="#263238" stroke-linecap="round" stroke-linejoin="round"/>
<path d="M83.1333 216.55L83.2533 221.93L119.503 222.29V216.07L83.1333 216.55Z" fill="white" stroke="#263238" stroke-linecap="round" stroke-linejoin="round"/>
<path d="M119.503 222.291L124.773 210.931V207.581L119.263 217.151L119.503 222.291Z" fill="white" stroke="#263238" stroke-linecap="round" stroke-linejoin="round"/>
<path d="M83.1333 221.45L83.2533 226.84L119.503 227.2V220.98L83.1333 221.45Z" fill="white" stroke="#263238" stroke-linecap="round" stroke-linejoin="round"/>
<path d="M119.503 227.2L124.773 215.83V212.48L119.263 222.05L119.503 227.2Z" fill="white" stroke="#263238" stroke-linecap="round" stroke-linejoin="round"/>
<path d="M97.1333 202.911C97.1333 202.911 97.9733 201.241 96.7733 200.521C95.5733 199.801 94.2633 201.521 93.5433 202.071C92.8233 202.621 77.7533 212.601 77.2733 214.161C76.7933 215.721 77.2733 219.161 80.5033 219.541C83.7333 219.921 86.6033 217.751 88.0433 217.391C89.4833 217.031 90.0433 216.911 90.0433 216.911L99.9733 203.511L97.1333 202.911Z" fill="white" stroke="#263238" stroke-linecap="round" stroke-linejoin="round"/>
<path d="M80.5033 219.55C83.7333 219.91 86.6033 217.76 88.0433 217.4C89.4833 217.04 90.0433 216.92 90.0433 216.92L90.4033 216.43L81.0733 214.53C80.566 214.053 79.9139 213.758 79.2201 213.692C78.5264 213.627 77.8307 213.795 77.2433 214.17C76.7933 215.71 77.2733 219.18 80.5033 219.55Z" fill="white" stroke="#263238" stroke-linecap="round" stroke-linejoin="round"/>
<path d="M81.1033 214.55H109.103C117.843 214.55 120.473 214.07 120.473 214.07L125.853 202.94C125.853 202.94 108.853 204.02 103.603 203.66C101.434 203.598 99.2733 203.357 97.1433 202.94L81.1033 214.55Z" fill="white" stroke="#263238" stroke-linecap="round" stroke-linejoin="round"/>
<path d="M81.1033 214.551L81.5833 216.701C81.5833 216.701 104.313 216.821 110.293 216.821C116.273 216.821 120.823 217.061 120.823 217.061L120.463 214.061L81.1033 214.551Z" fill="white" stroke="#263238" stroke-linecap="round" stroke-linejoin="round"/>
<path d="M120.823 217.031L125.843 205.541V202.911L120.463 214.041L120.823 217.031Z" fill="white" stroke="#263238" stroke-linecap="round" stroke-linejoin="round"/>
<path d="M201.583 230.47H133.033C132.881 230.472 132.731 230.443 132.59 230.386C132.449 230.329 132.321 230.244 132.214 230.137C132.106 230.03 132.02 229.903 131.962 229.763C131.903 229.623 131.873 229.472 131.873 229.32C131.873 229.169 131.903 229.018 131.962 228.878C132.02 228.738 132.106 228.611 132.214 228.504C132.321 228.397 132.449 228.312 132.59 228.255C132.731 228.198 132.881 228.169 133.033 228.17H201.583C201.735 228.169 201.885 228.198 202.025 228.255C202.165 228.313 202.292 228.397 202.399 228.504C202.506 228.611 202.591 228.739 202.648 228.879C202.706 229.019 202.735 229.169 202.733 229.32C202.735 229.472 202.706 229.622 202.648 229.762C202.591 229.902 202.506 230.03 202.399 230.137C202.292 230.244 202.165 230.328 202.025 230.386C201.885 230.443 201.735 230.472 201.583 230.47Z" fill="white" stroke="#263238" stroke-linecap="round" stroke-linejoin="round"/>
<path d="M202.163 228.151H132.443C132.188 228.151 131.942 228.054 131.757 227.879C131.571 227.704 131.459 227.465 131.443 227.211L127.653 181.661C127.636 181.52 127.649 181.376 127.692 181.241C127.735 181.105 127.805 180.98 127.9 180.875C127.995 180.769 128.111 180.684 128.241 180.626C128.371 180.569 128.511 180.54 128.653 180.541H205.963C206.105 180.54 206.246 180.569 206.376 180.626C206.506 180.684 206.622 180.769 206.716 180.875C206.811 180.98 206.882 181.105 206.925 181.241C206.967 181.376 206.98 181.52 206.963 181.661L203.173 227.211C203.158 227.467 203.044 227.708 202.856 227.883C202.668 228.058 202.42 228.154 202.163 228.151Z" fill="white" stroke="#263238" stroke-linecap="round" stroke-linejoin="round"/>
<path d="M173.883 205.131C173.883 207.851 170.933 210.051 167.303 210.051C163.673 210.051 160.713 207.851 160.713 205.131C160.713 202.411 163.663 200.221 167.303 200.221C170.943 200.221 173.883 202.421 173.883 205.131Z" fill="white" stroke="#263238" stroke-linecap="round" stroke-linejoin="round"/>
<path d="M242.013 169.551C243.083 168.716 243.834 167.541 244.143 166.221C244.368 165.23 244.344 164.2 244.073 163.221" stroke="#263238" stroke-linecap="round" stroke-linejoin="round"/>
<path d="M234.033 205.21C234.033 205.21 240.683 201.21 238.513 196.64C236.343 192.07 229.003 189.04 229.003 181.92C229.003 175.78 235.533 173.51 239.793 171.05" stroke="#263238" stroke-linecap="round" stroke-linejoin="round"/>
<path d="M240.173 205.08C240.173 205.08 243.883 202.61 243.883 198.69C243.883 196.06 241.073 194.34 237.363 190.11" stroke="#263238" stroke-linecap="round" stroke-linejoin="round"/>
<path d="M235.313 187.55C235.313 187.55 232.883 185.64 234.673 182.05" stroke="#263238" stroke-linecap="round" stroke-linejoin="round"/>
<path d="M179.013 82.8005C180.203 82.5505 182.753 81.5705 184.473 77.5805C184.5 77.5202 184.514 77.4551 184.515 77.3892C184.517 77.3233 184.505 77.2578 184.481 77.1964C184.456 77.1351 184.42 77.0791 184.375 77.0318C184.329 76.9844 184.274 76.9466 184.213 76.9205C184.091 76.8697 183.954 76.8685 183.831 76.917C183.708 76.9655 183.608 77.06 183.553 77.1805C181.973 80.8405 179.713 81.6505 178.773 81.8305C180.455 79.7948 181.384 77.2413 181.403 74.6005C181.403 67.6605 174.973 62.0405 167.043 62.0405C159.113 62.0405 152.683 67.6605 152.683 74.6005C152.689 77.1348 153.533 79.5961 155.083 81.6005C153.573 81.5205 151.023 82.1605 147.793 85.9305C147.701 86.0257 147.649 86.153 147.649 86.2855C147.649 86.4181 147.701 86.5454 147.793 86.6405C147.886 86.7176 148.003 86.76 148.123 86.7605C148.196 86.7606 148.268 86.7445 148.334 86.7134C148.399 86.6822 148.457 86.6369 148.503 86.5805C152.633 81.7705 155.363 82.5805 155.913 82.8005C154.98 83.3141 154.104 83.9277 153.303 84.6305C148.693 88.7805 145.883 96.6305 146.243 103.171C146.648 107.508 148.22 111.655 150.793 115.171C154.142 112.774 156.918 109.667 158.923 106.071C160.418 103.429 161.753 100.701 162.923 97.9005C162.923 100.831 163.303 104.371 164.843 106.901C165.954 108.899 167.582 110.562 169.555 111.716C171.529 112.87 173.777 113.473 176.063 113.461C176.853 113.472 177.641 113.395 178.413 113.231C178.481 113.214 178.545 113.183 178.6 113.139C178.655 113.096 178.7 113.042 178.733 112.981C182.593 113.801 186.433 113.731 187.023 112.911C187.973 111.601 189.323 107.511 189.773 102.511C190.593 94.0305 185.253 86.6705 179.013 82.8005ZM165.773 106.291C163.833 103.121 163.893 97.9505 164.123 94.9805L164.253 94.6405C164.346 97.6952 165.124 100.69 166.532 103.403C167.939 106.115 169.939 108.476 172.383 110.311C173.734 111.244 175.231 111.944 176.813 112.381C174.363 112.551 169.323 112.081 165.773 106.291Z" fill="#263238"/>
<path d="M165.943 90.5503C165.943 90.5503 165.123 96.6103 172.823 102.55C180.523 108.49 187.823 106.15 187.823 106.15" stroke="white" stroke-width="0.5" stroke-linecap="round" stroke-linejoin="round"/>
<path d="M167.073 88.5503C167.073 88.5503 175.183 100.36 186.383 97.2803" stroke="white" stroke-width="0.5" stroke-linecap="round" stroke-linejoin="round"/>
<path d="M163.063 84.6204C161.784 83.971 160.352 83.6854 158.921 83.7948C157.491 83.9041 156.119 84.4042 154.953 85.2404C150.643 88.1104 148.483 94.8904 148.483 94.8904" stroke="white" stroke-width="0.5" stroke-linecap="round" stroke-linejoin="round"/>
<path d="M163.273 87.9105C163.273 87.9105 159.783 86.9805 157.623 89.1405C156.571 90.0945 155.67 91.204 154.953 92.4305" stroke="white" stroke-width="0.5" stroke-linecap="round" stroke-linejoin="round"/>
<defs>
<clipPath id="clip0_52_899">
<rect width="48" height="18" fill="white" transform="translate(210.683 29.5498)"/>
</clipPath>
</defs>
</svg>
