<svg width="150" height="151" viewBox="0 0 150 151" fill="none" xmlns="http://www.w3.org/2000/svg">
<g clip-path="url(#clip0_6952_13712)">
<path d="M147.923 36.373H68.9203C68.3697 36.3724 67.8419 36.1534 67.4527 35.7641C67.0634 35.3749 66.8444 34.847 66.8438 34.2965V2.24061C66.8444 1.69007 67.0634 1.16227 67.4527 0.772975C67.8419 0.383686 68.3697 0.164701 68.9203 0.164062H147.923C148.474 0.164692 149.001 0.383674 149.391 0.772965C149.78 1.16226 149.999 1.69007 150 2.24061V34.2965C149.999 34.847 149.78 35.3749 149.391 35.7642C149.001 36.1534 148.474 36.3724 147.923 36.373Z" fill="#E4E4E4"/>
<path d="M140.403 51.7496H76.445C75.7841 51.7496 75.1503 51.4871 74.683 51.0198C74.2156 50.5525 73.9531 49.9187 73.9531 49.2578C73.9531 48.5969 74.2156 47.9631 74.683 47.4958C75.1503 47.0285 75.7841 46.7659 76.445 46.7659H140.403C143.616 46.7211 143.648 51.7949 140.403 51.7496Z" fill="#E4E4E4"/>
<path d="M120.254 94.3043H96.5934C95.9325 94.3043 95.2987 94.0418 94.8314 93.5745C94.3641 93.1072 94.1016 92.4733 94.1016 91.8125C94.1016 91.1516 94.3641 90.5178 94.8314 90.0505C95.2987 89.5831 95.9325 89.3206 96.5934 89.3206H120.254C123.468 89.2757 123.5 94.3496 120.254 94.3043Z" fill="#3F3D56"/>
<path d="M140.403 63.1715H76.445C75.7841 63.1715 75.1503 62.909 74.683 62.4417C74.2156 61.9744 73.9531 61.3405 73.9531 60.6797C73.9531 60.0188 74.2156 59.385 74.683 58.9176C75.1503 58.4503 75.7841 58.1878 76.445 58.1878H140.403C143.616 58.1429 143.648 63.2168 140.403 63.1715Z" fill="#E4E4E4"/>
<path d="M140.402 74.5934H76.4439C76.1164 74.5938 75.7921 74.5296 75.4895 74.4045C75.1868 74.2795 74.9118 74.096 74.6801 73.8645C74.4484 73.6331 74.2646 73.3583 74.1392 73.0558C74.0138 72.7533 73.9492 72.429 73.9492 72.1015C73.9492 71.7741 74.0138 71.4498 74.1392 71.1473C74.2646 70.8448 74.4484 70.5699 74.6801 70.3385C74.9118 70.1071 75.1868 69.9236 75.4895 69.7985C75.7921 69.6735 76.1164 69.6093 76.4439 69.6097H140.402C143.615 69.5648 143.647 74.6386 140.402 74.5934Z" fill="#E4E4E4"/>
<path d="M59.7928 103.543C59.2439 103.544 58.7177 103.762 58.3297 104.15C57.9416 104.538 57.7233 105.064 57.7227 105.613V148.055C57.7233 148.604 57.9416 149.13 58.3297 149.518C58.7177 149.906 59.2439 150.125 59.7928 150.125H64.8851C65.4339 150.125 65.9601 149.906 66.3482 149.518C66.7363 149.13 66.9545 148.604 66.9552 148.055V105.613C66.9545 105.064 66.7363 104.538 66.3482 104.15C65.9601 103.762 65.4339 103.544 64.8851 103.543H59.7928Z" fill="#FEA800"/>
<path d="M49.7225 103.543C49.1736 103.544 48.6474 103.762 48.2593 104.15C47.8713 104.538 47.653 105.064 47.6523 105.613V148.055C47.653 148.604 47.8713 149.13 48.2593 149.518C48.6474 149.906 49.1736 150.125 49.7225 150.125H54.8148C55.3637 150.125 55.8899 149.906 56.2779 149.518C56.666 149.13 56.8843 148.604 56.8849 148.055V105.613C56.8843 105.064 56.666 104.538 56.2779 104.15C55.8899 103.762 55.3637 103.544 54.8148 103.543H49.7225Z" fill="#FEA800"/>
<path d="M57.1506 59.0785C66.8686 59.0785 74.7465 51.2006 74.7465 41.4826C74.7465 31.7647 66.8686 23.8867 57.1506 23.8867C47.4327 23.8867 39.5547 31.7647 39.5547 41.4826C39.5547 51.2006 47.4327 59.0785 57.1506 59.0785Z" fill="#FEA800"/>
<path d="M69.777 48.8677C70.9176 48.8361 72.3372 48.7965 73.4307 47.9976C73.7564 47.75 74.024 47.4341 74.2147 47.0722C74.4054 46.7103 74.5147 46.311 74.5348 45.9024C74.5546 45.612 74.507 45.321 74.3956 45.0521C74.2843 44.7831 74.1123 44.5436 73.893 44.3522C73.3218 43.8695 72.4877 43.7563 71.5889 44.0205L72.5201 37.2148L71.8365 37.1211L70.7417 45.1221L71.3126 44.8601C71.9745 44.5565 72.883 44.402 73.4476 44.8791C73.5862 45.0039 73.6942 45.1589 73.7632 45.3322C73.8322 45.5054 73.8602 45.6923 73.8453 45.8781C73.8285 46.1823 73.7465 46.4792 73.6047 46.7488C73.463 47.0183 73.2648 47.2542 73.0237 47.4403C72.1727 48.062 71.0411 48.1421 69.7578 48.178L69.777 48.8677Z" fill="#2F2E41"/>
<path d="M79.6187 37.8008H75.9023V38.4908H79.6187V37.8008Z" fill="#2F2E41"/>
<path d="M67.8883 37.8008H64.1719V38.4908H67.8883V37.8008Z" fill="#2F2E41"/>
<path d="M72.5381 118.804H51.1985C49.7456 118.804 48.3096 118.493 46.987 117.891C45.6644 117.29 44.486 116.413 43.5309 115.318C42.5758 114.223 41.8663 112.936 41.45 111.544C41.0338 110.152 40.9204 108.687 41.1176 107.248L46.2149 70.0374C46.2898 69.5038 46.5546 69.0151 46.9606 68.6609C47.3667 68.3067 47.8868 68.1108 48.4256 68.109H53.0225C53.0166 68.0457 53.0138 67.9848 53.0138 67.9251V66.2C53.0145 65.6085 53.2498 65.0413 53.6681 64.623C54.0864 64.2047 54.6535 63.9694 55.2451 63.9688H59.3854C59.9769 63.9694 60.5441 64.2047 60.9624 64.623C61.3807 65.0413 61.616 65.6085 61.6167 66.2V67.9251C61.6167 67.9848 61.6138 68.0457 61.608 68.109H66.2049C66.7437 68.1108 67.2638 68.3067 67.6699 68.6609C68.0759 69.0151 68.3407 69.5038 68.4156 70.0374L74.7487 116.27C74.7919 116.586 74.7671 116.907 74.6758 117.212C74.5845 117.517 74.4289 117.799 74.2195 118.039C74.01 118.28 73.7516 118.472 73.4616 118.604C73.1716 118.736 72.8567 118.804 72.5381 118.804Z" fill="#2F2E41"/>
<path d="M56.2679 59.6269L44.0973 54.9029C42.1071 54.1305 40.1058 53.3815 38.1262 52.5825C37.2782 52.287 36.4971 51.8266 35.8279 51.2279C35.2452 50.6111 34.8481 49.8426 34.682 49.0105C34.2599 47.2263 34.3362 45.2756 34.3663 43.4548C34.3897 41.463 34.5536 39.4753 34.8568 37.5065C35.442 33.828 36.5858 30.217 38.5314 27.0247C41.9445 21.4245 47.8252 17.2111 54.5895 17.5474C57.7211 17.7031 60.8708 18.8268 63.1975 20.9679C63.4402 21.258 63.7125 21.5219 64.01 21.7554C64.2168 21.833 64.4419 21.8481 64.6572 21.7988C64.9411 21.7806 65.2253 21.7666 65.5097 21.757C66.4965 21.7154 67.4851 21.7569 68.4649 21.881C70.2276 22.1225 71.9767 22.7324 73.3402 23.9053C74.5029 24.9055 75.449 26.3176 75.5464 27.8868C75.5934 28.6071 75.4743 29.3287 75.1982 29.9957C74.9222 30.6627 74.4966 31.2574 73.9544 31.7339C72.5023 32.9577 70.4306 32.5275 68.6889 32.4353L62.3082 32.0972L59.0754 31.9259C58.4097 31.8907 58.4116 32.9258 59.0754 32.961L67.668 33.4162C69.0489 33.4894 70.472 33.6687 71.8539 33.5859C72.9158 33.5378 73.9297 33.1299 74.729 32.4292C75.459 31.7586 76.0028 30.9103 76.3074 29.9669C76.6119 29.0236 76.6668 28.0174 76.4668 27.0466C76.0238 24.929 74.4478 23.1773 72.6003 22.1352C70.0864 20.7172 67.0841 20.5814 64.2713 20.791L64.6372 20.9426C61.4554 17.5275 56.5815 16.0856 52.006 16.5902C47.175 17.123 42.8782 19.8182 39.791 23.5035C36.3489 27.6125 34.4732 32.7361 33.744 38.0046C33.3645 40.8491 33.2396 43.7218 33.3707 46.5885C33.4218 47.84 33.5264 49.129 34.0097 50.2978C34.4983 51.4556 35.3816 52.4026 36.5025 52.9704C37.7539 53.6395 39.1393 54.0834 40.4592 54.5957L44.9431 56.3361L53.7508 59.7548L55.9928 60.625C56.6141 60.8661 56.8833 59.8657 56.2679 59.6269Z" fill="#2F2E41"/>
<path d="M37.129 24.4534C36.0713 24.4534 35.0374 24.1397 34.158 23.5521C33.2785 22.9645 32.5931 22.1293 32.1883 21.1521C31.7836 20.1749 31.6777 19.0997 31.884 18.0623C32.0904 17.0249 32.5997 16.072 33.3476 15.3241C34.0955 14.5762 35.0484 14.0669 36.0857 13.8606C37.1231 13.6542 38.1984 13.7601 39.1755 14.1649C40.1527 14.5697 40.9879 15.2551 41.5756 16.1345C42.1632 17.014 42.4768 18.0479 42.4768 19.1056C42.4752 20.5234 41.9113 21.8827 40.9087 22.8853C39.9062 23.8878 38.5469 24.4518 37.129 24.4534ZM37.129 14.7929C36.2761 14.7929 35.4422 15.0458 34.733 15.5197C34.0238 15.9936 33.471 16.6671 33.1446 17.4552C32.8182 18.2432 32.7328 19.1104 32.8992 19.947C33.0656 20.7835 33.4763 21.552 34.0795 22.1552C34.6826 22.7583 35.4511 23.169 36.2877 23.3354C37.1243 23.5019 37.9914 23.4165 38.7794 23.09C39.5675 22.7636 40.241 22.2108 40.7149 21.5016C41.1888 20.7924 41.4418 19.9586 41.4418 19.1056C41.4405 17.9622 40.9857 16.866 40.1772 16.0575C39.3687 15.249 38.2724 14.7942 37.129 14.7929Z" fill="#2F2E41"/>
<path d="M98.5156 88.5712C98.6754 88.0462 98.6206 87.4793 98.363 86.9947C98.1054 86.5101 97.6661 86.1475 97.1415 85.9863L58.9897 74.3191C58.1166 74.052 57.184 74.0499 56.3097 74.3129C55.4354 74.5759 54.6587 75.0923 54.0779 75.7968C53.4971 76.5013 53.1382 77.3621 53.0467 78.2705C52.9552 79.179 53.1351 80.0941 53.5637 80.9003C54.0531 81.8323 54.8504 82.5661 55.8199 82.9765C55.9733 83.0419 56.1301 83.0991 56.2896 83.1479L94.4414 94.8152C94.7013 94.8947 94.9744 94.9222 95.2451 94.8962C95.5157 94.8702 95.7785 94.7911 96.0186 94.6635C96.2586 94.5359 96.4712 94.3622 96.6441 94.1525C96.817 93.9427 96.9469 93.7009 97.0264 93.4409L98.5156 88.5712Z" fill="#FEA800"/>
<path d="M66.678 90.0629C66.386 89.9846 66.1047 89.8711 65.8401 89.7249L55.22 86.2898C50.1639 84.1817 51.8465 78.5992 53.2286 73.2663L53.2935 73.0161L64.1314 71.1445L72.2945 74.7933C73.1628 75.1823 73.8499 75.8882 74.2153 76.7667C74.5808 77.6452 74.5972 78.6301 74.261 79.5202L71.133 87.7805C70.8054 88.6455 70.1682 89.3579 69.345 89.7796C68.5218 90.2014 67.5714 90.3023 66.678 90.0629Z" fill="#2F2E41"/>
<path d="M119.113 150.158H0.383845C0.282043 150.158 0.184406 150.118 0.112421 150.046C0.0404352 149.974 0 149.876 0 149.774C0 149.673 0.0404352 149.575 0.112421 149.503C0.184406 149.431 0.282043 149.391 0.383845 149.391H119.113C119.215 149.391 119.313 149.431 119.385 149.503C119.457 149.575 119.497 149.673 119.497 149.774C119.497 149.876 119.457 149.974 119.385 150.046C119.313 150.118 119.215 150.158 119.113 150.158Z" fill="#3F3D56"/>
</g>
<defs>
<clipPath id="clip0_6952_13712">
<rect width="150" height="149.994" fill="white" transform="translate(0 0.164062)"/>
</clipPath>
</defs>
</svg>
