<svg width="150" height="110" viewBox="0 0 150 110" fill="none" xmlns="http://www.w3.org/2000/svg">
<g clip-path="url(#clip0_6952_13735)">
<path d="M95.5893 82.3047V108.514H29.9243C22.4426 108.514 16.3555 102.635 16.3555 95.4095C16.3555 88.1837 22.4426 82.3047 29.9243 82.3047H95.5893Z" fill="#F2F2F2"/>
<path d="M97.1995 108.316C97.1994 108.583 97.0931 108.84 96.9041 109.029C96.7151 109.218 96.4587 109.324 96.1914 109.324H28.7519C25.0891 109.324 21.5764 107.869 18.9864 105.279C16.3964 102.689 14.9414 99.1764 14.9414 95.5136C14.9414 91.8508 16.3964 88.3381 18.9864 85.7481C21.5764 83.1582 25.0891 81.7031 28.7519 81.7031H96.1914C96.4588 81.7031 96.7152 81.8093 96.9042 81.9984C97.0933 82.1874 97.1995 82.4438 97.1995 82.7112C97.1995 82.9785 97.0933 83.2349 96.9042 83.424C96.7152 83.613 96.4588 83.7193 96.1914 83.7193H28.7519C25.6238 83.7193 22.6239 84.9619 20.412 87.1737C18.2001 89.3856 16.9575 92.3856 16.9575 95.5136C16.9575 98.6417 18.2001 101.642 20.412 103.853C22.6239 106.065 25.6238 107.308 28.7519 107.308H96.1914C96.4587 107.308 96.7151 107.414 96.9041 107.603C97.0931 107.792 97.1994 108.049 97.1995 108.316Z" fill="#FEA800"/>
<path d="M95.5864 88.3564H25.0219C24.9685 88.3564 24.9172 88.3351 24.8794 88.2973C24.8416 88.2595 24.8203 88.2082 24.8203 88.1547C24.8203 88.1013 24.8416 88.05 24.8794 88.0122C24.9172 87.9744 24.9685 87.9531 25.0219 87.9531H95.5864C95.6399 87.9531 95.6912 87.9744 95.729 88.0122C95.7668 88.05 95.7881 88.1013 95.7881 88.1547C95.7881 88.2082 95.7668 88.2595 95.729 88.2973C95.6912 88.3351 95.6399 88.3564 95.5864 88.3564Z" fill="#CCCCCC"/>
<path d="M95.5864 93.1923H25.0219C24.9685 93.1923 24.9172 93.171 24.8794 93.1332C24.8416 93.0954 24.8203 93.0441 24.8203 92.9907C24.8203 92.9372 24.8416 92.8859 24.8794 92.8481C24.9172 92.8103 24.9685 92.7891 25.0219 92.7891H95.5864C95.6399 92.7891 95.6912 92.8103 95.729 92.8481C95.7668 92.8859 95.7881 92.9372 95.7881 92.9907C95.7881 93.0441 95.7668 93.0954 95.729 93.1332C95.6912 93.171 95.6399 93.1923 95.5864 93.1923Z" fill="#CCCCCC"/>
<path d="M95.5864 98.0321H25.0219C24.9685 98.0321 24.9172 98.0109 24.8794 97.9731C24.8416 97.9353 24.8203 97.884 24.8203 97.8305C24.8203 97.777 24.8416 97.7258 24.8794 97.688C24.9172 97.6502 24.9685 97.6289 25.0219 97.6289H95.5864C95.6399 97.6289 95.6912 97.6502 95.729 97.688C95.7668 97.7258 95.7881 97.777 95.7881 97.8305C95.7881 97.884 95.7668 97.9353 95.729 97.9731C95.6912 98.0109 95.6399 98.0321 95.5864 98.0321Z" fill="#CCCCCC"/>
<path d="M95.5864 102.872H25.0219C24.9685 102.872 24.9172 102.851 24.8794 102.813C24.8416 102.775 24.8203 102.724 24.8203 102.67C24.8203 102.617 24.8416 102.566 24.8794 102.528C24.9172 102.49 24.9685 102.469 25.0219 102.469H95.5864C95.6399 102.469 95.6912 102.49 95.729 102.528C95.7668 102.566 95.7881 102.617 95.7881 102.67C95.7881 102.724 95.7668 102.775 95.729 102.813C95.6912 102.851 95.6399 102.872 95.5864 102.872Z" fill="#CCCCCC"/>
<path d="M146.339 87.2397L129.894 107.649L78.762 66.449C72.9361 61.7549 71.8848 53.3578 76.4185 47.7312C80.9521 42.1046 89.3806 41.3459 95.2065 46.0401L146.339 87.2397Z" fill="#F2F2F2"/>
<path d="M131.276 108.502C131.108 108.71 130.865 108.843 130.599 108.872C130.333 108.901 130.067 108.822 129.859 108.655L77.3448 66.3418C74.4926 64.0437 72.6702 60.7068 72.2785 57.065C71.8867 53.4232 72.9577 49.775 75.2558 46.9229C77.5539 44.0708 80.8909 42.2484 84.5326 41.8566C88.1744 41.4649 91.8226 42.5358 94.6747 44.8339L147.189 87.1469C147.292 87.2299 147.378 87.3325 147.441 87.4487C147.505 87.5649 147.545 87.6925 147.559 87.8241C147.573 87.9558 147.561 88.089 147.524 88.216C147.487 88.3431 147.425 88.4616 147.341 88.5647C147.258 88.6678 147.156 88.7536 147.04 88.817C146.923 88.8805 146.796 88.9204 146.664 88.9345C146.532 88.9487 146.399 88.9367 146.272 88.8993C146.145 88.862 146.027 88.8 145.924 88.7168L93.4098 46.4038C92.2038 45.4313 90.818 44.706 89.3316 44.2691C87.8452 43.8323 86.2874 43.6926 84.747 43.858C83.2066 44.0234 81.7139 44.4907 80.3541 45.2331C78.9943 45.9755 77.7941 46.9786 76.8221 48.1849C75.8501 49.3913 75.1252 50.7774 74.689 52.2639C74.2528 53.7505 74.1137 55.3084 74.2797 56.8488C74.4457 58.3891 74.9135 59.8816 75.6565 61.2411C76.3995 62.6006 77.403 63.8004 78.6097 64.7719L131.124 107.085C131.332 107.253 131.465 107.496 131.493 107.762C131.522 108.028 131.444 108.294 131.276 108.502Z" fill="#CCCCCC"/>
<path d="M142.542 91.9487L87.5947 47.675C87.574 47.6584 87.5569 47.6379 87.5442 47.6146C87.5315 47.5914 87.5235 47.5659 87.5207 47.5396C87.5179 47.5133 87.5202 47.4866 87.5277 47.4612C87.5352 47.4358 87.5475 47.4121 87.5641 47.3915C87.5808 47.3709 87.6013 47.3538 87.6245 47.3411C87.6477 47.3284 87.6733 47.3204 87.6996 47.3176C87.7259 47.3147 87.7525 47.3171 87.7779 47.3246C87.8033 47.332 87.827 47.3444 87.8476 47.361L142.795 91.6347C142.815 91.6513 142.833 91.6718 142.845 91.695C142.858 91.7183 142.866 91.7438 142.869 91.7701C142.872 91.7965 142.869 91.8231 142.862 91.8486C142.855 91.874 142.842 91.8977 142.826 91.9183C142.809 91.939 142.788 91.9561 142.765 91.9688C142.742 91.9815 142.716 91.9895 142.69 91.9923C142.664 91.9951 142.637 91.9927 142.612 91.9852C142.586 91.9777 142.562 91.9653 142.542 91.9487Z" fill="#CCCCCC"/>
<path d="M139.506 95.718L84.5593 51.4444C84.5177 51.4108 84.4912 51.3621 84.4855 51.309C84.4798 51.2559 84.4955 51.2027 84.529 51.1611C84.5625 51.1194 84.6112 51.0929 84.6643 51.0871C84.7174 51.0814 84.7706 51.0969 84.8123 51.1304L139.759 95.4041C139.78 95.4207 139.797 95.4412 139.81 95.4644C139.823 95.4876 139.831 95.5132 139.834 95.5395C139.836 95.5659 139.834 95.5925 139.827 95.6179C139.819 95.6434 139.807 95.6671 139.79 95.6877C139.774 95.7083 139.753 95.7255 139.73 95.7382C139.707 95.7509 139.681 95.7589 139.655 95.7617C139.628 95.7645 139.602 95.7621 139.576 95.7546C139.551 95.7471 139.527 95.7347 139.506 95.718Z" fill="#CCCCCC"/>
<path d="M136.472 99.4838L81.5243 55.2102C81.4827 55.1766 81.4561 55.1279 81.4504 55.0747C81.4447 55.0216 81.4603 54.9683 81.4938 54.9267C81.5274 54.885 81.5761 54.8584 81.6293 54.8527C81.6824 54.847 81.7357 54.8626 81.7773 54.8962L136.725 99.1698C136.745 99.1865 136.762 99.207 136.775 99.2302C136.788 99.2534 136.796 99.2789 136.798 99.3053C136.801 99.3316 136.799 99.3582 136.791 99.3836C136.784 99.409 136.772 99.4327 136.755 99.4533C136.738 99.4739 136.718 99.4911 136.695 99.5038C136.671 99.5165 136.646 99.5245 136.62 99.5273C136.593 99.5301 136.567 99.5277 136.541 99.5203C136.516 99.5128 136.492 99.5004 136.472 99.4838Z" fill="#CCCCCC"/>
<path d="M133.432 103.253L78.4853 58.9797C78.4647 58.9631 78.4475 58.9426 78.4348 58.9193C78.4221 58.8961 78.4141 58.8706 78.4113 58.8443C78.4085 58.8179 78.4109 58.7913 78.4183 58.7659C78.4258 58.7405 78.4382 58.7168 78.4548 58.6962C78.4714 58.6756 78.4919 58.6585 78.5151 58.6458C78.5384 58.6331 78.5639 58.6251 78.5902 58.6223C78.6165 58.6194 78.6432 58.6218 78.6686 58.6293C78.694 58.6367 78.7177 58.6491 78.7383 58.6657L133.685 102.939C133.706 102.956 133.723 102.976 133.736 103C133.749 103.023 133.757 103.048 133.76 103.075C133.762 103.101 133.76 103.128 133.753 103.153C133.745 103.179 133.733 103.202 133.716 103.223C133.7 103.244 133.679 103.261 133.656 103.273C133.632 103.286 133.607 103.294 133.581 103.297C133.554 103.3 133.528 103.297 133.502 103.29C133.477 103.282 133.453 103.27 133.432 103.253Z" fill="#CCCCCC"/>
<path d="M149.798 109.524H0.201613C0.148142 109.524 0.0968607 109.503 0.0590509 109.465C0.0212411 109.427 0 109.376 0 109.323C0 109.269 0.0212411 109.218 0.0590509 109.18C0.0968607 109.142 0.148142 109.121 0.201613 109.121H149.798C149.852 109.121 149.903 109.142 149.941 109.18C149.979 109.218 150 109.269 150 109.323C150 109.376 149.979 109.427 149.941 109.465C149.903 109.503 149.852 109.524 149.798 109.524Z" fill="#CCCCCC"/>
<path d="M68.1627 79.5507L65.8579 79.5505L64.7617 70.6602L68.1635 70.6606L68.1627 79.5507Z" fill="#FFB8B8"/>
<path d="M64.2089 78.8906H68.6541V81.6894H61.4102C61.4102 81.3219 61.4825 80.9579 61.6232 80.6184C61.7638 80.2788 61.97 79.9703 62.2299 79.7104C62.4898 79.4505 62.7983 79.2443 63.1379 79.1037C63.4774 78.963 63.8414 78.8906 64.2089 78.8906Z" fill="#2F2E41"/>
<path d="M44.6158 79.5507L42.311 79.5505L41.2148 70.6602L44.6167 70.6606L44.6158 79.5507Z" fill="#FFB8B8"/>
<path d="M40.6621 78.8906H45.1072V81.6894H37.8633C37.8633 81.3219 37.9357 80.9579 38.0763 80.6184C38.217 80.2788 38.4231 79.9703 38.683 79.7104C38.9429 79.4505 39.2514 79.2443 39.591 79.1037C39.9306 78.963 40.2945 78.8906 40.6621 78.8906Z" fill="#2F2E41"/>
<path d="M52.3125 13.6077V12.5997C52.3125 10.8752 52.9975 9.22142 54.2169 8.00205C55.4363 6.78269 57.0901 6.09766 58.8145 6.09766C60.539 6.09766 62.1928 6.78269 63.4121 8.00205C64.6315 9.22142 65.3165 10.8752 65.3165 12.5997V13.6077C65.3165 14.851 64.8227 16.0432 63.9436 16.9223C63.0645 17.8014 61.8722 18.2952 60.629 18.2952H57C56.3844 18.2953 55.7749 18.174 55.2062 17.9384C54.6375 17.7029 54.1207 17.3576 53.6854 16.9223C53.2502 16.487 52.9049 15.9703 52.6693 15.4016C52.4337 14.8329 52.3125 14.2233 52.3125 13.6077Z" fill="#2F2E41"/>
<path d="M58.8151 18.6419C61.5499 18.6419 63.7669 16.4249 63.7669 13.6901C63.7669 10.9553 61.5499 8.73828 58.8151 8.73828C56.0803 8.73828 53.8633 10.9553 53.8633 13.6901C53.8633 16.4249 56.0803 18.6419 58.8151 18.6419Z" fill="#FFB8B8"/>
<path d="M31.8782 30.7074C32.0791 30.5176 32.3193 30.3742 32.5816 30.2873C32.844 30.2004 33.1222 30.1721 33.3967 30.2043C33.6712 30.2366 33.9353 30.3286 34.1703 30.4739C34.4054 30.6193 34.6058 30.8144 34.7573 31.0456L39.0022 30.2426L40.1193 32.7032L34.1088 33.7529C33.7036 33.9817 33.2285 34.0539 32.7737 33.9559C32.3188 33.8578 31.9157 33.5963 31.6407 33.2209C31.3658 32.8455 31.2381 32.3823 31.2819 31.919C31.3256 31.4558 31.5378 31.0246 31.8782 30.7074Z" fill="#FFB8B8"/>
<path d="M55.0099 21.8438L48.049 26.4294L36.3034 30.1801C36.1477 30.2301 36.0141 30.3325 35.9255 30.47C35.8368 30.6074 35.7985 30.7713 35.8171 30.9338L36.0733 33.1407C36.0847 33.2384 36.1163 33.3326 36.1662 33.4174C36.2161 33.5021 36.2832 33.5755 36.3631 33.6328C36.4431 33.6901 36.5341 33.73 36.6303 33.7501C36.7266 33.7702 36.826 33.7699 36.9222 33.7493L47.9765 31.3798C48.5115 31.2658 49.0174 31.0431 49.4627 30.7255L57.2829 25.1616C57.5664 24.9588 57.7926 24.6861 57.9395 24.37C58.0864 24.0538 58.149 23.7051 58.1212 23.3576C58.0926 23.0097 57.9738 22.6752 57.7766 22.3871C57.5795 22.099 57.3107 21.8671 56.9968 21.7144C56.6828 21.5617 56.3345 21.4933 55.9862 21.516C55.6378 21.5387 55.3013 21.6517 55.0099 21.8438Z" fill="#CCCCCC"/>
<path d="M65.899 77.0294C65.7221 77.0294 65.549 76.9779 65.4009 76.8812C65.2527 76.7845 65.136 76.6467 65.0648 76.4848L54.4983 50.3757C54.4736 50.3191 54.4322 50.2713 54.3796 50.239C54.327 50.2066 54.2657 50.1911 54.2041 50.1946C54.1424 50.198 54.0833 50.2203 54.0346 50.2584C53.986 50.2965 53.9502 50.3485 53.932 50.4076L45.3114 75.8257C45.275 75.944 45.2148 76.0536 45.1345 76.1477C45.0542 76.2419 44.9555 76.3186 44.8444 76.3732C44.7333 76.4278 44.6123 76.4591 44.4887 76.4652C44.365 76.4713 44.2415 76.452 44.1256 76.4086L41.2348 75.3245C41.0779 75.2662 40.9402 75.1655 40.8371 75.0337C40.734 74.9018 40.6695 74.7439 40.6507 74.5776C39.3502 63.2485 50.6911 34.6523 50.8058 34.3648L50.8375 34.2852L61.1757 36.572L61.1972 36.5954C65.3217 41.095 68.712 69.4749 69.3498 75.1184C69.3735 75.3222 69.3271 75.5281 69.2182 75.702C69.1094 75.876 68.9445 76.0077 68.7507 76.0753L66.1991 76.9778C66.1027 77.0119 66.0012 77.0294 65.899 77.0294Z" fill="#2F2E41"/>
<path d="M56.9909 37.4916C54.4862 37.4916 51.6937 36.9923 50.8341 34.931L50.8143 34.8837L50.841 34.8398C51.5195 33.7266 52.4162 31.8276 51.9343 31.4711C50.9848 30.7691 50.5241 29.6143 50.565 28.0386C50.6538 24.6181 52.9845 21.5812 56.3646 20.4816C57.3081 20.1797 58.2682 19.9325 59.2402 19.7412C59.9488 19.5983 60.6803 19.614 61.3821 19.7873C62.0839 19.9606 62.7386 20.2872 63.2992 20.7436C63.8668 21.203 64.3257 21.7824 64.6428 22.4402C64.9598 23.0981 65.1273 23.8179 65.1331 24.5482C65.1685 28.2036 64.6057 33.2948 61.7234 36.7901C61.5883 36.9523 61.4003 37.0616 61.1925 37.0989C59.8058 37.3497 58.4001 37.4811 56.9909 37.4916Z" fill="#CCCCCC"/>
<path d="M56.0605 37.3562C56.1969 36.8672 56.5206 36.4518 56.9615 36.2002C57.4024 35.9486 57.9248 35.8812 58.4151 36.0126C58.5152 36.0406 58.6128 36.0768 58.707 36.1207L61.9301 33.1875L64.1716 34.6976L59.5624 38.7765C59.3543 39.1517 59.0266 39.4466 58.6316 39.6141C58.2365 39.7817 57.7968 39.8123 57.3823 39.7012C57.1409 39.6351 56.9149 39.5218 56.7175 39.3679C56.5202 39.214 56.3552 39.0224 56.2323 38.8044C56.1094 38.5863 56.031 38.3461 56.0015 38.0975C55.972 37.8489 55.9921 37.597 56.0605 37.3562Z" fill="#FFB8B8"/>
<path d="M61.4162 37.3922C61.207 37.3923 61.0043 37.32 60.8425 37.1875L59.5714 36.1488C59.4655 36.0622 59.3805 35.9528 59.3228 35.8287C59.2651 35.7046 59.2363 35.5691 59.2384 35.4323C59.2405 35.2955 59.2735 35.1609 59.335 35.0386C59.3965 34.9164 59.4848 34.8097 59.5934 34.7264L64.9244 30.6377C64.9876 30.589 65.029 30.5174 65.0397 30.4383C65.0504 30.3592 65.0295 30.2791 64.9816 30.2154L61.6912 25.8654C61.3089 25.3617 61.1171 24.7389 61.1499 24.1074C61.1826 23.4759 61.4378 22.8764 61.8701 22.4149C62.3254 21.9232 62.949 21.6205 63.617 21.5671C64.2851 21.5137 64.9488 21.7133 65.4765 22.1265L65.4973 22.1484L68.9332 27.0683C69.3047 27.3596 69.6039 27.7328 69.8073 28.1589C70.0108 28.5849 70.113 29.0522 70.1059 29.5243C70.0989 29.9964 69.9828 30.4604 69.7668 30.8803C69.5508 31.3001 69.2406 31.6642 68.8606 31.9444L61.9562 37.2143C61.7999 37.3298 61.6106 37.3922 61.4162 37.3922Z" fill="#CCCCCC"/>
<path d="M54.4297 12.2941V9.8372L58.8159 7.92188L62.9982 9.8372V12.2941C62.9982 12.401 62.9558 12.5036 62.8801 12.5792C62.8045 12.6548 62.7019 12.6973 62.595 12.6973H54.8329C54.726 12.6973 54.6234 12.6548 54.5478 12.5792C54.4722 12.5036 54.4297 12.401 54.4297 12.2941Z" fill="#2F2E41"/>
<path d="M58.6114 6.4218C57.9665 4.35758 59.321 1.99189 61.3233 1.17482C63.3256 0.35775 65.7212 0.928908 67.4107 2.27883C69.1003 3.62875 70.1486 5.65069 70.704 7.74076C71.2594 9.83084 71.3649 12.0103 71.4674 14.1705C73.9275 14.6224 75.601 17.5403 74.7488 19.8919C73.8966 22.2435 70.7422 23.4118 68.5638 22.1827C66.3853 20.9536 65.7543 17.6495 67.3266 15.7041C68.0705 14.7836 68.4861 13.6412 68.5075 12.4579C68.5289 11.2745 68.1548 10.1178 67.4446 9.17107C66.7344 8.2243 65.7286 7.54153 64.5866 7.23091C63.4445 6.92029 62.2315 6.99957 61.1395 7.4562C59.9271 7.96324 58.4058 6.64584 58.6114 6.4218Z" fill="#2F2E41"/>
<path d="M30.971 21.1774C28.0256 21.1581 25.117 20.521 22.4331 19.3075C22.2733 19.2363 22.1377 19.1201 22.0428 18.9732C21.9479 18.8263 21.8977 18.655 21.8984 18.4801V11.1377C21.8987 10.8972 21.9944 10.6666 22.1645 10.4965C22.3346 10.3264 22.5652 10.2307 22.8057 10.2305H39.1363C39.3769 10.2307 39.6075 10.3264 39.7776 10.4965C39.9477 10.6666 40.0433 10.8972 40.0436 11.1377V18.4801C40.0443 18.655 39.9942 18.8263 39.8993 18.9732C39.8043 19.1201 39.6687 19.2363 39.509 19.3075C36.8251 20.5211 33.9165 21.1581 30.971 21.1774Z" fill="#FEA800"/>
<path d="M30.9665 15.2298C30.8454 15.2299 30.7256 15.2058 30.6139 15.1589L17.664 9.69525C17.497 9.6248 17.3549 9.50594 17.2561 9.354C17.1572 9.20205 17.1062 9.02399 17.1095 8.84277C17.1128 8.66155 17.1704 8.48548 17.2747 8.33726C17.379 8.18904 17.5253 8.07546 17.6948 8.01118L30.645 3.09833C30.8536 3.01884 31.0842 3.01933 31.2924 3.09971L44.069 8.01254C44.2376 8.07735 44.3829 8.19095 44.4865 8.33882C44.5901 8.48668 44.6472 8.66209 44.6505 8.8426C44.6538 9.02311 44.6033 9.20051 44.5052 9.3521C44.4072 9.50369 44.2661 9.62259 44.1001 9.69357L31.3233 15.1571C31.2105 15.2052 31.0891 15.2299 30.9665 15.2298Z" fill="#FEA800"/>
<path d="M23.4089 19.8061C24.077 19.8061 24.6186 19.2645 24.6186 18.5964C24.6186 17.9283 24.077 17.3867 23.4089 17.3867C22.7408 17.3867 22.1992 17.9283 22.1992 18.5964C22.1992 19.2645 22.7408 19.8061 23.4089 19.8061Z" fill="#3F3D56"/>
<path opacity="0.2" d="M44.1476 8.91547L31.3708 14.379C31.2712 14.4216 31.164 14.4437 31.0556 14.444C30.9473 14.4442 30.84 14.4226 30.7402 14.3805L17.7902 8.91707C17.6276 8.85009 17.4919 8.73083 17.4046 8.57814C17.3475 8.67715 17.3122 8.78719 17.3008 8.90093C17.2895 9.01467 17.3025 9.12951 17.339 9.23784C17.3755 9.34617 17.4346 9.4455 17.5124 9.52923C17.5902 9.61297 17.6849 9.6792 17.7902 9.72352L30.7402 15.187C30.84 15.2291 30.9473 15.2507 31.0556 15.2504C31.164 15.2501 31.2712 15.2281 31.3708 15.1855L44.1476 9.72192C44.2524 9.67721 44.3466 9.61077 44.4238 9.527C44.5011 9.44322 44.5597 9.34401 44.5958 9.23592C44.6319 9.12783 44.6446 9.0133 44.6332 8.89992C44.6218 8.78653 44.5865 8.67685 44.5295 8.57812C44.4429 8.7296 44.3086 8.84819 44.1476 8.91547Z" fill="black"/>
<path d="M23.5102 18.5899C23.5637 18.5899 23.615 18.5687 23.6528 18.5309C23.6906 18.493 23.7118 18.4418 23.7118 18.3883V11.642L30.3613 9.21963C30.4147 9.22043 30.4663 9.19995 30.5047 9.1627C30.5431 9.12546 30.5651 9.07449 30.5659 9.02102C30.5667 8.96755 30.5462 8.91595 30.5089 8.87758C30.4717 8.83921 30.4207 8.8172 30.3673 8.81641L23.7178 11.2388C23.6643 11.2376 23.6111 11.2472 23.5614 11.2672C23.5118 11.2871 23.4667 11.3169 23.4288 11.3548C23.3906 11.3922 23.3603 11.4369 23.3396 11.4862C23.319 11.5356 23.3084 11.5886 23.3086 11.642V18.3883C23.3086 18.4418 23.3298 18.493 23.3676 18.5308C23.4055 18.5687 23.4567 18.5899 23.5102 18.5899Z" fill="#3F3D56"/>
</g>
<defs>
<clipPath id="clip0_6952_13735">
<rect width="150" height="108.727" fill="white" transform="translate(0 0.796875)"/>
</clipPath>
</defs>
</svg>
