<svg width="104" height="24" viewBox="0 0 104 24" fill="none" xmlns="http://www.w3.org/2000/svg">
<path d="M76.6811 7.28552H71.8838V24.0822H76.6811V7.28552Z" fill="black"/>
<path d="M76.6813 0.0640869H71.8838L76.6813 4.85651V0.0640869Z" fill="#EE4B2B"/>
<path d="M4.79721 7.28552H0V24.0822H4.79721V7.28552Z" fill="black"/>
<path d="M4.79721 0.0640869H0L4.79721 4.85651V0.0640869Z" fill="#EE4B2B"/>
<path fill-rule="evenodd" clip-rule="evenodd" d="M21.5865 0.0117188H26.3314V24.0822H24.0687L21.5865 21.6528V0.0117188ZM11.9403 11.6133L11.9588 11.632L19.1434 18.8036V12.0311L7.18164 0.0454198L7.19566 1.4894V24.0822H11.9403V11.6133Z" fill="black"/>
<path fill-rule="evenodd" clip-rule="evenodd" d="M38.4727 0.0644531C37.563 0.145109 36.6607 0.331463 35.7836 0.623417C33.4003 1.41665 31.3259 2.94894 29.856 5.00195C28.3859 7.05496 27.5953 9.52396 27.5967 12.0571C27.5982 14.5902 28.3916 17.0584 29.864 19.1097C31.3363 21.161 33.4123 22.6909 35.7964 23.4814C38.1804 24.2717 40.7508 24.2827 43.1412 23.512C45.5317 22.7415 47.6203 21.229 49.1095 19.1901L45.3601 16.3998C44.4531 17.642 43.1806 18.5634 41.7245 19.0328C40.2681 19.5022 38.7022 19.4956 37.2499 19.0141C35.7976 18.5325 34.5328 17.6005 33.6358 16.3508C32.7389 15.1012 32.2557 13.5976 32.2548 12.0544C32.2539 10.5113 32.7355 9.00711 33.6309 7.75645C34.5266 6.50573 35.7902 5.57226 37.2421 5.08903C37.645 4.95488 38.0568 4.85733 38.4727 4.79639V0.0644531ZM40.6837 4.81583C41.032 4.87313 41.3773 4.95624 41.7165 5.06518C43.1733 5.53293 44.4467 6.45288 45.3552 7.69391L49.1013 4.89938C47.6098 2.86216 45.5197 1.35206 43.1284 0.584272C42.329 0.327603 41.5096 0.158268 40.6837 0.076197V4.81583Z" fill="black"/>
<path fill-rule="evenodd" clip-rule="evenodd" d="M61.3083 0.0640869H61.4146V0.0648208C62.4111 0.0782234 63.9832 0.275016 64.8633 0.645078C65.7758 1.02865 66.6043 1.59085 67.3024 2.2996C68.0011 3.00834 68.5549 3.84974 68.9323 4.77576C69.3103 5.7018 69.5048 6.69428 69.5048 7.69659C69.5048 8.69892 69.3103 9.6914 68.9323 10.6174C68.5549 11.5435 68.0011 12.3848 67.3024 13.0936C66.6043 13.8024 65.7758 14.3646 64.8633 14.7481C64.6228 14.8491 64.3277 14.9372 64.005 15.0122L69.5048 24.0824H64.5864L59.2684 15.3212H56.1833V24.0824H51.5596V11.2388H51.5602V10.561H61.2561C61.6264 10.561 62.7233 10.4868 63.066 10.3428C63.4081 10.1989 63.7192 9.98789 63.981 9.72192C64.2432 9.45594 64.4508 9.14019 64.5926 8.79269C64.7344 8.44518 64.8075 8.07274 64.8075 7.69659C64.8075 7.32047 64.7344 6.948 64.5926 6.60052C64.4508 6.25301 64.2432 5.93727 63.981 5.67129C63.7192 5.40531 63.4081 5.19432 63.066 5.05038C62.7233 4.90643 61.6784 4.82619 61.3083 4.82619L51.56 4.82617V0.0640869H61.3083Z" fill="black"/>
<path fill-rule="evenodd" clip-rule="evenodd" d="M98.267 0.0640869H104.211L95.835 10.5772L92.8623 6.84691L98.267 0.0640869ZM91.6767 8.3353L79.1299 24.0824H85.0741L94.6487 12.0655L91.6767 8.3353Z" fill="black"/>
<path fill-rule="evenodd" clip-rule="evenodd" d="M85.0741 0.0640869H79.1299L91.6684 15.8011L94.6409 12.0708L85.0741 0.0640869ZM95.8265 13.5592L92.8545 17.2894L98.267 24.0824H104.211L95.8265 13.5592Z" fill="black"/>
</svg>
