<svg width="266" height="299" viewBox="0 0 266 299" fill="none" xmlns="http://www.w3.org/2000/svg">
<path d="M249.078 159.824C249.044 107.878 256.854 94.1252 228.705 50.2398C200.555 6.35437 131.548 -3.36399 79.3636 29.1868C27.1792 61.7375 13.1484 103.599 13.1484 103.599C13.1484 103.599 -5.78578 152.497 20.8226 201.733C45.1558 246.773 93.0753 272.363 134.638 293.416H240.915C247.375 287.972 252.868 281.473 257.16 274.197C278.804 237.775 249.119 211.771 249.078 159.824Z" fill="#FEA800"/>
<path opacity="0.7" d="M249.078 159.824C249.044 107.878 256.854 94.1252 228.705 50.2398C200.555 6.35437 131.548 -3.36399 79.3636 29.1868C27.1792 61.7375 13.1484 103.599 13.1484 103.599C13.1484 103.599 -5.78578 152.497 20.8226 201.733C45.1558 246.773 93.0753 272.363 134.638 293.416H240.915C247.375 287.972 252.868 281.473 257.16 274.197C278.804 237.775 249.119 211.771 249.078 159.824Z" fill="white"/>
<path d="M123.074 17.7778C123.991 21.4111 123.543 14.7217 125.343 6.53139C127.142 -1.65893 130.219 1.66881 130.219 1.66881" stroke="#263238" stroke-linecap="round" stroke-linejoin="round"/>
<path d="M122.508 9.41061L128.151 7.10156" stroke="#263238" stroke-linecap="round" stroke-linejoin="round"/>
<path d="M132.818 4.33008C132.818 4.33008 129.423 11.298 134.523 14.2658" stroke="#263238" stroke-linecap="round" stroke-linejoin="round"/>
<path d="M137.598 2.34766C137.598 2.34766 143.16 5.4377 139.676 12.1339" stroke="#263238" stroke-linecap="round" stroke-linejoin="round"/>
<path d="M133.781 6.6875L137.768 9.60097" stroke="#263238" stroke-linecap="round" stroke-linejoin="round"/>
<path d="M136.913 5.41016L133.789 10.3746" stroke="#263238" stroke-linecap="round" stroke-linejoin="round"/>
<path d="M15.4453 181.924C15.4453 181.924 5.98504 181.788 5.9375 189.951" stroke="#263238" stroke-linecap="round" stroke-linejoin="round"/>
<path d="M14.6558 187.072C14.4589 185.87 10.3434 184.356 9.63027 187.493C8.91718 190.631 14.031 188.75 15.6134 187.283C15.6134 187.283 12.6796 190.135 13.576 190.937" stroke="#263238" stroke-linecap="round" stroke-linejoin="round"/>
<path d="M15.232 191.826C15.232 191.826 13.9892 193.381 12.6445 192.641" stroke="#263238" stroke-linecap="round" stroke-linejoin="round"/>
<path d="M23.511 186.393L16.4141 193.598C16.4141 193.598 19.9863 189.978 22.0576 191.146C24.6383 192.559 21.2902 196.43 18.533 193.659" stroke="#263238" stroke-linecap="round" stroke-linejoin="round"/>
<path d="M27.0999 188.334C27.0999 188.334 28.9811 196.952 19.2695 197.258" stroke="#263238" stroke-linecap="round" stroke-linejoin="round"/>
<path d="M153.797 41.8253L157.22 42.389L157.267 50.165L164.765 36.4941L176.595 38.4365" stroke="#263238" stroke-linecap="round" stroke-linejoin="round"/>
<path d="M166.062 42.4844L171.265 51.6662" stroke="#263238" stroke-linecap="round" stroke-linejoin="round"/>
<path d="M172.6 43.5566L163.289 50.3547" stroke="#263238" stroke-linecap="round" stroke-linejoin="round"/>
<path d="M107.026 55.667C106.149 54.5533 101.104 55.3479 102.129 58.9201C103.155 62.4923 107.324 57.7316 108.119 55.3479C108.119 55.3479 106.727 59.9048 108.119 60.2104" stroke="#263238" stroke-linecap="round" stroke-linejoin="round"/>
<path d="M110.889 51.9922L109.762 55.9991C109.762 55.9991 110.325 53.9617 111.317 53.9617C112.533 53.9617 112.091 55.9991 110.536 55.578" stroke="#263238" stroke-linecap="round" stroke-linejoin="round"/>
<path d="M206.021 101.379L203.645 109.97L208.84 115.661" stroke="#263238" stroke-linecap="round" stroke-linejoin="round"/>
<path d="M208.996 104.869L214.945 109.847" stroke="#263238" stroke-linecap="round" stroke-linejoin="round"/>
<path d="M213.09 103.646L210.516 109.969" stroke="#263238" stroke-linecap="round" stroke-linejoin="round"/>
<path d="M217.275 109.154C217.275 109.154 217.329 110.947 216.555 111.192" stroke="#263238" stroke-linecap="round" stroke-linejoin="round"/>
<path d="M218.027 102.893L221.62 105.562" stroke="#263238" stroke-linecap="round" stroke-linejoin="round"/>
<path d="M222.951 100.699L219.406 113.467" stroke="#263238" stroke-linecap="round" stroke-linejoin="round"/>
<path d="M223.129 96.2656L228.888 102.785L226.436 109.916" stroke="#263238" stroke-linecap="round" stroke-linejoin="round"/>
<path d="M64.5234 264.499L72.8564 239.697L82.9618 250.978L64.5234 264.499Z" stroke="#263238" stroke-linecap="round" stroke-linejoin="round"/>
<path d="M80.484 252.79L78.3516 250.352L80.6266 248.383" stroke="#263238" stroke-linecap="round" stroke-linejoin="round"/>
<path d="M15.2702 125.154C19.5982 123.361 21.6535 118.399 19.8608 114.071C18.068 109.743 13.1061 107.688 8.77807 109.481C4.45 111.273 2.39471 116.235 4.18746 120.563C5.9802 124.891 10.9421 126.947 15.2702 125.154Z" stroke="#263238" stroke-linecap="round" stroke-linejoin="round"/>
<path d="M21.4323 119.3C26.6308 119.3 30.845 115.086 30.845 109.887C30.845 104.689 26.6308 100.475 21.4323 100.475C16.2338 100.475 12.0195 104.689 12.0195 109.887C12.0195 115.086 16.2338 119.3 21.4323 119.3Z" stroke="#263238" stroke-linecap="round" stroke-linejoin="round"/>
<path d="M13.6907 108.998L12.543 112.985" stroke="#263238" stroke-linecap="round" stroke-linejoin="round"/>
<path d="M15.3145 109.494L13.6914 115.24" stroke="#263238" stroke-linecap="round" stroke-linejoin="round"/>
<path d="M17.021 110.459L15.3164 116.958" stroke="#263238" stroke-linecap="round" stroke-linejoin="round"/>
<path d="M18.9149 112.367L17.6992 118.534" stroke="#263238" stroke-linecap="round" stroke-linejoin="round"/>
<path d="M19.9803 114.377L18.9141 118.961" stroke="#263238" stroke-linecap="round" stroke-linejoin="round"/>
<path d="M3.91208 106.445C3.17183 106.221 1.14123 108.15 2.71681 109.447C4.2924 110.744 4.69308 107.287 4.30598 105.963C4.30598 105.963 5.10056 108.455 5.82044 108.156" stroke="#263238" stroke-linecap="round" stroke-linejoin="round"/>
<path d="M14.8594 95.5586L17.5759 100.503C17.5759 100.503 16.2176 98.0306 17.1752 97.107C18.3433 95.9661 19.8917 98.377 17.9358 99.3889" stroke="#263238" stroke-linecap="round" stroke-linejoin="round"/>
<path d="M64.4961 94.9688L68.3332 98.6021" stroke="#263238" stroke-linecap="round" stroke-linejoin="round"/>
<path d="M68.3334 94.0234L65.1211 98.8181" stroke="#263238" stroke-linecap="round" stroke-linejoin="round"/>
<path d="M72.1094 95.4017L75.9465 93.9688" stroke="#263238" stroke-linecap="round" stroke-linejoin="round"/>
<path d="M77.7891 89.9688L80.1253 92.0333" stroke="#263238" stroke-linecap="round" stroke-linejoin="round"/>
<path d="M81.9112 87.4844L78.957 97.6306" stroke="#263238" stroke-linecap="round" stroke-linejoin="round"/>
<path d="M249.628 85.4471L249.465 77.6914H255.326C255.326 77.6914 252.08 79.4843 253.574 83.6542C255.068 87.824 257.472 85.4471 257.472 85.4471" stroke="#263238" stroke-linecap="round" stroke-linejoin="round"/>
<path d="M239.699 217.747L246.368 213.156L255.197 213.774L255.747 224.966L249.268 229.605L241.268 229.021L239.699 217.747Z" stroke="#263238" stroke-linecap="round" stroke-linejoin="round"/>
<path d="M241.27 229.022L247.721 224.377L255.749 224.968" stroke="#263238" stroke-linecap="round" stroke-linejoin="round"/>
<path d="M247.725 224.375L246.367 213.156" stroke="#263238" stroke-linecap="round" stroke-linejoin="round"/>
<path d="M239.699 217.748L248.508 218.767L255.197 213.775" stroke="#263238" stroke-linecap="round" stroke-linejoin="round"/>
<path d="M248.508 218.766L249.268 229.605" stroke="#263238" stroke-linecap="round" stroke-linejoin="round"/>
<path d="M240.914 133.686L240.629 148.606L253.702 142.67L240.914 133.686Z" stroke="#263238" stroke-linecap="round" stroke-linejoin="round"/>
<path d="M240.914 133.686L247.142 145.564" stroke="#263238" stroke-linecap="round" stroke-linejoin="round"/>
<path d="M246.145 143.655L247.659 142.922L248.678 144.952" stroke="#263238" stroke-linecap="round" stroke-linejoin="round"/>
<path d="M126.93 132.273L132.336 138.066" stroke="#263238" stroke-linecap="round" stroke-linejoin="round"/>
<path d="M132.375 131.492L127.832 137.713" stroke="#263238" stroke-linecap="round" stroke-linejoin="round"/>
<path d="M134.591 128.456C134.851 128.335 135.147 128.323 135.416 128.421C135.685 128.519 135.903 128.72 136.024 128.979C136.067 129.072 136.097 129.17 136.113 129.271C136.378 130.575 134.238 132.272 134.238 132.272H137.288" stroke="#263238" stroke-linecap="round" stroke-linejoin="round"/>
<path d="M42.7656 45.4724C43.0244 42.1817 44.1084 39.0094 45.9174 36.2484C47.7263 33.4875 50.202 31.227 53.1156 29.6758" stroke="#263238" stroke-linecap="round" stroke-linejoin="round"/>
<path d="M57.7796 66.187C52.8265 64.999 48.5286 61.9333 45.793 57.6367" stroke="#263238" stroke-linecap="round" stroke-linejoin="round"/>
<path d="M81.9907 48.6035C81.5715 53.8046 79.1054 58.6267 75.134 62.0112C71.1625 65.3956 66.0103 67.0657 60.8086 66.6548" stroke="#263238" stroke-linecap="round" stroke-linejoin="round"/>
<path d="M63.9414 27.4277C68.413 27.7862 72.6282 29.6605 75.8897 32.7404C79.1512 35.8204 81.2636 39.9215 81.8773 44.3653" stroke="#263238" stroke-linecap="round" stroke-linejoin="round"/>
<path d="M70.8662 62.1863C68.121 63.7265 65.0088 64.4916 61.8623 64.3997C58.7159 64.3078 55.6536 63.3624 53.003 61.6646C50.3523 59.9668 48.213 57.5804 46.8138 54.7607C45.4146 51.941 44.8081 48.794 45.0593 45.6562" stroke="#263238" stroke-linecap="round" stroke-linejoin="round"/>
<path d="M46.1758 40.7931C47.0896 38.4174 48.5145 36.2717 50.3496 34.5078C52.1847 32.7439 54.3851 31.405 56.795 30.5859C59.205 29.7668 61.7655 29.4874 64.2954 29.7677C66.8253 30.0479 69.2626 30.8809 71.4349 32.2076C73.6071 33.5343 75.4611 35.3224 76.8657 37.4451C78.2702 39.5679 79.1909 41.9734 79.5627 44.4915C79.9344 47.0096 79.748 49.5786 79.0167 52.0166C78.2854 54.4546 77.0271 56.7021 75.3309 58.5999" stroke="#263238" stroke-linecap="round" stroke-linejoin="round"/>
<path d="M60.6719 34.5449L62.3765 47.0409L71.9794 44.0528" stroke="#263238" stroke-linecap="round" stroke-linejoin="round"/>
<path d="M212.114 71.3267C209.354 71.3533 206.65 70.5407 204.362 68.9963C202.074 67.452 200.308 65.2489 199.3 62.6788C198.292 60.1088 198.089 57.2931 198.717 54.6048C199.345 51.9165 200.775 49.4824 202.817 47.625" stroke="#263238" stroke-linecap="round" stroke-linejoin="round"/>
<path d="M224.875 62.1113C224.213 64.0631 223.116 65.8386 221.666 67.3035C220.216 68.7684 218.453 69.8843 216.508 70.5665" stroke="#263238" stroke-linecap="round" stroke-linejoin="round"/>
<path d="M207.461 44.8545C210.869 43.6553 214.613 43.8588 217.871 45.4202C221.129 46.9816 223.633 49.7731 224.833 53.1806" stroke="#263238" stroke-linecap="round" stroke-linejoin="round"/>
<path d="M218.706 47.7402C220.114 48.6916 221.304 49.9305 222.198 51.3754C223.091 52.8203 223.669 54.4382 223.892 56.1226C224.115 57.8069 223.978 59.5194 223.491 61.147C223.004 62.7747 222.177 64.2806 221.065 65.5654C219.953 66.8502 218.582 67.8847 217.041 68.6007C215.5 69.3167 213.825 69.698 212.126 69.7194C210.427 69.7408 208.743 69.4017 207.185 68.7247C205.627 68.0477 204.23 67.048 203.086 65.7915" stroke="#263238" stroke-linecap="round" stroke-linejoin="round"/>
<path d="M200.637 61.6899C199.914 59.6333 199.764 57.4187 200.203 55.2834C200.642 53.1481 201.654 51.1723 203.129 49.5677C204.605 47.963 206.489 46.7898 208.58 46.1737C210.671 45.5575 212.891 45.5217 215.001 46.0699" stroke="#263238" stroke-linecap="round" stroke-linejoin="round"/>
<path d="M207.395 50.2812L211.985 57.7042L207.802 63.1304" stroke="#263238" stroke-linecap="round" stroke-linejoin="round"/>
<path d="M115.746 260.71C115.74 258.929 116.169 257.173 116.998 255.596C117.827 254.019 119.029 252.669 120.5 251.664" stroke="#263238" stroke-linecap="round" stroke-linejoin="round"/>
<path d="M134.563 268.235C133.267 269.598 131.642 270.602 129.845 271.153C128.048 271.704 126.139 271.781 124.302 271.378C122.466 270.976 120.765 270.106 119.364 268.853C117.962 267.601 116.907 266.008 116.301 264.229" stroke="#263238" stroke-linecap="round" stroke-linejoin="round"/>
<path d="M126.645 249.783C129.543 249.783 132.322 250.934 134.371 252.984C136.42 255.033 137.572 257.812 137.572 260.71" stroke="#263238" stroke-linecap="round" stroke-linejoin="round"/>
<path d="M126.645 270.346C124.089 270.346 121.638 269.331 119.83 267.523C118.023 265.716 117.008 263.265 117.008 260.709" stroke="#263238" stroke-linecap="round" stroke-linejoin="round"/>
<path d="M119.141 254.658C120.034 253.555 121.16 252.662 122.438 252.044C123.717 251.426 125.116 251.097 126.536 251.083C127.955 251.068 129.361 251.367 130.652 251.958C131.943 252.549 133.087 253.418 134.004 254.503C134.92 255.588 135.585 256.861 135.952 258.233C136.319 259.604 136.379 261.04 136.127 262.438C135.875 263.835 135.317 265.159 134.494 266.316C133.671 267.473 132.602 268.434 131.365 269.13" stroke="#263238" stroke-linecap="round" stroke-linejoin="round"/>
<path d="M125.149 267.256L126.644 260.709L124.559 255.357" stroke="#263238" stroke-linecap="round" stroke-linejoin="round"/>
<path d="M138.828 150.452L134.353 235.663L77.6523 232.688L78.1277 223.656L82.1278 147.471L117.83 149.345L138.828 150.452Z" fill="white"/>
<mask id="mask0_4454_18409" style="mask-type:luminance" maskUnits="userSpaceOnUse" x="77" y="147" width="62" height="89">
<path d="M138.828 150.452L134.353 235.663L77.6523 232.688L78.1277 223.656L82.1278 147.471L117.83 149.345L138.828 150.452Z" fill="white"/>
</mask>
<g mask="url(#mask0_4454_18409)">
<path opacity="0.2" d="M121.131 200.375L108.357 201.428L112.085 217.516L78.1289 223.656L82.129 147.471L117.831 149.345L121.131 200.375Z" fill="black" fill-opacity="0.7"/>
</g>
<path d="M138.828 150.452L134.353 235.663L77.6523 232.688L78.1277 223.656L82.1278 147.471L117.83 149.345L138.828 150.452Z" stroke="#263238" stroke-linecap="round" stroke-linejoin="round"/>
<path d="M86.1289 153.297L100.886 154.071" stroke="#263238" stroke-width="2" stroke-linecap="round" stroke-linejoin="round"/>
<path d="M85.9805 156.129L96.018 156.659" stroke="#263238" stroke-width="2" stroke-linecap="round" stroke-linejoin="round"/>
<path d="M89.2266 163.01L131.672 165.237" stroke="#263238" stroke-width="2" stroke-linecap="round" stroke-linejoin="round"/>
<path d="M89.0781 165.842L131.524 168.069" stroke="#263238" stroke-width="2" stroke-linecap="round" stroke-linejoin="round"/>
<path d="M88.9062 169.148L125.104 171.043" stroke="#263238" stroke-width="2" stroke-linecap="round" stroke-linejoin="round"/>
<path d="M88.9198 172.165L88.7383 175.617L92.1903 175.799L92.3718 172.347L88.9198 172.165Z" stroke="#263238" stroke-linecap="round" stroke-linejoin="round"/>
<path d="M95.1776 172.497L94.9961 175.949L98.4481 176.131L98.6296 172.679L95.1776 172.497Z" stroke="#263238" stroke-linecap="round" stroke-linejoin="round"/>
<path d="M101.428 172.829L101.246 176.281L104.698 176.463L104.88 173.011L101.428 172.829Z" stroke="#263238" stroke-linecap="round" stroke-linejoin="round"/>
<path d="M107.685 173.159L107.504 176.611L110.956 176.793L111.137 173.341L107.685 173.159Z" stroke="#263238" stroke-linecap="round" stroke-linejoin="round"/>
<path d="M86.9631 162.887C86.9587 162.999 86.9322 163.11 86.8851 163.212C86.838 163.314 86.7712 163.406 86.6886 163.482C86.606 163.558 86.5091 163.618 86.4035 163.657C86.298 163.695 86.1858 163.713 86.0734 163.709C85.8446 163.697 85.6299 163.595 85.4764 163.425C85.323 163.255 85.2433 163.031 85.255 162.802C85.2667 162.573 85.3688 162.358 85.5389 162.205C85.7089 162.051 85.9329 161.972 86.1617 161.984C86.2741 161.989 86.3844 162.016 86.4862 162.064C86.588 162.112 86.6794 162.179 86.7551 162.263C86.8308 162.346 86.8893 162.443 86.9274 162.549C86.9654 162.655 86.9821 162.768 86.9766 162.88L86.9631 162.887Z" fill="#263238"/>
<path d="M88.3555 179.533L130.801 181.761" stroke="#263238" stroke-width="2" stroke-linecap="round" stroke-linejoin="round"/>
<path d="M88.207 182.365L130.653 184.593" stroke="#263238" stroke-width="2" stroke-linecap="round" stroke-linejoin="round"/>
<path d="M88.0391 185.672L124.237 187.567" stroke="#263238" stroke-width="2" stroke-linecap="round" stroke-linejoin="round"/>
<path d="M88.0448 188.7L87.8633 192.152L91.3153 192.334L91.4968 188.882L88.0448 188.7Z" stroke="#263238" stroke-linecap="round" stroke-linejoin="round"/>
<path d="M94.3065 189.025L94.125 192.477L97.577 192.658L97.7585 189.206L94.3065 189.025Z" stroke="#263238" stroke-linecap="round" stroke-linejoin="round"/>
<path d="M100.56 189.349L100.379 192.801L103.831 192.982L104.012 189.53L100.56 189.349Z" stroke="#263238" stroke-linecap="round" stroke-linejoin="round"/>
<path d="M106.81 189.681L106.629 193.133L110.081 193.314L110.262 189.862L106.81 189.681Z" stroke="#263238" stroke-linecap="round" stroke-linejoin="round"/>
<path d="M86.102 179.41C86.0968 179.523 86.0692 179.634 86.021 179.737C85.9727 179.84 85.9047 179.932 85.8208 180.008C85.7369 180.085 85.6388 180.144 85.532 180.182C85.4253 180.22 85.312 180.237 85.1987 180.232C85.0271 180.223 84.8617 180.165 84.7235 180.062C84.5854 179.96 84.4806 179.819 84.4224 179.658C84.3642 179.496 84.3553 179.321 84.3967 179.154C84.4382 178.987 84.5281 178.836 84.6552 178.721C84.7822 178.605 84.9407 178.53 85.1107 178.504C85.2806 178.478 85.4543 178.504 85.6099 178.577C85.7654 178.65 85.8958 178.767 85.9846 178.914C86.0734 179.061 86.1166 179.232 86.1088 179.403L86.102 179.41Z" fill="#263238"/>
<path d="M87.4961 196.057L129.935 198.284" stroke="#263238" stroke-width="2" stroke-linecap="round" stroke-linejoin="round"/>
<path d="M87.3438 198.889L129.783 201.116" stroke="#263238" stroke-width="2" stroke-linecap="round" stroke-linejoin="round"/>
<path d="M87.168 202.188L123.366 204.089" stroke="#263238" stroke-width="2" stroke-linecap="round" stroke-linejoin="round"/>
<path d="M87.1815 205.212L87 208.664L90.452 208.846L90.6335 205.394L87.1815 205.212Z" stroke="#263238" stroke-linecap="round" stroke-linejoin="round"/>
<path d="M94.1728 205.523L94 208.982L97.4593 209.155L97.6321 205.696L94.1728 205.523Z" stroke="#263238" stroke-width="1.00125" stroke-linecap="round" stroke-linejoin="round"/>
<path d="M99.6893 205.876L99.5078 209.328L102.96 209.51L103.141 206.058L99.6893 205.876Z" stroke="#263238" stroke-linecap="round" stroke-linejoin="round"/>
<path d="M105.951 206.2L105.77 209.652L109.222 209.834L109.403 206.382L105.951 206.2Z" stroke="#263238" stroke-linecap="round" stroke-linejoin="round"/>
<path d="M85.2335 195.934C85.2282 196.048 85.2007 196.159 85.1525 196.262C85.1042 196.364 85.0362 196.456 84.9523 196.533C84.8684 196.609 84.7703 196.668 84.6635 196.706C84.5568 196.745 84.4435 196.762 84.3302 196.756C84.0997 196.756 83.8786 196.665 83.7155 196.502C83.5525 196.339 83.4609 196.117 83.4609 195.887C83.4609 195.656 83.5525 195.435 83.7155 195.272C83.8786 195.109 84.0997 195.018 84.3302 195.018H84.4525C84.5658 195.023 84.6769 195.05 84.7796 195.099C84.8822 195.147 84.9744 195.215 85.0507 195.299C85.127 195.383 85.1861 195.481 85.2244 195.588C85.2628 195.694 85.2797 195.808 85.2742 195.921L85.2335 195.934Z" fill="#263238"/>
<path d="M86.5977 213.047L129.037 215.281" stroke="#263238" stroke-width="2" stroke-linecap="round" stroke-linejoin="round"/>
<path d="M86.4492 215.879L128.895 218.113" stroke="#263238" stroke-width="2" stroke-linecap="round" stroke-linejoin="round"/>
<path d="M86.2773 219.188L122.475 221.089" stroke="#263238" stroke-width="2" stroke-linecap="round" stroke-linejoin="round"/>
<path d="M86.2831 222.214L86.1016 225.666L89.5536 225.848L89.7351 222.396L86.2831 222.214Z" stroke="#263238" stroke-linecap="round" stroke-linejoin="round"/>
<path d="M92.5487 222.538L92.3672 225.99L95.8192 226.172L96.0007 222.72L92.5487 222.538Z" stroke="#263238" stroke-linecap="round" stroke-linejoin="round"/>
<path d="M98.8104 222.862L98.6289 226.314L102.081 226.496L102.262 223.044L98.8104 222.862Z" stroke="#263238" stroke-linecap="round" stroke-linejoin="round"/>
<path d="M105.06 223.2L104.879 226.652L108.331 226.834L108.512 223.382L105.06 223.2Z" stroke="#263238" stroke-linecap="round" stroke-linejoin="round"/>
<path d="M84.3369 212.933C84.3273 213.103 84.2674 213.266 84.1649 213.403C84.0623 213.539 83.9218 213.642 83.7609 213.698C83.6 213.754 83.426 213.762 83.2609 213.719C83.0958 213.677 82.947 213.586 82.8333 213.459C82.7195 213.332 82.646 213.175 82.6219 213.006C82.5979 212.837 82.6243 212.665 82.698 212.511C82.7717 212.357 82.8893 212.229 83.0359 212.142C83.1826 212.055 83.3517 212.014 83.5219 212.023C83.6353 212.029 83.7463 212.057 83.8486 212.106C83.9509 212.155 84.0426 212.224 84.1183 212.309C84.194 212.393 84.2523 212.492 84.2898 212.599C84.3273 212.706 84.3433 212.819 84.3369 212.933Z" fill="#263238"/>
<path d="M90.0938 173.604L90.542 174.378L92.3824 172.348" stroke="#263238" stroke-width="2" stroke-linecap="round" stroke-linejoin="round"/>
<path d="M101.75 190.575L102.198 191.349L104.039 189.318" stroke="#263238" stroke-width="2" stroke-linecap="round" stroke-linejoin="round"/>
<path d="M107.598 208.015L108.046 208.789L109.886 206.752" stroke="#263238" stroke-width="2" stroke-linecap="round" stroke-linejoin="round"/>
<path d="M93.7422 223.582L94.1904 224.349L96.0309 222.318" stroke="#263238" stroke-width="2" stroke-linecap="round" stroke-linejoin="round"/>
<path d="M101.152 211.548L46.4475 226.753L23.6016 144.531L46.2506 138.235L78.3055 129.332L99.0326 203.928L101.152 211.548Z" fill="white"/>
<mask id="mask1_4454_18409" style="mask-type:luminance" maskUnits="userSpaceOnUse" x="23" y="129" width="79" height="98">
<path d="M101.152 211.548L46.4475 226.753L23.6016 144.531L46.2506 138.235L78.3055 129.332L99.0326 203.928L101.152 211.548Z" fill="white"/>
</mask>
<g mask="url(#mask1_4454_18409)">
<path opacity="0.2" d="M99.032 203.928L56.7358 206.665L46.25 138.235L78.305 129.332L99.032 203.928Z" fill="black" fill-opacity="0.7"/>
</g>
<path d="M101.152 211.548L46.4475 226.753L23.6016 144.531L46.2506 138.235L78.3055 129.332L99.0326 203.928L101.152 211.548Z" stroke="#263238" stroke-linecap="round" stroke-linejoin="round"/>
<path d="M29.2539 148.781L43.4885 144.828" stroke="#263238" stroke-width="2" stroke-linecap="round" stroke-linejoin="round"/>
<path d="M30.0039 151.519L39.6883 148.83" stroke="#263238" stroke-width="2" stroke-linecap="round" stroke-linejoin="round"/>
<path d="M35.2695 157.006L76.2211 145.631" stroke="#263238" stroke-width="2" stroke-linecap="round" stroke-linejoin="round"/>
<path d="M36.0312 159.737L76.9828 148.361" stroke="#263238" stroke-width="2" stroke-linecap="round" stroke-linejoin="round"/>
<path d="M36.9141 162.927L71.8418 153.223" stroke="#263238" stroke-width="2" stroke-linecap="round" stroke-linejoin="round"/>
<path d="M41.229 164.86L37.8984 165.785L38.824 169.116L42.1545 168.19L41.229 164.86Z" stroke="#263238" stroke-linecap="round" stroke-linejoin="round"/>
<path d="M47.2681 163.176L43.9375 164.102L44.863 167.432L48.1936 166.507L47.2681 163.176Z" stroke="#263238" stroke-linecap="round" stroke-linejoin="round"/>
<path d="M53.3071 161.496L49.9766 162.422L50.9021 165.752L54.2327 164.827L53.3071 161.496Z" stroke="#263238" stroke-linecap="round" stroke-linejoin="round"/>
<path d="M59.3345 159.823L56.0039 160.748L56.9294 164.079L60.26 163.153L59.3345 159.823Z" stroke="#263238" stroke-linecap="round" stroke-linejoin="round"/>
<path d="M33.0899 157.611C33.1511 157.832 33.1222 158.068 33.0095 158.267C32.8967 158.466 32.7095 158.613 32.4888 158.674C32.2682 158.735 32.0322 158.706 31.8329 158.593C31.6336 158.481 31.4872 158.293 31.426 158.073C31.3647 157.852 31.3937 157.616 31.5064 157.417C31.6191 157.218 31.8064 157.071 32.027 157.01C32.2477 156.949 32.4836 156.978 32.6829 157.09C32.8822 157.203 33.0286 157.39 33.0899 157.611Z" fill="#263238"/>
<path d="M39.6953 172.946L80.6469 161.57" stroke="#263238" stroke-width="2" stroke-linecap="round" stroke-linejoin="round"/>
<path d="M40.457 175.681L81.4086 164.299" stroke="#263238" stroke-width="2" stroke-linecap="round" stroke-linejoin="round"/>
<path d="M41.3477 178.867L76.2686 169.162" stroke="#263238" stroke-width="2" stroke-linecap="round" stroke-linejoin="round"/>
<path d="M45.6587 180.795L42.3281 181.721L43.2537 185.051L46.5842 184.126L45.6587 180.795Z" stroke="#263238" stroke-linecap="round" stroke-linejoin="round"/>
<path d="M51.6938 179.119L48.3633 180.045L49.2888 183.375L52.6194 182.45L51.6938 179.119Z" stroke="#263238" stroke-linecap="round" stroke-linejoin="round"/>
<path d="M57.7329 177.442L54.4023 178.367L55.3279 181.698L58.6584 180.772L57.7329 177.442Z" stroke="#263238" stroke-linecap="round" stroke-linejoin="round"/>
<path d="M63.7798 175.756L60.4492 176.682L61.3747 180.012L64.7053 179.087L63.7798 175.756Z" stroke="#263238" stroke-linecap="round" stroke-linejoin="round"/>
<path d="M37.5233 173.557C37.5693 173.723 37.5651 173.898 37.5114 174.061C37.4577 174.224 37.3568 174.368 37.2216 174.474C37.0863 174.58 36.9227 174.643 36.7514 174.656C36.5801 174.669 36.4087 174.631 36.2591 174.547C36.1094 174.463 35.988 174.336 35.9104 174.183C35.8327 174.029 35.8021 173.857 35.8226 173.686C35.8431 173.515 35.9136 173.355 36.0253 173.224C36.1371 173.094 36.2849 172.999 36.4503 172.953C36.5596 172.922 36.6739 172.913 36.7867 172.926C36.8994 172.939 37.0085 172.975 37.1076 173.03C37.2066 173.086 37.2938 173.16 37.364 173.249C37.4341 173.339 37.486 173.441 37.5166 173.55L37.5233 173.557Z" fill="#263238"/>
<path d="M44.1328 188.892L85.0776 177.51" stroke="#263238" stroke-width="2" stroke-linecap="round" stroke-linejoin="round"/>
<path d="M44.8906 191.622L85.8354 180.246" stroke="#263238" stroke-width="2" stroke-linecap="round" stroke-linejoin="round"/>
<path d="M45.7734 194.812L80.7011 185.107" stroke="#263238" stroke-width="2" stroke-linecap="round" stroke-linejoin="round"/>
<path d="M50.0845 196.735L46.7539 197.66L47.6794 200.991L51.01 200.065L50.0845 196.735Z" stroke="#263238" stroke-linecap="round" stroke-linejoin="round"/>
<path d="M56.1314 195.055L52.8008 195.98L53.7263 199.311L57.0569 198.386L56.1314 195.055Z" stroke="#263238" stroke-linecap="round" stroke-linejoin="round"/>
<path d="M62.1587 193.379L58.8281 194.305L59.7537 197.635L63.0842 196.71L62.1587 193.379Z" stroke="#263238" stroke-linecap="round" stroke-linejoin="round"/>
<path d="M68.1978 191.701L64.8672 192.627L65.7927 195.958L69.1233 195.032L68.1978 191.701Z" stroke="#263238" stroke-linecap="round" stroke-linejoin="round"/>
<path d="M41.953 189.495C41.999 189.66 41.9948 189.836 41.9411 189.999C41.8874 190.162 41.7865 190.306 41.6512 190.411C41.516 190.517 41.3524 190.581 41.181 190.594C41.0097 190.607 40.8384 190.569 40.6887 190.484C40.5391 190.4 40.4177 190.273 40.34 190.12C40.2624 189.967 40.2318 189.794 40.2523 189.623C40.2727 189.453 40.3433 189.292 40.455 189.162C40.5667 189.031 40.7146 188.937 40.88 188.89C40.9893 188.859 41.1036 188.85 41.2163 188.863C41.3291 188.877 41.4382 188.912 41.5373 188.968C41.6363 189.023 41.7235 189.098 41.7936 189.187C41.8638 189.276 41.9157 189.378 41.9462 189.488L41.953 189.495Z" fill="#263238"/>
<path d="M48.6875 205.286L89.6323 193.91" stroke="#263238" stroke-width="2" stroke-linecap="round" stroke-linejoin="round"/>
<path d="M49.4414 208.023L90.393 196.641" stroke="#263238" stroke-width="2" stroke-linecap="round" stroke-linejoin="round"/>
<path d="M50.332 211.207L85.2597 201.502" stroke="#263238" stroke-width="2" stroke-linecap="round" stroke-linejoin="round"/>
<path d="M54.6431 213.137L51.3125 214.062L52.238 217.393L55.5686 216.468L54.6431 213.137Z" stroke="#263238" stroke-linecap="round" stroke-linejoin="round"/>
<path d="M60.6821 211.457L57.3516 212.383L58.2771 215.713L61.6077 214.788L60.6821 211.457Z" stroke="#263238" stroke-linecap="round" stroke-linejoin="round"/>
<path d="M66.7251 209.78L63.3945 210.705L64.3201 214.036L67.6506 213.11L66.7251 209.78Z" stroke="#263238" stroke-linecap="round" stroke-linejoin="round"/>
<path d="M72.7563 208.104L69.4258 209.029L70.3513 212.36L73.6819 211.434L72.7563 208.104Z" stroke="#263238" stroke-linecap="round" stroke-linejoin="round"/>
<path d="M46.5085 205.889C46.5725 206.111 46.5458 206.349 46.4343 206.55C46.3229 206.752 46.1358 206.902 45.9143 206.966C45.6927 207.03 45.4549 207.003 45.253 206.891C45.0511 206.78 44.9018 206.593 44.8379 206.371C44.7748 206.149 44.8023 205.911 44.9143 205.708C45.0262 205.506 45.2136 205.356 45.4355 205.291C45.6552 205.23 45.8901 205.258 46.0895 205.369C46.289 205.479 46.437 205.664 46.5017 205.882L46.5085 205.889Z" fill="#263238"/>
<path d="M45.1445 165.19L45.8169 165.78L46.9171 163.268" stroke="#263238" stroke-width="2" stroke-linecap="round" stroke-linejoin="round"/>
<path d="M43.5078 182.977L44.1802 183.567L45.2736 181.055" stroke="#263238" stroke-width="2" stroke-linecap="round" stroke-linejoin="round"/>
<path d="M47.9336 198.752L48.6059 199.343L49.6993 196.83" stroke="#263238" stroke-width="2" stroke-linecap="round" stroke-linejoin="round"/>
<path d="M64.5547 211.676L65.227 212.267L66.3272 209.754" stroke="#263238" stroke-width="2" stroke-linecap="round" stroke-linejoin="round"/>
<path d="M106.495 110.338L49.9805 115.77L58.1444 200.711L114.659 195.279L106.495 110.338Z" fill="white" stroke="#263238" stroke-linecap="round" stroke-linejoin="round"/>
<path d="M54.793 120.952L69.5029 119.539" stroke="#263238" stroke-width="2" stroke-linecap="round" stroke-linejoin="round"/>
<path d="M55.0664 123.777L65.07 122.812" stroke="#263238" stroke-width="2" stroke-linecap="round" stroke-linejoin="round"/>
<path d="M59.2891 130.099L101.592 126.031" stroke="#263238" stroke-width="2" stroke-linecap="round" stroke-linejoin="round"/>
<path d="M59.5625 132.917L101.866 128.855" stroke="#263238" stroke-width="2" stroke-linecap="round" stroke-linejoin="round"/>
<path d="M59.8789 136.212L95.9611 132.748" stroke="#263238" stroke-width="2" stroke-linecap="round" stroke-linejoin="round"/>
<path d="M63.7964 138.859L60.3555 139.189L60.6862 142.63L64.1271 142.3L63.7964 138.859Z" stroke="#263238" stroke-linecap="round" stroke-linejoin="round"/>
<path d="M70.0347 138.259L66.5938 138.59L66.9245 142.031L70.3654 141.7L70.0347 138.259Z" stroke="#263238" stroke-linecap="round" stroke-linejoin="round"/>
<path d="M76.2691 137.665L72.8281 137.996L73.1588 141.437L76.5998 141.106L76.2691 137.665Z" stroke="#263238" stroke-linecap="round" stroke-linejoin="round"/>
<path d="M82.5073 137.058L79.0664 137.389L79.3971 140.83L82.838 140.499L82.5073 137.058Z" stroke="#263238" stroke-linecap="round" stroke-linejoin="round"/>
<path d="M57.0431 130.317C57.0597 130.488 57.0253 130.66 56.9441 130.811C56.8629 130.963 56.7386 131.087 56.587 131.168C56.4353 131.248 56.2631 131.283 56.0921 131.266C55.9211 131.249 55.7589 131.181 55.6261 131.072C55.4933 130.963 55.3958 130.817 55.346 130.653C55.2961 130.488 55.2961 130.313 55.346 130.148C55.3959 129.984 55.4934 129.838 55.6263 129.729C55.7591 129.62 55.9213 129.552 56.0923 129.536C56.2051 129.524 56.3191 129.535 56.4276 129.568C56.5362 129.601 56.6372 129.655 56.7248 129.727C56.8125 129.799 56.8852 129.887 56.9386 129.987C56.9921 130.087 57.0253 130.197 57.0363 130.31L57.0431 130.317Z" fill="#263238"/>
<path d="M60.8711 146.567L103.174 142.506" stroke="#263238" stroke-width="2" stroke-linecap="round" stroke-linejoin="round"/>
<path d="M61.1445 149.392L103.448 145.324" stroke="#263238" stroke-width="2" stroke-linecap="round" stroke-linejoin="round"/>
<path d="M61.4609 152.687L97.5431 149.217" stroke="#263238" stroke-width="2" stroke-linecap="round" stroke-linejoin="round"/>
<path d="M65.3784 155.326L61.9375 155.656L62.2682 159.097L65.7091 158.766L65.3784 155.326Z" stroke="#263238" stroke-linecap="round" stroke-linejoin="round"/>
<path d="M71.6167 154.732L68.1758 155.062L68.5065 158.503L71.9474 158.173L71.6167 154.732Z" stroke="#263238" stroke-linecap="round" stroke-linejoin="round"/>
<path d="M77.855 154.13L74.4141 154.461L74.7448 157.902L78.1857 157.571L77.855 154.13Z" stroke="#263238" stroke-linecap="round" stroke-linejoin="round"/>
<path d="M84.0894 153.544L80.6484 153.875L80.9792 157.316L84.4201 156.985L84.0894 153.544Z" stroke="#263238" stroke-linecap="round" stroke-linejoin="round"/>
<path d="M58.6251 146.785C58.6417 146.956 58.6073 147.128 58.5261 147.28C58.4449 147.431 58.3207 147.555 58.169 147.636C58.0174 147.717 57.8452 147.751 57.6741 147.734C57.5031 147.717 57.3409 147.65 57.2081 147.541C57.0753 147.432 56.9779 147.286 56.928 147.121C56.8782 146.957 56.8782 146.781 56.9281 146.617C56.9779 146.452 57.0755 146.306 57.2083 146.197C57.3411 146.088 57.5033 146.021 57.6743 146.004C57.7881 145.993 57.9029 146.004 58.0123 146.037C58.1216 146.071 58.2234 146.125 58.3117 146.198C58.4 146.27 58.4731 146.359 58.5269 146.46C58.5807 146.561 58.6141 146.671 58.6251 146.785Z" fill="#263238"/>
<path d="M62.4531 163.036L104.756 158.975" stroke="#263238" stroke-width="2" stroke-linecap="round" stroke-linejoin="round"/>
<path d="M62.7266 165.861L105.03 161.793" stroke="#263238" stroke-width="2" stroke-linecap="round" stroke-linejoin="round"/>
<path d="M63.0469 169.156L99.1291 165.686" stroke="#263238" stroke-width="2" stroke-linecap="round" stroke-linejoin="round"/>
<path d="M66.9604 171.798L63.5195 172.129L63.8502 175.57L67.2912 175.239L66.9604 171.798Z" stroke="#263238" stroke-linecap="round" stroke-linejoin="round"/>
<path d="M73.1987 171.199L69.7578 171.529L70.0885 174.97L73.5295 174.64L73.1987 171.199Z" stroke="#263238" stroke-linecap="round" stroke-linejoin="round"/>
<path d="M79.4331 170.603L75.9922 170.934L76.3229 174.375L79.7638 174.044L79.4331 170.603Z" stroke="#263238" stroke-linecap="round" stroke-linejoin="round"/>
<path d="M85.6714 170.003L82.2305 170.334L82.5612 173.775L86.0021 173.444L85.6714 170.003Z" stroke="#263238" stroke-linecap="round" stroke-linejoin="round"/>
<path d="M60.2019 163.253C60.2174 163.423 60.182 163.594 60.1005 163.744C60.0189 163.893 59.8948 164.016 59.7438 164.095C59.5927 164.174 59.4216 164.207 59.2519 164.189C59.0823 164.171 58.9218 164.103 58.7908 163.994C58.6598 163.885 58.5641 163.739 58.5158 163.575C58.4675 163.412 58.4688 163.238 58.5195 163.075C58.5702 162.912 58.6681 162.768 58.8007 162.661C58.9334 162.553 59.0949 162.488 59.2647 162.472C59.3776 162.462 59.4913 162.474 59.5995 162.508C59.7076 162.541 59.8081 162.596 59.8951 162.669C59.9822 162.741 60.054 162.83 60.1067 162.93C60.1593 163.031 60.1917 163.14 60.2019 163.253Z" fill="#263238"/>
<path d="M64.0859 179.98L106.389 175.912" stroke="#263238" stroke-width="2" stroke-linecap="round" stroke-linejoin="round"/>
<path d="M64.3555 182.799L106.659 178.738" stroke="#263238" stroke-width="2" stroke-linecap="round" stroke-linejoin="round"/>
<path d="M64.668 186.092L100.75 182.629" stroke="#263238" stroke-width="2" stroke-linecap="round" stroke-linejoin="round"/>
<path d="M68.5894 188.74L65.1484 189.07L65.4792 192.511L68.9201 192.181L68.5894 188.74Z" stroke="#263238" stroke-linecap="round" stroke-linejoin="round"/>
<path d="M74.8315 188.146L71.3906 188.477L71.7213 191.917L75.1623 191.587L74.8315 188.146Z" stroke="#263238" stroke-linecap="round" stroke-linejoin="round"/>
<path d="M81.062 187.538L77.6211 187.869L77.9518 191.31L81.3927 190.979L81.062 187.538Z" stroke="#263238" stroke-linecap="round" stroke-linejoin="round"/>
<path d="M87.2964 186.939L83.8555 187.27L84.1862 190.71L87.6271 190.38L87.2964 186.939Z" stroke="#263238" stroke-linecap="round" stroke-linejoin="round"/>
<path d="M61.8314 180.191C61.8495 180.362 61.8163 180.535 61.7358 180.688C61.6554 180.84 61.5314 180.965 61.3796 181.047C61.2278 181.129 61.0551 181.164 60.8835 181.147C60.7119 181.131 60.549 181.064 60.4157 180.954C60.2824 180.845 60.1846 180.698 60.1347 180.533C60.0849 180.368 60.0853 180.192 60.1359 180.027C60.1865 179.862 60.2849 179.716 60.4187 179.607C60.5526 179.499 60.7157 179.432 60.8874 179.416C61.0003 179.405 61.1142 179.416 61.2227 179.449C61.3313 179.482 61.4323 179.536 61.52 179.608C61.6076 179.68 61.6803 179.768 61.7337 179.868C61.7872 179.968 61.8204 180.078 61.8314 180.191Z" fill="#263238"/>
<path d="M61.7148 140.45L62.2717 141.149L63.793 138.867" stroke="#263238" stroke-width="2" stroke-linecap="round" stroke-linejoin="round"/>
<path d="M75.75 155.512L76.3069 156.212L77.8214 153.93" stroke="#263238" stroke-width="2" stroke-linecap="round" stroke-linejoin="round"/>
<path d="M71.1289 172.924L71.6858 173.624L73.207 171.342" stroke="#263238" stroke-width="2" stroke-linecap="round" stroke-linejoin="round"/>
<path d="M85.1367 188.537L85.6936 189.237L87.2149 186.955" stroke="#263238" stroke-width="2" stroke-linecap="round" stroke-linejoin="round"/>
<path d="M175.611 76.8555H140.52C139.281 76.8555 138.092 77.3477 137.216 78.224C136.34 79.1002 135.848 80.2887 135.848 81.5279V111.688C135.848 112.927 136.34 114.116 137.216 114.992C138.092 115.868 139.281 116.361 140.52 116.361H156.072L164.982 127.098L162.748 116.361H175.611C176.846 116.355 178.03 115.86 178.902 114.985C179.773 114.109 180.263 112.924 180.263 111.688V81.5279C180.263 80.2922 179.773 79.1068 178.902 78.2312C178.03 77.3555 176.846 76.8609 175.611 76.8555Z" fill="white" stroke="#263238" stroke-linecap="round" stroke-linejoin="round"/>
<path d="M160.872 93.3997V90.2078L158.481 90.0041C158.339 89.5058 158.14 89.0251 157.891 88.5711L159.432 86.7374L157.171 84.4827L155.337 86.0244C154.885 85.7704 154.404 85.572 153.904 85.4335L153.7 83.043H150.508L150.305 85.4335C149.805 85.572 149.324 85.7704 148.872 86.0244L147.038 84.4827L144.777 86.7374L146.305 88.5983C146.051 89.0515 145.851 89.5323 145.707 90.0312L143.316 90.235V93.4269L145.707 93.6374C145.851 94.1363 146.051 94.6171 146.305 95.0704L144.756 96.904L147.018 99.1587L148.851 97.6171C149.303 97.871 149.785 98.0694 150.284 98.208L150.488 100.598H153.68L153.884 98.208C154.383 98.0694 154.865 97.871 155.317 97.6171L157.15 99.1587L159.412 96.904L157.87 95.0704C158.12 94.6163 158.318 94.1357 158.461 93.6374L160.872 93.3997ZM152.104 95.5186C151.37 95.5199 150.651 95.3034 150.039 94.8963C149.428 94.4892 148.951 93.9099 148.668 93.2316C148.386 92.5534 148.311 91.8066 148.453 91.0857C148.595 90.3648 148.947 89.7022 149.466 89.1818C149.985 88.6613 150.646 88.3063 151.366 88.1616C152.087 88.017 152.834 88.0892 153.513 88.3691C154.192 88.649 154.773 89.1241 155.183 89.7343C155.592 90.3444 155.811 91.0622 155.812 91.797C155.814 92.2842 155.72 92.7669 155.535 93.2175C155.349 93.6682 155.077 94.0778 154.733 94.4229C154.389 94.7681 153.981 95.0419 153.531 95.2288C153.081 95.4156 152.598 95.5118 152.111 95.5118L152.104 95.5186Z" fill="#FEA800"/>
<path d="M171.433 100.523V98.2546L169.728 98.1052C169.629 97.75 169.488 97.4079 169.307 97.0865L170.407 95.7825L168.804 94.1798L167.494 95.2732C167.171 95.0953 166.829 94.9541 166.475 94.8521L166.332 93.1543H164.057L163.915 94.8521C163.558 94.9541 163.214 95.0953 162.889 95.2732L161.585 94.1798L159.983 95.7825L161.076 97.0865C160.897 97.4082 160.758 97.7502 160.662 98.1052L158.957 98.2546V100.523L160.662 100.672C160.758 101.027 160.897 101.369 161.076 101.691L159.983 102.995L161.585 104.604L162.889 103.504C163.212 103.688 163.556 103.829 163.915 103.925L164.057 105.63H166.332L166.475 103.925C166.831 103.829 167.174 103.688 167.494 103.504L168.804 104.604L170.407 102.995L169.307 101.691C169.49 101.371 169.632 101.028 169.728 100.672L171.433 100.523ZM165.191 102.031C164.669 102.031 164.158 101.876 163.724 101.585C163.289 101.295 162.951 100.882 162.751 100.4C162.551 99.917 162.498 99.3858 162.6 98.8733C162.702 98.3609 162.954 97.8901 163.323 97.5207C163.693 97.1512 164.164 96.8996 164.676 96.7977C165.189 96.6957 165.72 96.748 166.202 96.948C166.685 97.1479 167.098 97.4866 167.388 97.921C167.678 98.3554 167.833 98.8662 167.833 99.3887C167.833 100.089 167.555 100.761 167.059 101.257C166.564 101.752 165.892 102.031 165.191 102.031Z" fill="#FEA800"/>
<path d="M160.322 105.813V104.217L159.106 104.109C159.036 103.855 158.936 103.611 158.807 103.382L159.588 102.458L158.447 101.311L157.517 102.092C157.287 101.968 157.046 101.868 156.797 101.793L156.688 100.584H155.072L154.97 101.793C154.717 101.865 154.474 101.966 154.243 102.092L153.313 101.311L152.172 102.458L152.953 103.382C152.827 103.612 152.727 103.856 152.654 104.109L151.445 104.217V105.827L152.654 105.936C152.727 106.188 152.827 106.432 152.953 106.662L152.172 107.613L153.313 108.761L154.243 107.98C154.475 108.103 154.719 108.203 154.97 108.279L155.072 109.487H156.688L156.797 108.279C157.046 108.203 157.287 108.103 157.517 107.98L158.447 108.761L159.588 107.613L158.807 106.689C158.936 106.46 159.036 106.216 159.106 105.963L160.322 105.813ZM155.88 106.886C155.508 106.886 155.144 106.776 154.835 106.569C154.526 106.363 154.284 106.069 154.142 105.725C154 105.381 153.962 105.003 154.035 104.638C154.108 104.273 154.287 103.938 154.55 103.675C154.813 103.412 155.148 103.233 155.513 103.16C155.878 103.087 156.256 103.125 156.6 103.267C156.944 103.41 157.237 103.651 157.444 103.96C157.651 104.269 157.761 104.633 157.761 105.005C157.759 105.503 157.56 105.98 157.208 106.331C156.855 106.682 156.378 106.88 155.88 106.88V106.886Z" fill="#FEA800"/>
<path d="M157.125 192.756L184.48 293.661H188.569L161.22 192.756H157.125Z" fill="#757575" stroke="#263238" stroke-linecap="round" stroke-linejoin="round"/>
<path d="M218.734 265.057H166.883V269.281H218.734V265.057Z" fill="#999999" stroke="#263238" stroke-linecap="round" stroke-linejoin="round"/>
<path d="M246.396 170.093L212.894 293.695H208.819L242.314 170.093C243.55 165.537 240.718 161.828 235.998 161.828H207.135C202.422 161.828 197.573 165.537 196.337 170.093L162.829 293.695H158.754L192.255 170.093C194.082 163.35 201.227 157.869 208.208 157.869H237.078C244.039 157.869 248.223 163.343 246.396 170.093Z" fill="#757575" stroke="#263238" stroke-linecap="round" stroke-linejoin="round"/>
<path d="M246.927 170.128L238.614 200.811C238.214 202.103 237.422 203.239 236.35 204.062C235.277 204.885 233.975 205.356 232.624 205.409H185.194C184.622 205.454 184.048 205.355 183.524 205.121C183 204.887 182.543 204.526 182.195 204.07C181.846 203.614 181.617 203.079 181.529 202.512C181.441 201.945 181.496 201.365 181.689 200.825L190.009 170.142C190.412 168.853 191.205 167.721 192.277 166.9C193.349 166.08 194.649 165.611 195.999 165.558H243.422C243.875 165.525 244.329 165.582 244.759 165.726C245.189 165.869 245.587 166.096 245.929 166.393C246.272 166.69 246.552 167.051 246.755 167.457C246.957 167.863 247.078 168.304 247.11 168.756C247.141 169.221 247.079 169.688 246.927 170.128Z" fill="#FEA800"/>
<mask id="mask2_4454_18409" style="mask-type:luminance" maskUnits="userSpaceOnUse" x="181" y="165" width="67" height="41">
<path d="M246.927 170.128L238.614 200.811C238.214 202.103 237.422 203.239 236.35 204.062C235.277 204.885 233.975 205.356 232.624 205.409H185.194C184.622 205.454 184.048 205.355 183.524 205.121C183 204.887 182.543 204.526 182.195 204.07C181.846 203.614 181.617 203.079 181.529 202.512C181.441 201.945 181.496 201.365 181.689 200.825L190.009 170.142C190.412 168.853 191.205 167.721 192.277 166.9C193.349 166.08 194.649 165.611 195.999 165.558H243.422C243.875 165.525 244.329 165.582 244.759 165.726C245.189 165.869 245.587 166.096 245.929 166.393C246.272 166.69 246.552 167.051 246.755 167.457C246.957 167.863 247.078 168.304 247.11 168.756C247.141 169.221 247.079 169.688 246.927 170.128Z" fill="white"/>
</mask>
<g mask="url(#mask2_4454_18409)">
<path opacity="0.2" d="M246.927 170.129L238.614 200.812C238.214 202.104 237.422 203.24 236.35 204.063C235.277 204.886 233.975 205.357 232.624 205.41H185.194C184.622 205.455 184.048 205.356 183.524 205.122C183 204.888 182.543 204.527 182.195 204.071C181.846 203.615 181.617 203.08 181.529 202.513C181.441 201.946 181.496 201.366 181.689 200.826L190.009 170.143C190.412 168.854 191.205 167.722 192.277 166.901C193.349 166.081 194.649 165.612 195.999 165.559H220.522C231.123 176.425 229.772 196.452 229.079 202.497C230.185 202.23 231.204 201.682 232.037 200.906C232.87 200.131 233.488 199.153 233.833 198.069L242.132 167.379C242.301 166.785 242.336 166.161 242.234 165.552H243.422C243.992 165.511 244.564 165.612 245.085 165.847C245.606 166.081 246.061 166.442 246.409 166.896C246.756 167.35 246.985 167.883 247.076 168.447C247.166 169.011 247.115 169.589 246.927 170.129Z" fill="black" fill-opacity="0.7"/>
</g>
<path d="M246.927 170.128L238.614 200.811C238.214 202.103 237.422 203.239 236.35 204.062C235.277 204.885 233.975 205.356 232.624 205.409H185.194C184.622 205.454 184.048 205.355 183.524 205.121C183 204.887 182.543 204.526 182.195 204.07C181.846 203.614 181.617 203.079 181.529 202.512C181.441 201.945 181.496 201.365 181.689 200.825L190.009 170.142C190.412 168.853 191.205 167.721 192.277 166.9C193.349 166.08 194.649 165.611 195.999 165.558H243.422C243.875 165.525 244.329 165.582 244.759 165.726C245.189 165.869 245.587 166.096 245.929 166.393C246.272 166.69 246.552 167.051 246.755 167.457C246.957 167.863 247.078 168.304 247.11 168.756C247.141 169.221 247.079 169.688 246.927 170.128Z" stroke="#263238" stroke-linecap="round" stroke-linejoin="round"/>
<path d="M219.039 236.451L234.55 293.661H238.639L223.134 236.451H219.039Z" fill="#757575" stroke="#263238" stroke-linecap="round" stroke-linejoin="round"/>
<path d="M223.149 229.858V235.454H162.082V229.858C162.082 228.766 162.516 227.719 163.287 226.948C164.059 226.176 165.106 225.742 166.198 225.742H219.027C219.568 225.74 220.105 225.846 220.605 226.052C221.106 226.258 221.561 226.561 221.944 226.943C222.327 227.326 222.63 227.78 222.837 228.28C223.044 228.78 223.15 229.316 223.149 229.858Z" fill="#FEA800"/>
<mask id="mask3_4454_18409" style="mask-type:luminance" maskUnits="userSpaceOnUse" x="162" y="225" width="62" height="11">
<path d="M223.149 229.858V235.454H162.082V229.858C162.082 228.766 162.516 227.719 163.287 226.948C164.059 226.176 165.106 225.742 166.198 225.742H219.027C219.568 225.74 220.105 225.846 220.605 226.052C221.106 226.258 221.561 226.561 221.944 226.943C222.327 227.326 222.63 227.78 222.837 228.28C223.044 228.78 223.15 229.316 223.149 229.858Z" fill="white"/>
</mask>
<g mask="url(#mask3_4454_18409)">
<path opacity="0.2" d="M223.007 228.805C221.031 231.128 217.486 233.491 211.387 235.481H162.082V229.858C162.082 228.766 162.516 227.719 163.287 226.948C164.059 226.176 165.106 225.742 166.198 225.742H219.027C219.935 225.743 220.818 226.044 221.537 226.598C222.257 227.152 222.773 227.927 223.007 228.805Z" fill="black" fill-opacity="0.7"/>
</g>
<path d="M223.149 229.858V235.454H162.082V229.858C162.082 228.766 162.516 227.719 163.287 226.948C164.059 226.176 165.106 225.742 166.198 225.742H219.027C219.568 225.74 220.105 225.846 220.605 226.052C221.106 226.258 221.561 226.561 221.944 226.943C222.327 227.326 222.63 227.78 222.837 228.28C223.044 228.78 223.15 229.316 223.149 229.858Z" stroke="#263238" stroke-linecap="round" stroke-linejoin="round"/>
<path d="M225.221 233.762H160.54C159.899 233.762 159.379 234.282 159.379 234.923V237.85C159.379 238.491 159.899 239.011 160.54 239.011H225.221C225.862 239.011 226.382 238.491 226.382 237.85V234.923C226.382 234.282 225.862 233.762 225.221 233.762Z" fill="#999999" stroke="#263238" stroke-linecap="round" stroke-linejoin="round"/>
<path d="M160.1 233.933C157.173 236.915 171.36 283.761 171.36 283.761C169.812 285.119 167.53 285.744 165.37 286.029C163.385 286.276 161.379 286.306 159.387 286.118C159.387 286.118 139.054 236.799 144.65 224.561C150.246 212.323 184.97 206.768 184.97 206.768L186.451 203.101L204.414 200.574L207.382 222.571C207.382 222.571 204.434 222.856 199.999 223.427C188.108 224.935 165.479 228.5 160.1 233.933Z" fill="#263238"/>
<mask id="mask4_4454_18409" style="mask-type:luminance" maskUnits="userSpaceOnUse" x="143" y="200" width="65" height="87">
<path d="M160.1 233.933C157.173 236.915 171.36 283.761 171.36 283.761C169.812 285.119 167.53 285.744 165.37 286.029C163.385 286.276 161.379 286.306 159.387 286.118C159.387 286.118 139.054 236.799 144.65 224.561C150.246 212.323 184.97 206.768 184.97 206.768L186.451 203.101L204.414 200.574L207.382 222.571C207.382 222.571 204.434 222.856 199.999 223.427C188.108 224.935 165.479 228.5 160.1 233.933Z" fill="white"/>
</mask>
<g mask="url(#mask4_4454_18409)">
<path opacity="0.3" d="M171.361 283.788C169.813 285.146 167.531 285.771 165.371 286.056C161.426 271.387 151.381 232.241 155.185 227.454C159.877 221.545 183.104 216.173 183.104 216.173C183.199 213.158 191.341 210.441 191.341 210.441L199.994 223.406C188.102 224.934 165.473 228.499 160.095 233.933C157.174 236.941 171.361 283.788 171.361 283.788Z" fill="black"/>
</g>
<path d="M160.1 233.933C157.173 236.915 171.36 283.761 171.36 283.761C169.812 285.119 167.53 285.744 165.37 286.029C163.385 286.276 161.379 286.306 159.387 286.118C159.387 286.118 139.054 236.799 144.65 224.561C150.246 212.323 184.97 206.768 184.97 206.768L186.451 203.101L204.414 200.574L207.382 222.571C207.382 222.571 204.434 222.856 199.999 223.427C188.108 224.935 165.479 228.5 160.1 233.933Z" stroke="#263238" stroke-linecap="round" stroke-linejoin="round"/>
<path d="M150.049 189.592C147.067 189.083 168.29 170.475 168.29 170.475L178.525 177.361C178.525 177.361 161.112 189.626 158.375 189.959C155.638 190.292 150.049 189.592 150.049 189.592Z" fill="white"/>
<mask id="mask5_4454_18409" style="mask-type:luminance" maskUnits="userSpaceOnUse" x="149" y="170" width="30" height="21">
<path d="M150.049 189.592C147.067 189.083 168.29 170.475 168.29 170.475L178.525 177.361C178.525 177.361 161.112 189.626 158.375 189.959C155.638 190.292 150.049 189.592 150.049 189.592Z" fill="white"/>
</mask>
<g mask="url(#mask5_4454_18409)">
<path opacity="0.2" d="M150.049 189.592C147.067 189.083 168.29 170.475 168.29 170.475L178.525 177.361C178.525 177.361 161.112 189.626 158.375 189.959C155.638 190.292 150.049 189.592 150.049 189.592Z" fill="black" fill-opacity="0.7"/>
</g>
<path d="M150.049 189.592C147.067 189.083 168.29 170.475 168.29 170.475L178.525 177.361C178.525 177.361 161.112 189.626 158.375 189.959C155.638 190.292 150.049 189.592 150.049 189.592Z" stroke="#263238" stroke-linecap="round" stroke-linejoin="round"/>
<path d="M153.777 181.768C153.777 181.768 158.226 182.875 159.591 183.805C160.956 184.735 160.562 188.097 160.562 188.097C160.562 188.097 154.633 186.426 153.777 181.768Z" fill="white" stroke="#263238" stroke-linecap="round" stroke-linejoin="round"/>
<path d="M150.938 173.246L159.209 189.11H160.187L152.33 172.465L150.938 173.246Z" fill="#263238"/>
<path d="M158.394 184.716C158.394 184.716 153.178 181.008 151.901 181.008C150.624 181.008 146.801 185.524 146.801 187.799C146.801 190.074 155.141 191.317 156.77 189.395C157.585 188.438 155.969 186.128 155.969 186.128C156.94 187.162 157.981 188.126 159.086 189.015C159.765 189.395 161.063 188.899 161.063 188.899C161.063 188.899 159.324 186.115 158.394 184.716Z" fill="white" stroke="#263238" stroke-linecap="round" stroke-linejoin="round"/>
<path d="M155.97 189.918C154.768 188.392 153.292 187.102 151.617 186.115" stroke="#263238" stroke-linecap="round" stroke-linejoin="round"/>
<path d="M155.971 186.115C155.971 186.115 154.165 184.54 152.949 184.193" stroke="#263238" stroke-linecap="round" stroke-linejoin="round"/>
<path d="M150.285 188.117C151.548 188.764 152.766 189.495 153.932 190.304" stroke="#263238" stroke-linecap="round" stroke-linejoin="round"/>
<path d="M174.937 162.338C172.268 164.199 160.281 176.525 160.281 176.525C160.281 176.525 165.898 182.916 170.821 183.839L184.166 177.36L174.937 162.338Z" fill="#FEA800" stroke="#263238" stroke-linecap="round" stroke-linejoin="round"/>
<path opacity="0.4" d="M174.937 162.338C172.268 164.199 160.281 176.525 160.281 176.525C160.281 176.525 165.898 182.916 170.821 183.839L184.166 177.36L174.937 162.338Z" fill="white" stroke="#263238" stroke-linecap="round" stroke-linejoin="round"/>
<path d="M168.493 278.816L174.151 293.696C174.151 293.696 175.088 297.52 158.028 296.311L148.629 295.509L168.493 278.816Z" fill="#FEA800"/>
<mask id="mask6_4454_18409" style="mask-type:luminance" maskUnits="userSpaceOnUse" x="148" y="278" width="27" height="19">
<path d="M168.493 278.816L174.151 293.696C174.151 293.696 175.088 297.52 158.028 296.311L148.629 295.509L168.493 278.816Z" fill="white"/>
</mask>
<g mask="url(#mask6_4454_18409)">
<path opacity="0.3" d="M168.493 278.816L174.151 293.696C174.151 293.696 175.088 297.52 158.028 296.311L148.629 295.509L168.493 278.816Z" fill="black"/>
</g>
<path d="M168.493 278.816L174.151 293.696C174.151 293.696 175.088 297.52 158.028 296.311L148.629 295.509L168.493 278.816Z" stroke="#263238" stroke-linecap="round" stroke-linejoin="round"/>
<path d="M166.348 285.933C166.348 285.933 167.557 291.712 166.348 296.011C166.348 296.011 148.344 298.829 144.317 297.756C140.29 296.683 137.845 294.673 137.723 293.682C137.723 293.682 137.865 290.924 141.899 290.116C145.933 289.308 153.954 288.758 157.125 284.208C160.297 279.658 166.348 285.933 166.348 285.933Z" fill="#FEA800" stroke="#263238" stroke-linecap="round" stroke-linejoin="round"/>
<path d="M190.101 202.502C195.854 194.299 222.299 204.173 222.299 204.173C222.299 204.173 224.818 223.922 214.285 229.192C203.752 234.462 188.566 234.177 184.464 238.449L167.771 287.74C167.771 287.74 161.775 290.246 153.055 286.3C153.055 286.3 163.656 249.077 166.766 235.861C169.843 222.781 189.762 213.905 189.762 213.905C188.735 212.692 187.957 211.289 187.473 209.776" fill="#263238"/>
<path d="M190.101 202.502C195.854 194.299 222.299 204.173 222.299 204.173C222.299 204.173 224.818 223.922 214.285 229.192C203.752 234.462 188.566 234.177 184.464 238.449L167.771 287.74C167.771 287.74 161.775 290.246 153.055 286.3C153.055 286.3 163.656 249.077 166.766 235.861C169.843 222.781 189.762 213.905 189.762 213.905C188.735 212.692 187.957 211.289 187.473 209.776" stroke="#263238" stroke-linecap="round" stroke-linejoin="round"/>
<path d="M216.874 221.383C216.03 222.131 215.144 222.829 214.219 223.475" stroke="white" stroke-linecap="round" stroke-linejoin="round"/>
<path d="M219.039 204.654C221.198 209.34 221.368 215.289 218.359 219.629" stroke="white" stroke-linecap="round" stroke-linejoin="round"/>
<path d="M213.016 205.408C213.016 205.408 212.466 209.021 214.076 210.454C215.685 211.887 220.623 212.614 220.623 212.614" stroke="white" stroke-linecap="round" stroke-linejoin="round"/>
<path d="M191.337 205.572C191.337 205.572 191.561 209.172 190.101 209.002C188.641 208.832 188.566 210.442 188.566 210.442" stroke="white" stroke-linecap="round" stroke-linejoin="round"/>
<path d="M175.291 165.109C175.068 164.202 174.95 163.272 174.938 162.338C174.938 162.338 183.087 155.465 193.58 155.506C206.076 155.547 213.716 159.479 216.772 164.939C221.621 173.578 222.3 204.173 222.3 204.173C222.3 204.173 190.945 209.008 186.449 203.079C185.668 202.047 186.265 194.76 186.265 194.76C186.265 194.76 182.754 185.551 182.014 178.406C180.982 176.984 180.024 175.511 179.141 173.992C178.025 172.122 177.057 170.167 176.248 168.145" fill="#FEA800"/>
<path d="M175.291 165.109C175.068 164.202 174.95 163.272 174.938 162.338C174.938 162.338 183.087 155.465 193.58 155.506C206.076 155.547 213.716 159.479 216.772 164.939C221.621 173.578 222.3 204.173 222.3 204.173C222.3 204.173 190.945 209.008 186.449 203.079C185.668 202.047 186.265 194.76 186.265 194.76C186.265 194.76 182.754 185.551 182.014 178.406C180.982 176.984 180.024 175.511 179.141 173.992C178.025 172.122 177.057 170.167 176.248 168.145" stroke="#263238" stroke-linecap="round" stroke-linejoin="round"/>
<g opacity="0.6">
<path d="M175.291 165.109C175.068 164.202 174.95 163.272 174.938 162.338C174.938 162.338 183.087 155.465 193.58 155.506C206.076 155.547 213.716 159.479 216.772 164.939C221.621 173.578 222.3 204.173 222.3 204.173C222.3 204.173 190.945 209.008 186.449 203.079C185.668 202.047 186.265 194.76 186.265 194.76C186.265 194.76 182.754 185.551 182.014 178.406C180.982 176.984 180.024 175.511 179.141 173.992C178.025 172.122 177.057 170.167 176.248 168.145" fill="white"/>
<path d="M175.291 165.109C175.068 164.202 174.95 163.272 174.938 162.338C174.938 162.338 183.087 155.465 193.58 155.506C206.076 155.547 213.716 159.479 216.772 164.939C221.621 173.578 222.3 204.173 222.3 204.173C222.3 204.173 190.945 209.008 186.449 203.079C185.668 202.047 186.265 194.76 186.265 194.76C186.265 194.76 182.754 185.551 182.014 178.406C180.982 176.984 180.024 175.511 179.141 173.992C178.025 172.122 177.057 170.167 176.248 168.145" stroke="#263238" stroke-linecap="round" stroke-linejoin="round"/>
</g>
<path d="M187.297 172.465C187.297 172.465 192.085 191.039 191.372 195.127C191.201 196.538 191.437 197.968 192.051 199.25C191.425 199.908 191.023 200.746 190.901 201.646C190.779 202.546 190.944 203.461 191.372 204.262" stroke="#263238" stroke-linecap="round" stroke-linejoin="round"/>
<path d="M199.995 187.832C199.14 187.8 198.31 187.537 197.591 187.071L196.172 180.851C198.988 181.107 201.827 180.907 204.58 180.26L206.101 187.051C205.245 187.29 204.377 187.478 203.5 187.615" stroke="#263238" stroke-linecap="round" stroke-linejoin="round"/>
<path d="M183.894 174.882C183.894 174.882 179.819 157.523 190.102 155.506C200.384 153.489 202.496 158.291 201.891 161.544C201.083 165.884 192.56 176.526 192.56 176.526L187.297 172.451L183.894 174.882Z" fill="#FEA800" stroke="#263238" stroke-linecap="round" stroke-linejoin="round"/>
<path opacity="0.4" d="M183.894 174.882C183.894 174.882 179.819 157.523 190.102 155.506C200.384 153.489 202.496 158.291 201.891 161.544C201.083 165.884 192.56 176.526 192.56 176.526L187.297 172.451L183.894 174.882Z" fill="white" stroke="#263238" stroke-linecap="round" stroke-linejoin="round"/>
<path d="M170.406 228.5C170.406 228.5 177.048 220.832 192.043 215.039C192.043 215.039 188.159 213.851 187.289 212.234" stroke="white" stroke-linecap="round" stroke-linejoin="round"/>
<path d="M162.599 251.963L156.527 274.007" stroke="white" stroke-linecap="round" stroke-linejoin="round"/>
<path d="M209.512 188.43C209.512 188.43 212.228 193.014 223.414 192.593C221.332 190.364 218.699 188.725 215.78 187.839C211.21 186.617 209.512 188.43 209.512 188.43Z" fill="#FEA800" stroke="#263238" stroke-linecap="round" stroke-linejoin="round"/>
<path d="M166.117 190.272C166.117 190.272 168.711 186.251 171.088 185.443C173.465 184.635 180.447 184.567 181.527 184.54C182.606 184.513 201.792 189.389 210.797 192.39L210.009 177.361L222.112 178.319C222.112 178.319 221.623 196.655 219.741 201.511C217.86 206.367 215.164 205.185 210.566 203.202C192.481 195.413 181.887 189.986 180.902 190.299C179.917 190.611 166.117 190.272 166.117 190.272Z" fill="white" stroke="#263238" stroke-linecap="round" stroke-linejoin="round"/>
<path d="M206.984 168.627C206.667 169.873 206.566 171.164 206.685 172.444C207.221 177.143 209.51 188.431 209.51 188.431C209.51 188.431 220.79 190.04 223.412 192.594C223.412 192.594 225.273 177.653 221.483 170.067C217.693 162.481 213.775 161.646 213.775 161.646C211.296 161.034 209.021 163.343 207.765 166.311" fill="#FEA800"/>
<path d="M206.984 168.627C206.667 169.873 206.566 171.164 206.685 172.444C207.221 177.143 209.51 188.431 209.51 188.431C209.51 188.431 220.79 190.04 223.412 192.594C223.412 192.594 225.273 177.653 221.483 170.067C217.693 162.481 213.775 161.646 213.775 161.646C211.296 161.034 209.021 163.343 207.765 166.311" stroke="#263238" stroke-linecap="round" stroke-linejoin="round"/>
<g opacity="0.4">
<path d="M206.984 168.627C206.667 169.873 206.566 171.164 206.685 172.444C207.221 177.143 209.51 188.431 209.51 188.431C209.51 188.431 220.79 190.04 223.412 192.594C223.412 192.594 225.273 177.653 221.483 170.067C217.693 162.481 213.775 161.646 213.775 161.646C211.296 161.034 209.021 163.343 207.765 166.311" fill="white"/>
<path d="M206.984 168.627C206.667 169.873 206.566 171.164 206.685 172.444C207.221 177.143 209.51 188.431 209.51 188.431C209.51 188.431 220.79 190.04 223.412 192.594C223.412 192.594 225.273 177.653 221.483 170.067C217.693 162.481 213.775 161.646 213.775 161.646C211.296 161.034 209.021 163.343 207.765 166.311" stroke="#263238" stroke-linecap="round" stroke-linejoin="round"/>
</g>
<path d="M173.844 174.439C175.533 175.821 177.503 176.818 179.616 177.36" stroke="#263238" stroke-linecap="round" stroke-linejoin="round"/>
<path d="M209.512 174.439C209.512 174.439 213.586 182.141 218.734 183.839" stroke="#263238" stroke-linecap="round" stroke-linejoin="round"/>
<path d="M183.109 233.762C183.109 233.762 183.863 234.332 184.169 236.39" stroke="white" stroke-linecap="round" stroke-linejoin="round"/>
<path d="M180.316 236.391C180.973 236.462 181.607 236.669 182.179 236.999C182.75 237.328 183.247 237.774 183.637 238.306" stroke="white" stroke-linecap="round" stroke-linejoin="round"/>
<path d="M157.852 228.5C157.852 228.5 160.025 229.6 159.556 232.717" stroke="white" stroke-linecap="round" stroke-linejoin="round"/>
<path d="M155.562 231.148C155.562 231.148 158.53 232.907 158.741 234.483" stroke="white" stroke-linecap="round" stroke-linejoin="round"/>
<path d="M189.961 212.146C189.961 212.146 196.569 213.07 198.049 212.146" stroke="white" stroke-linecap="round" stroke-linejoin="round"/>
<path d="M187.297 171.716C186.726 170.099 186.495 168.381 186.618 166.671C186.645 166.09 186.706 165.512 186.801 164.939L185.653 163.119L184.18 160.776L185.884 153.984C185.884 153.984 196.75 156.076 197.565 159.105C198.38 162.134 187.297 171.716 187.297 171.716Z" fill="white"/>
<mask id="mask7_4454_18409" style="mask-type:luminance" maskUnits="userSpaceOnUse" x="184" y="153" width="14" height="19">
<path d="M187.297 171.716C186.726 170.099 186.495 168.381 186.618 166.671C186.645 166.09 186.706 165.512 186.801 164.939L185.653 163.119L184.18 160.776L185.884 153.984C185.884 153.984 196.75 156.076 197.565 159.105C198.38 162.134 187.297 171.716 187.297 171.716Z" fill="white"/>
</mask>
<g mask="url(#mask7_4454_18409)">
<path opacity="0.2" d="M186.605 166.698C186.632 166.118 186.693 165.54 186.788 164.967L185.641 163.146C187.709 162.826 189.593 161.77 190.945 160.172C191.002 161.578 190.613 162.967 189.833 164.139C189.054 165.311 187.924 166.207 186.605 166.698Z" fill="black" fill-opacity="0.7"/>
</g>
<path d="M187.297 171.716C186.726 170.099 186.495 168.381 186.618 166.671C186.645 166.09 186.706 165.512 186.801 164.939L185.653 163.119L184.18 160.776L185.884 153.984C185.884 153.984 196.75 156.076 197.565 159.105C198.38 162.134 187.297 171.716 187.297 171.716Z" stroke="#263238" stroke-linecap="round" stroke-linejoin="round"/>
<path d="M194.115 154.556C197.51 145.727 195.256 130.698 178.957 133.578C169.394 135.276 168.24 146.834 171.432 151.969C174.624 157.103 171.235 157.266 176.036 161.069C177.985 162.611 179.554 165.225 181.877 165.395C184.641 165.585 188.179 162.971 190.821 160.145" fill="white"/>
<path d="M194.115 154.556C197.51 145.727 195.256 130.698 178.957 133.578C169.394 135.276 168.24 146.834 171.432 151.969C174.624 157.103 171.235 157.266 176.036 161.069C177.985 162.611 179.554 165.225 181.877 165.395C184.641 165.585 188.179 162.971 190.821 160.145" stroke="#263238" stroke-linecap="round" stroke-linejoin="round"/>
<path d="M178.055 151.967C178.055 151.967 180.459 149.78 183.318 150.684" stroke="#263238" stroke-linecap="round" stroke-linejoin="round"/>
<path d="M173.551 151.969C173.228 151.401 172.779 150.916 172.239 150.551C171.698 150.186 171.08 149.951 170.434 149.863" stroke="#263238" stroke-linecap="round" stroke-linejoin="round"/>
<path d="M175.141 155.152C175.141 155.152 174.795 156.911 174.34 158.691C173.885 160.47 177.192 159.499 177.056 159.227" fill="white"/>
<path d="M175.141 155.152C175.141 155.152 174.795 156.911 174.34 158.691C173.885 160.47 177.192 159.499 177.056 159.227" stroke="#263238" stroke-linecap="round" stroke-linejoin="round"/>
<path d="M178.762 161.448C180.164 161.047 181.412 160.23 182.341 159.105" stroke="#263238" stroke-linecap="round" stroke-linejoin="round"/>
<path d="M181.402 154.201C181.45 154.287 181.481 154.381 181.493 154.479C181.505 154.576 181.497 154.675 181.47 154.77C181.444 154.865 181.399 154.953 181.338 155.03C181.278 155.108 181.202 155.172 181.116 155.22C180.942 155.315 180.738 155.338 180.547 155.283C180.356 155.229 180.195 155.101 180.098 154.928C180.036 154.823 180.003 154.704 180.003 154.582C179.954 154.496 179.923 154.402 179.912 154.304C179.9 154.207 179.907 154.108 179.934 154.013C179.96 153.919 180.005 153.83 180.066 153.753C180.127 153.676 180.202 153.611 180.288 153.563C180.462 153.468 180.667 153.445 180.857 153.5C181.048 153.555 181.209 153.682 181.307 153.855C181.369 153.96 181.402 154.08 181.402 154.201Z" fill="#263238"/>
<path d="M174.149 154.053C174.285 154.542 174.19 155.004 173.931 155.072C173.673 155.14 173.354 154.8 173.252 154.305C173.15 153.809 173.218 153.354 173.476 153.286C173.735 153.218 173.999 153.558 174.149 154.053Z" fill="#263238"/>
<path d="M184.065 142.874C184.065 142.874 181.538 149.482 175.29 149.333C175.29 149.333 177.457 147.683 178.054 146.107C178.054 146.107 173.246 150.861 168.445 148.443C163.643 146.025 166 134.779 173.368 130.338C180.737 125.896 188.275 127.085 190.829 131.329C190.829 131.329 195.99 130.854 198.265 138.44C200.303 145.231 197.043 155.527 193.858 155.642C188.92 155.825 187.929 150.467 187.929 150.467C185.891 148.394 184.541 145.742 184.065 142.874Z" fill="#263238" stroke="#263238" stroke-linecap="round" stroke-linejoin="round"/>
<path d="M189.478 154.589C189.478 154.589 189.321 148.354 192.873 149.108C196.425 149.862 193.851 157.068 191.182 156.993" fill="white"/>
<path d="M189.478 154.589C189.478 154.589 189.321 148.354 192.873 149.108C196.425 149.862 193.851 157.068 191.182 156.993" stroke="#263238" stroke-linecap="round" stroke-linejoin="round"/>
<path d="M178.51 189.592H123.752C123.14 189.592 122.645 190.087 122.645 190.699V192.607C122.645 193.219 123.14 193.714 123.752 193.714H178.51C179.121 193.714 179.617 193.219 179.617 192.607V190.699C179.617 190.087 179.121 189.592 178.51 189.592Z" fill="#FEA800" stroke="#263238" stroke-linecap="round" stroke-linejoin="round"/>
<path d="M225.927 252.947C220.064 256.777 215.144 261.885 211.536 267.888C205.553 277.871 200.812 291.916 208.174 293.695L215.176 293.43L228.65 288.805L227.237 286.089C227.237 286.089 215.441 292.337 213.424 292.337C211.407 292.337 208.779 292.839 207.672 292.031C206.565 291.223 211.55 273.07 222.219 267.019C232.888 260.968 225.927 252.947 225.927 252.947Z" fill="#FEA800"/>
<mask id="mask8_4454_18409" style="mask-type:luminance" maskUnits="userSpaceOnUse" x="204" y="252" width="25" height="42">
<path d="M225.927 252.947C220.064 256.777 215.144 261.885 211.536 267.888C205.553 277.871 200.812 291.916 208.174 293.695L215.176 293.43L228.65 288.805L227.237 286.089C227.237 286.089 215.441 292.337 213.424 292.337C211.407 292.337 208.779 292.839 207.672 292.031C206.565 291.223 211.55 273.07 222.219 267.019C232.888 260.968 225.927 252.947 225.927 252.947Z" fill="white"/>
</mask>
<g mask="url(#mask8_4454_18409)">
<path opacity="0.5" d="M225.927 252.947C220.064 256.777 215.144 261.885 211.536 267.888C205.553 277.871 200.812 291.916 208.174 293.695L215.176 293.43L228.65 288.805L227.237 286.089C227.237 286.089 215.441 292.337 213.424 292.337C211.407 292.337 208.779 292.839 207.672 292.031C206.565 291.223 211.55 273.07 222.219 267.019C232.888 260.968 225.927 252.947 225.927 252.947Z" fill="black" fill-opacity="0.7"/>
</g>
<path d="M225.927 252.947C220.064 256.777 215.144 261.885 211.536 267.888C205.553 277.871 200.812 291.916 208.174 293.695L215.176 293.43L228.65 288.805L227.237 286.089C227.237 286.089 215.441 292.337 213.424 292.337C211.407 292.337 208.779 292.839 207.672 292.031C206.565 291.223 211.55 273.07 222.219 267.019C232.888 260.968 225.927 252.947 225.927 252.947Z" stroke="#263238" stroke-linecap="round" stroke-linejoin="round"/>
<path d="M233.594 246.401C233.594 246.401 233.594 243.474 238.028 243.073C242.463 242.673 243.095 246.944 243.095 246.944H241.567C241.567 246.944 241.601 244.384 238.341 244.187C235.081 243.99 235.203 246.944 235.203 246.944L233.594 246.401Z" fill="#FEA800" stroke="#263238" stroke-linecap="round" stroke-linejoin="round"/>
<path d="M227.034 293.696C217.655 293.696 219.434 251.638 220.514 249.553C221.594 247.468 248.807 246.429 251.489 247.312C254.172 248.195 264.929 290.097 258.994 293.445L227.034 293.696Z" fill="#FEA800"/>
<mask id="mask9_4454_18409" style="mask-type:luminance" maskUnits="userSpaceOnUse" x="219" y="246" width="42" height="48">
<path d="M227.034 293.696C217.655 293.696 219.434 251.638 220.514 249.553C221.594 247.468 248.807 246.429 251.489 247.312C254.172 248.195 264.929 290.097 258.994 293.445L227.034 293.696Z" fill="white"/>
</mask>
<g mask="url(#mask9_4454_18409)">
<path opacity="0.2" d="M227.034 293.696C217.655 293.696 219.434 251.638 220.514 249.553C221.594 247.468 248.807 246.429 251.489 247.312C254.172 248.195 264.929 290.097 258.994 293.445L227.034 293.696Z" fill="black" fill-opacity="0.7"/>
</g>
<path d="M227.034 293.696C217.655 293.696 219.434 251.638 220.514 249.553C221.594 247.468 248.807 246.429 251.489 247.312C254.172 248.195 264.929 290.097 258.994 293.445L227.034 293.696Z" stroke="#263238" stroke-linecap="round" stroke-linejoin="round"/>
<path d="M220.516 249.506C223.911 250.232 225.867 263.998 230.438 267.503C235.008 271.007 256.557 270.253 258.995 267.503C261.433 264.752 256.666 249.309 253.202 246.945C249.739 244.582 247.273 246.877 237.528 245.798C223.083 244.188 220.516 249.506 220.516 249.506Z" fill="#FEA800" stroke="#263238" stroke-linecap="round" stroke-linejoin="round"/>
<path d="M245.248 257.417L249.241 260.677C249.295 260.723 249.34 260.78 249.373 260.843C249.406 260.907 249.425 260.976 249.431 261.048C249.437 261.119 249.428 261.191 249.406 261.259C249.384 261.327 249.349 261.39 249.302 261.444L246.192 264.799C246.092 264.898 245.958 264.953 245.818 264.953C245.678 264.953 245.544 264.898 245.445 264.799L241.472 261.098C241.375 260.998 241.32 260.864 241.32 260.724C241.32 260.585 241.375 260.451 241.472 260.351L244.548 257.492C244.635 257.396 244.755 257.335 244.884 257.321C245.013 257.308 245.142 257.342 245.248 257.417Z" fill="#FEA800"/>
<mask id="mask10_4454_18409" style="mask-type:luminance" maskUnits="userSpaceOnUse" x="241" y="257" width="9" height="8">
<path d="M245.248 257.417L249.241 260.677C249.295 260.723 249.34 260.78 249.373 260.843C249.406 260.907 249.425 260.976 249.431 261.048C249.437 261.119 249.428 261.191 249.406 261.259C249.384 261.327 249.349 261.39 249.302 261.444L246.192 264.799C246.092 264.898 245.958 264.953 245.818 264.953C245.678 264.953 245.544 264.898 245.445 264.799L241.472 261.098C241.375 260.998 241.32 260.864 241.32 260.724C241.32 260.585 241.375 260.451 241.472 260.351L244.548 257.492C244.635 257.396 244.755 257.335 244.884 257.321C245.013 257.308 245.142 257.342 245.248 257.417Z" fill="white"/>
</mask>
<g mask="url(#mask10_4454_18409)">
<path opacity="0.2" d="M245.248 257.417L249.241 260.677C249.295 260.723 249.34 260.78 249.373 260.843C249.406 260.907 249.425 260.976 249.431 261.048C249.437 261.119 249.428 261.191 249.406 261.259C249.384 261.327 249.349 261.39 249.302 261.444L246.192 264.799C246.092 264.898 245.958 264.953 245.818 264.953C245.678 264.953 245.544 264.898 245.445 264.799L241.472 261.098C241.375 260.998 241.32 260.864 241.32 260.724C241.32 260.585 241.375 260.451 241.472 260.351L244.548 257.492C244.635 257.396 244.755 257.335 244.884 257.321C245.013 257.308 245.142 257.342 245.248 257.417Z" fill="black" fill-opacity="0.7"/>
</g>
<path d="M245.248 257.417L249.241 260.677C249.295 260.723 249.34 260.78 249.373 260.843C249.406 260.907 249.425 260.976 249.431 261.048C249.437 261.119 249.428 261.191 249.406 261.259C249.384 261.327 249.349 261.39 249.302 261.444L246.192 264.799C246.092 264.898 245.958 264.953 245.818 264.953C245.678 264.953 245.544 264.898 245.445 264.799L241.472 261.098C241.375 260.998 241.32 260.864 241.32 260.724C241.32 260.585 241.375 260.451 241.472 260.351L244.548 257.492C244.635 257.396 244.755 257.335 244.884 257.321C245.013 257.308 245.142 257.342 245.248 257.417Z" stroke="#263238" stroke-linecap="round" stroke-linejoin="round"/>
<path d="M232.08 274.537C232.08 274.537 250.131 276.024 258.994 273.729C260.18 274.662 261.061 275.926 261.527 277.362C262.335 279.78 264.019 288.051 258.994 290.17C253.968 292.289 235.903 291.882 233.492 289.491C231.082 287.101 232.08 274.537 232.08 274.537Z" fill="#FEA800"/>
<mask id="mask11_4454_18409" style="mask-type:luminance" maskUnits="userSpaceOnUse" x="231" y="273" width="32" height="19">
<path d="M232.08 274.537C232.08 274.537 250.131 276.024 258.994 273.729C260.18 274.662 261.061 275.926 261.527 277.362C262.335 279.78 264.019 288.051 258.994 290.17C253.968 292.289 235.903 291.882 233.492 289.491C231.082 287.101 232.08 274.537 232.08 274.537Z" fill="white"/>
</mask>
<g mask="url(#mask11_4454_18409)">
<path opacity="0.4" d="M232.08 274.537C232.08 274.537 250.131 276.024 258.994 273.729C260.18 274.662 261.061 275.926 261.527 277.362C262.335 279.78 264.019 288.051 258.994 290.17C253.968 292.289 235.903 291.882 233.492 289.491C231.082 287.101 232.08 274.537 232.08 274.537Z" fill="black" fill-opacity="0.7"/>
</g>
<path d="M232.08 274.537C232.08 274.537 250.131 276.024 258.994 273.729C260.18 274.662 261.061 275.926 261.527 277.362C262.335 279.78 264.019 288.051 258.994 290.17C253.968 292.289 235.903 291.882 233.492 289.491C231.082 287.101 232.08 274.537 232.08 274.537Z" stroke="#263238" stroke-linecap="round" stroke-linejoin="round"/>
<path d="M232.078 274.537C232.078 274.537 234.197 280.248 235.304 281.124C236.411 282 259.861 282 262.469 279.881C265.077 277.763 261.505 273.932 258.999 273.729C258.992 273.729 242.564 275.644 232.078 274.537Z" fill="#FEA800" stroke="#263238" stroke-linecap="round" stroke-linejoin="round"/>
<path d="M224.514 273.322C224.514 273.322 225.119 285.323 226.327 288.046C225.43 288.514 224.433 288.759 223.421 288.759C222.409 288.759 221.411 288.514 220.514 288.046C217.458 286.429 217.961 276.093 218.565 276.12C219.169 276.147 224.514 273.322 224.514 273.322Z" fill="#FEA800"/>
<mask id="mask12_4454_18409" style="mask-type:luminance" maskUnits="userSpaceOnUse" x="218" y="273" width="9" height="16">
<path d="M224.514 273.322C224.514 273.322 225.119 285.323 226.327 288.046C225.43 288.514 224.433 288.759 223.421 288.759C222.409 288.759 221.411 288.514 220.514 288.046C217.458 286.429 217.961 276.093 218.565 276.12C219.169 276.147 224.514 273.322 224.514 273.322Z" fill="white"/>
</mask>
<g mask="url(#mask12_4454_18409)">
<path opacity="0.4" d="M224.514 273.322C224.514 273.322 225.119 285.323 226.327 288.046C225.43 288.514 224.433 288.759 223.421 288.759C222.409 288.759 221.411 288.514 220.514 288.046C217.458 286.429 217.961 276.093 218.565 276.12C219.169 276.147 224.514 273.322 224.514 273.322Z" fill="black" fill-opacity="0.7"/>
</g>
<path d="M224.514 273.322C224.514 273.322 225.119 285.323 226.327 288.046C225.43 288.514 224.433 288.759 223.421 288.759C222.409 288.759 221.411 288.514 220.514 288.046C217.458 286.429 217.961 276.093 218.565 276.12C219.169 276.147 224.514 273.322 224.514 273.322Z" stroke="#263238" stroke-linecap="round" stroke-linejoin="round"/>
<path d="M224.512 273.322L219.969 274.232C219.969 274.232 215.636 277.56 217.551 278.667C219.466 279.774 224.404 277.057 224.512 273.322Z" fill="#FEA800" stroke="#263238" stroke-linecap="round" stroke-linejoin="round"/>
</svg>
