<svg width="18" height="24" viewBox="0 0 18 24" fill="none" xmlns="http://www.w3.org/2000/svg">
<path d="M6.6 8.75977L5.25 11.9998H7.95L6.6 8.75977Z" fill="#FEA800"/>
<path fill-rule="evenodd" clip-rule="evenodd" d="M17.4016 6.6L11.4016 0H3.00156C2.36504 0 1.75459 0.252856 1.30451 0.702944C0.854419 1.15303 0.601563 1.76348 0.601562 2.4V21.6C0.601563 22.2365 0.854419 22.847 1.30451 23.2971C1.75459 23.7471 2.36504 24 3.00156 24H15.0016C15.6381 24 16.2485 23.7471 16.6986 23.2971C17.1487 22.847 17.4016 22.2365 17.4016 21.6V6.6ZM6.60156 6.6C6.71998 6.59999 6.83576 6.63502 6.93431 6.70069C7.03286 6.76635 7.10977 6.85971 7.15536 6.969L10.1554 14.169C10.2166 14.3159 10.217 14.4811 10.1565 14.6283C10.096 14.7754 9.97944 14.8925 9.83256 14.9538C9.68569 15.0151 9.52049 15.0155 9.37331 14.9549C9.22613 14.8944 9.10903 14.7779 9.04776 14.631L8.45136 13.2H4.75176L4.15536 14.631C4.0941 14.7779 3.97699 14.8944 3.82982 14.9549C3.68264 15.0155 3.51744 15.0151 3.37056 14.9538C3.22369 14.8925 3.10716 14.7754 3.04663 14.6283C2.98609 14.4811 2.9865 14.3159 3.04776 14.169L6.04776 6.969C6.09335 6.85971 6.17027 6.76635 6.26882 6.70069C6.36737 6.63502 6.48314 6.59999 6.60156 6.6ZM3.60156 16.8C3.44243 16.8 3.28982 16.8632 3.1773 16.9757C3.06478 17.0883 3.00156 17.2409 3.00156 17.4C3.00156 17.5591 3.06478 17.7117 3.1773 17.8243C3.28982 17.9368 3.44243 18 3.60156 18H14.4016C14.5607 18 14.7133 17.9368 14.8258 17.8243C14.9383 17.7117 15.0016 17.5591 15.0016 17.4C15.0016 17.2409 14.9383 17.0883 14.8258 16.9757C14.7133 16.8632 14.5607 16.8 14.4016 16.8H3.60156ZM3.00156 19.8C3.00156 19.6409 3.06478 19.4883 3.1773 19.3757C3.28982 19.2632 3.44243 19.2 3.60156 19.2H10.8016C10.9607 19.2 11.1133 19.2632 11.2258 19.3757C11.3383 19.4883 11.4016 19.6409 11.4016 19.8C11.4016 19.9591 11.3383 20.1117 11.2258 20.2243C11.1133 20.3368 10.9607 20.4 10.8016 20.4H3.60156C3.44243 20.4 3.28982 20.3368 3.1773 20.2243C3.06478 20.1117 3.00156 19.9591 3.00156 19.8ZM13.2016 10.8C13.2016 10.6409 13.1383 10.4883 13.0258 10.3757C12.9133 10.2632 12.7607 10.2 12.6016 10.2C12.4424 10.2 12.2898 10.2632 12.1773 10.3757C12.0648 10.4883 12.0016 10.6409 12.0016 10.8V12H10.8016C10.6424 12 10.4898 12.0632 10.3773 12.1757C10.2648 12.2883 10.2016 12.4409 10.2016 12.6C10.2016 12.7591 10.2648 12.9117 10.3773 13.0243C10.4898 13.1368 10.6424 13.2 10.8016 13.2H12.0016V14.4C12.0016 14.5591 12.0648 14.7117 12.1773 14.8243C12.2898 14.9368 12.4424 15 12.6016 15C12.7607 15 12.9133 14.9368 13.0258 14.8243C13.1383 14.7117 13.2016 14.5591 13.2016 14.4V13.2H14.4016C14.5607 13.2 14.7133 13.1368 14.8258 13.0243C14.9383 12.9117 15.0016 12.7591 15.0016 12.6C15.0016 12.4409 14.9383 12.2883 14.8258 12.1757C14.7133 12.0632 14.5607 12 14.4016 12H13.2016V10.8ZM11.4016 1.8L15.6016 6.6H12.0016C11.8424 6.6 11.6898 6.53679 11.5773 6.42426C11.4648 6.31174 11.4016 6.15913 11.4016 6V1.8Z" fill="#FEA800"/>
<path fill-rule="evenodd" clip-rule="evenodd" d="M10.1554 14.1684C10.1726 14.21 10.185 14.2524 10.1926 14.2944C10.2137 14.5195 10.1926 14.3555 10.1554 14.4972C9.53223 14.638 9.37056 14.624 9.33696 14.638C9.19037 14.6992 9.39222 14.6298 9.22019 14.638C9.15967 14.7849 8.98686 14.4831 9.04776 14.6298L8.45136 13.2H4.75176L4.15536 14.6304C4.09257 14.7749 3.97547 14.8889 3.82934 14.9478C3.68321 15.0067 3.51978 15.0057 3.37434 14.9452C3.2289 14.8846 3.11313 14.7692 3.05203 14.624C2.99093 14.4788 2.98939 14.3153 3.04776 14.169L3.64356 12.7386L6.04776 6.969C6.09334 6.85969 6.17024 6.7663 6.26879 6.70062C6.36734 6.63493 6.48313 6.59988 6.60156 6.59988C6.72 6.59988 6.83578 6.63493 6.93433 6.70062C7.03288 6.7663 7.10979 6.85969 7.15536 6.969L7.70916 8.2974V8.2986L9.05916 11.5386L10.1554 14.1684ZM10.1092 10.938L8.26296 6.5076C8.12624 6.17966 7.89552 5.89951 7.59987 5.70245C7.30422 5.50539 6.95687 5.40024 6.60156 5.40024C6.24626 5.40024 5.8989 5.50539 5.60325 5.70245C5.3076 5.89951 5.07688 6.17966 4.94016 6.5076L1.94016 13.7076C1.85397 13.9139 1.80697 14.1345 1.80156 14.358V2.4C1.80156 2.08174 1.92799 1.77652 2.15303 1.55147C2.37808 1.32643 2.6833 1.2 3.00156 1.2H10.3624C10.2592 1.3788 10.2016 1.584 10.2016 1.8V6C10.2016 6.47739 10.3912 6.93523 10.7288 7.27279C11.0663 7.61036 11.5242 7.8 12.0016 7.8H15.6016C15.8122 7.79999 16.0191 7.74453 16.2016 7.6392V12.6C16.2016 12.1226 16.0119 11.6648 15.6744 11.3272C15.3368 10.9896 14.879 10.8 14.4016 10.8C14.4016 10.3226 14.2119 9.86477 13.8744 9.52721C13.5368 9.18964 13.079 9 12.6016 9C12.1242 9 11.6663 9.18964 11.3288 9.52721C10.9912 9.86477 10.8016 10.3226 10.8016 10.8C10.5639 10.7998 10.3286 10.8467 10.1092 10.938ZM10.5712 12.0462C10.4432 12.0996 10.3376 12.1956 10.2725 12.318C10.2073 12.4403 10.1865 12.5815 10.2137 12.7175C10.2408 12.8535 10.3142 12.9758 10.4214 13.0638C10.5286 13.1518 10.6629 13.1999 10.8016 13.2H12.0016V14.4C12.0016 14.5591 12.0648 14.7117 12.1773 14.8243C12.2898 14.9368 12.4424 15 12.6016 15C12.7607 15 12.9133 14.9368 13.0258 14.8243C13.1383 14.7117 13.2016 14.5591 13.2016 14.4V13.2H14.4016C14.5607 13.2 14.7133 13.1368 14.8258 13.0243C14.9383 12.9117 15.0016 12.7591 15.0016 12.6C15.0016 12.4409 14.9383 12.2883 14.8258 12.1757C14.7133 12.0632 14.5607 12 14.4016 12H13.2016V10.8C13.2016 10.6409 13.1383 10.4883 13.0258 10.3757C12.9133 10.2632 12.7607 10.2 12.6016 10.2C12.4424 10.2 12.2898 10.2632 12.1773 10.3757C12.0648 10.4883 12.0016 10.6409 12.0016 10.8V12H10.8016C10.7223 12 10.6444 12.0157 10.5712 12.0462ZM11.101 15.3954C11.149 15.4674 11.2018 15.5356 11.2594 15.6H10.9432C11.0008 15.5352 11.0534 15.467 11.101 15.3954ZM7.93896 15.0924C8.01936 15.2838 8.12796 15.4536 8.25876 15.6L7.93896 15.0924ZM8.25876 15.6H4.94316C5.07396 15.4536 5.18316 15.2838 5.26236 15.0924L5.55156 14.4H7.65156L7.93896 15.0924M2.60556 15.9C2.3638 15.7395 2.16443 15.5229 2.02444 15.2688C1.88445 15.0146 1.80798 14.7303 1.80156 14.4402V17.4C1.80156 16.7742 2.12136 16.2222 2.60556 15.9ZM2.25996 18.6006C1.96477 18.2706 1.80157 17.8428 1.80156 17.4V19.8C1.80156 19.3392 1.97556 18.9192 2.25996 18.6006ZM13.9432 15.6006C14.2282 15.2826 14.4016 14.8614 14.4016 14.4006C14.879 14.4006 15.3368 14.211 15.6744 13.8734C16.0119 13.5358 16.2016 13.0774 16.2016 12.6V17.4006C16.2016 16.9232 16.0119 16.4654 15.6744 16.1278C15.3368 15.7902 14.879 15.6006 14.4016 15.6006H13.9432ZM12.499 19.2006H14.4016C14.879 19.2006 15.3368 19.011 15.6744 18.6734C16.0119 18.3358 16.2016 17.878 16.2016 17.4006V21.6006C16.2016 21.9189 16.0751 22.2241 15.8501 22.4491C15.625 22.6742 15.3198 22.8006 15.0016 22.8006H3.00156C2.6833 22.8006 2.37808 22.6742 2.15303 22.4491C1.92799 22.2241 1.80156 21.9189 1.80156 21.6006V19.8012C1.80188 20.2784 1.99166 20.7359 2.32919 21.0732C2.66673 21.4105 3.12438 21.6 3.60156 21.6H10.8016C11.0896 21.6002 11.3735 21.5312 11.6293 21.3989C11.8852 21.2665 12.1056 21.0748 12.2719 20.8396C12.4383 20.6045 12.5458 20.3328 12.5854 20.0475C12.625 19.7622 12.595 19.4722 12.499 19.2006ZM10.804 18H14.4016C14.5607 18 14.7133 17.9368 14.8258 17.8243C14.9383 17.7117 15.0016 17.5591 15.0016 17.4C15.0016 17.2409 14.9383 17.0883 14.8258 16.9757C14.7133 16.8632 14.5607 16.8 14.4016 16.8H3.60156C3.44243 16.8 3.28982 16.8632 3.1773 16.9757C3.06478 17.0883 3.00156 17.2409 3.00156 17.4C3.00156 17.5591 3.06478 17.7117 3.1773 17.8243C3.28982 17.9368 3.44243 18 3.60156 18H10.804ZM17.4016 6.6V21.6C17.4016 22.2365 17.1487 22.847 16.6986 23.2971C16.2485 23.7471 15.6381 24 15.0016 24H3.00156C2.36504 24 1.75459 23.7471 1.30451 23.2971C0.854419 22.847 0.601563 22.2365 0.601562 21.6V2.4C0.601562 1.76348 0.854419 1.15303 1.30451 0.702944C1.75459 0.252856 2.36504 0 3.00156 0H11.4016L17.4016 6.6ZM11.4016 1.8L15.6016 6.6H12.0016C11.8424 6.6 11.6898 6.53679 11.5773 6.42426C11.4648 6.31174 11.4016 6.15913 11.4016 6V1.8ZM7.95156 12H5.25156L6.60156 8.76L7.95156 12ZM3.60156 19.2C3.44243 19.2 3.28982 19.2632 3.1773 19.3757C3.06478 19.4883 3.00156 19.6409 3.00156 19.8C3.00156 19.9591 3.06478 20.1117 3.1773 20.2243C3.28982 20.3368 3.44243 20.4 3.60156 20.4H10.8016C10.9607 20.4 11.1133 20.3368 11.2258 20.2243C11.3383 20.1117 11.4016 19.9591 11.4016 19.8C11.4016 19.6409 11.3383 19.4883 11.2258 19.3757C11.1133 19.2632 10.9607 19.2 10.8016 19.2H3.60156Z" fill="#FEA800"/>
</svg>
