<svg width="24" height="24" viewBox="0 0 24 24" fill="none" xmlns="http://www.w3.org/2000/svg">
<circle cx="12" cy="12" r="12" fill="#EB5757"/>
<path d="M16.9195 6.90925C16.9664 6.93812 17.0048 6.97718 17.0314 7.02297C17.058 7.06876 17.072 7.11988 17.0721 7.17181V11.9169C17.072 11.9801 17.0515 12.0418 17.013 12.0941C16.9746 12.1464 16.92 12.187 16.8563 12.2105L16.7285 11.9169L16.8563 12.2105L16.8543 12.2111L16.8501 12.213L16.8343 12.2187C16.744 12.2517 16.6531 12.2834 16.5616 12.3136C16.3802 12.3737 16.1281 12.4547 15.8423 12.535C15.2816 12.6945 14.5513 12.8659 13.9804 12.8659C13.3985 12.8659 12.9169 12.6888 12.4978 12.5338L12.4786 12.5274C12.043 12.3661 11.672 12.2332 11.2323 12.2332C10.7514 12.2332 10.1069 12.3788 9.55797 12.535C9.31219 12.6056 9.06865 12.6826 8.82766 12.766V16.662C8.82766 16.7459 8.79147 16.8263 8.72704 16.8857C8.66262 16.945 8.57525 16.9783 8.48414 16.9783C8.39304 16.9783 8.30566 16.945 8.24124 16.8857C8.17682 16.8263 8.14062 16.7459 8.14062 16.662V7.17181C8.14062 7.08791 8.17682 7.00745 8.24124 6.94812C8.30566 6.8888 8.39304 6.85547 8.48414 6.85547C8.57525 6.85547 8.66262 6.8888 8.72704 6.94812C8.79147 7.00745 8.82766 7.08791 8.82766 7.17181V7.35022C8.98293 7.30024 9.16843 7.24267 9.37041 7.18573C9.93103 7.02756 10.662 6.85547 11.2323 6.85547C11.8094 6.85547 12.2793 7.03072 12.6895 7.18383L12.719 7.19522C13.1463 7.35402 13.5187 7.48815 13.9804 7.48815C14.4613 7.48815 15.1058 7.34263 15.6547 7.18636C15.9675 7.0964 16.2767 6.99595 16.5815 6.8852L16.5946 6.88078L16.5973 6.87951H16.598" fill="white"/>
</svg>
