<svg width="32" height="24" viewBox="0 0 32 24" fill="none" xmlns="http://www.w3.org/2000/svg">
<path d="M28.704 0.705882C27.137 0.211765 25.4146 0 23.7629 0C21.0099 0 18.0452 0.564706 15.9982 2.11765C13.9511 0.564706 10.9864 0 8.23346 0C5.48051 0 2.51581 0.564706 0.46875 2.11765V22.8C0.46875 23.1529 0.821691 23.5059 1.17463 23.5059C1.31581 23.5059 1.3864 23.4353 1.52757 23.4353C3.43346 22.5176 6.1864 21.8824 8.23346 21.8824C10.9864 21.8824 13.9511 22.4471 15.9982 24C17.904 22.8 21.3629 21.8824 23.7629 21.8824C26.0923 21.8824 28.4923 22.3059 30.4687 23.3647C30.6099 23.4353 30.6805 23.4353 30.8217 23.4353C31.1746 23.4353 31.5276 23.0824 31.5276 22.7294V2.11765C30.6805 1.48235 29.7629 1.05882 28.704 0.705882ZM28.704 19.7647C27.1511 19.2706 25.457 19.0588 23.7629 19.0588C21.3629 19.0588 17.904 19.9765 15.9982 21.1765V4.94118C17.904 3.74118 21.3629 2.82353 23.7629 2.82353C25.457 2.82353 27.1511 3.03529 28.704 3.52941V19.7647Z" fill="#FEA800"/>
<path d="M23.7629 8.47059C25.0052 8.47059 26.2052 8.59765 27.2923 8.83765V6.69176C26.177 6.48 24.977 6.35294 23.7629 6.35294C21.3629 6.35294 19.1887 6.76235 17.4099 7.52471V9.86823C19.0052 8.96471 21.2217 8.47059 23.7629 8.47059ZM17.4099 11.28V13.6235C19.0052 12.72 21.2217 12.2259 23.7629 12.2259C25.0052 12.2259 26.2052 12.3529 27.2923 12.5929V10.4471C26.177 10.2353 24.977 10.1082 23.7629 10.1082C21.3629 10.1082 19.1887 10.5318 17.4099 11.28ZM23.7629 13.8776C21.3629 13.8776 19.1887 14.2871 17.4099 15.0494V17.3929C19.0052 16.4894 21.2217 15.9953 23.7629 15.9953C25.0052 15.9953 26.2052 16.1224 27.2923 16.3624V14.2165C26.177 13.9906 24.977 13.8776 23.7629 13.8776Z" fill="#FEA800"/>
</svg>
