<svg width="12" height="12" viewBox="0 0 12 12" fill="none" xmlns="http://www.w3.org/2000/svg">
<path d="M1.5 0H8.4C8.79782 0 9.17936 0.15051 9.46066 0.418419C9.74197 0.686328 9.9 1.04969 9.9 1.42857V5.32171C9.2163 5.11074 8.48468 5.0838 7.78591 5.24387C7.08714 5.40393 6.4484 5.74477 5.94021 6.22877C5.43201 6.71276 5.07413 7.32109 4.90606 7.98658C4.73799 8.65207 4.76628 9.34885 4.9878 10H0.9C0.9 10.1516 0.963214 10.2969 1.07574 10.4041C1.18826 10.5112 1.34087 10.5714 1.5 10.5714H5.2392C5.41086 10.885 5.62865 11.1736 5.886 11.4286H1.5C1.10218 11.4286 0.720644 11.2781 0.43934 11.0102C0.158035 10.7422 0 10.3789 0 10V1.42857C0 1.04969 0.158035 0.686328 0.43934 0.418419C0.720644 0.15051 1.10218 0 1.5 0ZM2.4 1.71429C2.24087 1.71429 2.08826 1.77449 1.97574 1.88165C1.86321 1.98882 1.8 2.13416 1.8 2.28571V2.85714C1.8 3.0087 1.86321 3.15404 1.97574 3.2612C2.08826 3.36837 2.24087 3.42857 2.4 3.42857H7.2C7.35913 3.42857 7.51174 3.36837 7.62426 3.2612C7.73679 3.15404 7.8 3.0087 7.8 2.85714V2.28571C7.8 2.13416 7.73679 1.98882 7.62426 1.88165C7.51174 1.77449 7.35913 1.71429 7.2 1.71429H2.4ZM12 8.85714C12 8.02361 11.6523 7.22421 11.0335 6.63481C10.4146 6.04541 9.57521 5.71429 8.7 5.71429C7.82479 5.71429 6.98542 6.04541 6.36655 6.63481C5.74768 7.22421 5.4 8.02361 5.4 8.85714C5.4 9.69068 5.74768 10.4901 6.36655 11.0795C6.98542 11.6689 7.82479 12 8.7 12C9.57521 12 10.4146 11.6689 11.0335 11.0795C11.6523 10.4901 12 9.69068 12 8.85714ZM8.3484 7.484L10.032 8.53543C10.0844 8.56743 10.1254 8.60991 10.155 8.66286C10.185 8.71467 10.2 8.77143 10.2 8.83314C10.2001 8.89237 10.1853 8.95076 10.1568 9.00343C10.1293 9.05538 10.0885 9.09982 10.038 9.13257L8.3538 10.2269C8.32464 10.2459 8.2927 10.2607 8.259 10.2709C8.18102 10.2946 8.09655 10.2899 8.022 10.2577C7.9791 10.2384 7.93995 10.2123 7.9062 10.1806C7.87353 10.147 7.84714 10.1084 7.8282 10.0663C7.80926 10.0234 7.79966 9.97735 7.8 9.93086V7.78343C7.79954 7.71464 7.82011 7.64721 7.85922 7.58937C7.89832 7.53153 7.95426 7.48578 8.0202 7.45771C8.07248 7.43426 8.13031 7.42428 8.18791 7.4288C8.24551 7.43331 8.30085 7.45215 8.3484 7.48343" fill="#FEA800"/>
</svg>
