<svg width="35" height="24" viewBox="0 0 35 24" fill="none" xmlns="http://www.w3.org/2000/svg">
<path d="M17.4045 0C14.3909 0 11.9479 2.85221 11.9479 6.3706C11.9479 8.81072 13.123 10.9299 14.8485 12L12.8476 12.9273L7.52286 15.3969C7.00847 15.6541 6.75173 16.0903 6.75173 16.7076V22.5719C6.79405 23.3051 7.23397 23.9884 7.94721 24H26.8906C27.7049 23.9292 28.1168 23.2733 28.1248 22.5719V16.7076C28.1248 16.0903 27.8681 15.6541 27.3537 15.3969L22.2218 12.9273L20.089 11.9169C21.7437 10.8228 22.8611 8.74936 22.8611 6.37063C22.8611 2.85221 20.4181 0 17.4045 0ZM8.60309 2.24025C7.30623 2.2895 6.27843 2.85067 5.49756 3.74482C4.63382 4.82138 4.21274 6.09955 4.2046 7.37108C4.25764 9.25131 5.09893 11.0313 6.59663 11.9623L0.617129 14.741C0.205583 14.8953 0 15.2554 0 15.8213V20.5277C0.0321351 21.1519 0.356228 21.6765 0.963909 21.6855H4.93805V16.7076C5.00381 15.3767 5.62878 14.301 6.75173 13.776L10.7248 11.8859C11.0334 11.7059 11.3293 11.4611 11.6122 11.1525C9.97411 8.62493 9.74663 5.59761 10.8024 2.93494C10.1157 2.51471 9.34404 2.24465 8.60309 2.24025ZM26.3499 2.24025C25.5018 2.258 24.7181 2.57032 24.0742 3.01137C25.1012 5.69816 24.8179 8.72735 23.302 11.0749C23.6364 11.4607 23.9845 11.7566 24.3446 11.9624L28.1636 13.776C29.3271 14.4141 29.927 15.4994 29.9385 16.7076V21.6856H34.0279C34.7004 21.6275 34.9871 21.0911 34.9929 20.5278V15.8213C34.9929 15.3069 34.7873 14.9468 34.3758 14.741L28.4727 11.9236C30.0036 10.7948 30.7723 9.10314 30.7872 7.37108C30.7465 6.00017 30.3277 4.72725 29.4942 3.74482C28.6233 2.80004 27.5431 2.25025 26.3499 2.24025Z" fill="#FEA800"/>
</svg>
