<svg width="16" height="18" viewBox="0 0 16 18" fill="none" xmlns="http://www.w3.org/2000/svg">
<path d="M2 17.75C1.45 17.75 0.979333 17.5543 0.588 17.163C0.196 16.771 0 16.3 0 15.75V6.75C0 6.43333 0.0709998 6.13333 0.213 5.85C0.354333 5.56667 0.55 5.33333 0.8 5.15L6.8 0.65C6.98333 0.516667 7.175 0.416667 7.375 0.35C7.575 0.283333 7.78333 0.25 8 0.25C8.21667 0.25 8.425 0.283333 8.625 0.35C8.825 0.416667 9.01667 0.516667 9.2 0.65L15.2 5.15C15.45 5.33333 15.646 5.56667 15.788 5.85C15.9293 6.13333 16 6.43333 16 6.75V15.75C16 16.3 15.8043 16.771 15.413 17.163C15.021 17.5543 14.55 17.75 14 17.75H10V10.75H6V17.75H2Z" fill="#187163"/>
</svg>
