<svg width="36" height="20" viewBox="0 0 36 20" fill="none" xmlns="http://www.w3.org/2000/svg">
<path d="M18.0008 0L17.6572 0.104281L3.93606 4.70143L0.816406 5.72997L2.63309 6.31175V15.9166C1.97777 16.2975 1.5354 16.9923 1.5354 17.8046C1.5354 18.3869 1.7667 18.9453 2.17841 19.357C2.59013 19.7687 3.14853 20 3.73079 20C4.31304 20 4.87145 19.7687 5.28316 19.357C5.69488 18.9453 5.92618 18.3869 5.92618 17.8046C5.92618 16.9923 5.4838 16.2975 4.82848 15.9166V7.06916L7.02387 7.78815V13.4138C7.02387 14.3139 7.57272 15.0604 8.22475 15.5763C8.87678 16.0889 9.68688 16.4512 10.6594 16.7761C12.6067 17.4237 15.1732 17.8046 18.0008 17.8046C20.8285 17.8046 23.3949 17.4248 25.3422 16.775C26.3148 16.4512 27.1249 16.0889 27.7769 15.5752C28.4289 15.0604 28.9778 14.3139 28.9778 13.4138V7.78815L32.0656 6.75851L35.1852 5.72997L32.0645 4.70033L18.3433 0.104281L18.0008 0ZM18.0008 2.29967L28.2917 5.72997L18.0008 9.16026L7.70993 5.72997L18.0008 2.29967ZM9.21926 8.54336L17.6583 11.3557L18.0008 11.4588L18.3444 11.3546L26.7824 8.54226V13.4138C26.7824 13.4248 26.7868 13.5521 26.4388 13.8255C26.0919 14.0999 25.4695 14.4457 24.655 14.7179C23.0283 15.2591 20.6298 15.6092 18.0008 15.6092C15.3718 15.6092 12.9734 15.2602 11.3455 14.7168C10.5332 14.4457 9.90971 14.0988 9.56284 13.8255C9.21377 13.551 9.21926 13.4248 9.21926 13.4138V8.54336Z" fill="#FEA800"/>
</svg>
