<svg width="12" height="12" viewBox="0 0 12 12" fill="none" xmlns="http://www.w3.org/2000/svg">
<path d="M9.88845 3.22222C10.5021 3.22222 10.9996 2.72476 10.9996 2.11111C10.9996 1.49746 10.5021 1 9.88845 1C9.27481 1 8.77734 1.49746 8.77734 2.11111C8.77734 2.72476 9.27481 3.22222 9.88845 3.22222Z" stroke="#FEA800" stroke-linecap="round" stroke-linejoin="round"/>
<path d="M2.11111 10.9996C2.72476 10.9996 3.22222 10.5021 3.22222 9.88845C3.22222 9.27481 2.72476 8.77734 2.11111 8.77734C1.49746 8.77734 1 9.27481 1 9.88845C1 10.5021 1.49746 10.9996 2.11111 10.9996Z" stroke="#FEA800" stroke-linecap="round" stroke-linejoin="round"/>
<path d="M2.11133 8.77799C2.11133 7.00988 2.81371 5.31419 4.06395 4.06395C5.31419 2.81371 7.00988 2.11133 8.77799 2.11133" stroke="#FEA800" stroke-linecap="round" stroke-linejoin="round"/>
</svg>
