<svg width="18" height="21" viewBox="0 0 18 21" fill="none" xmlns="http://www.w3.org/2000/svg">
<path d="M17.6472 5.313C17.3967 4.69172 17.0319 4.12803 16.5737 3.654C16.1175 3.16613 15.5714 2.78033 14.9685 2.52C14.6013 2.36098 14.2174 2.24819 13.8248 2.184V0.7875C13.8248 0.578642 13.7455 0.378338 13.6044 0.230653C13.4633 0.0829684 13.2719 0 13.0723 0C12.8728 0 12.6814 0.0829684 12.5403 0.230653C12.3992 0.378338 12.3199 0.578642 12.3199 0.7875V2.121H5.68844V0.7875C5.68844 0.578642 5.60916 0.378338 5.46805 0.230653C5.32694 0.0829684 5.13556 0 4.936 0C4.73644 0 4.54506 0.0829684 4.40395 0.230653C4.26284 0.378338 4.18356 0.578642 4.18356 0.7875V2.184C3.14494 2.34441 2.18397 2.85281 1.44469 3.633C0.985518 4.11223 0.621475 4.68181 0.373531 5.30893C0.125588 5.93605 -0.00135435 6.60831 1.52909e-05 7.287V15.792C-0.00159823 16.476 0.124498 17.1537 0.371218 17.787C0.614021 18.4162 0.975731 18.9876 1.43466 19.467C1.89014 19.9542 2.4359 20.3406 3.03986 20.601C3.6398 20.8645 4.28389 21 4.936 21H13.0723C14.3789 20.9945 15.6303 20.4481 16.5532 19.4802C17.4761 18.5122 17.9957 17.2014 17.9983 15.834V7.3185C18.0159 6.63171 17.8963 5.94863 17.6472 5.313ZM13.6342 15.3825H4.43438C4.23482 15.3825 4.04343 15.2995 3.90232 15.1518C3.76121 15.0042 3.68194 14.8039 3.68194 14.595C3.68194 14.3861 3.76121 14.1858 3.90232 14.0382C4.04343 13.8905 4.23482 13.8075 4.43438 13.8075H13.5639C13.7635 13.8075 13.9549 13.8905 14.096 14.0382C14.2371 14.1858 14.3164 14.3861 14.3164 14.595C14.3164 14.8039 14.2371 15.0042 14.096 15.1518C13.9549 15.2995 13.7635 15.3825 13.5639 15.3825H13.6342ZM13.6342 10.059H4.43438C4.23482 10.059 4.04343 9.97603 3.90232 9.82835C3.76121 9.68066 3.68194 9.48036 3.68194 9.2715C3.68194 9.06264 3.76121 8.86234 3.90232 8.71465C4.04343 8.56697 4.23482 8.484 4.43438 8.484H13.5639C13.7635 8.484 13.9549 8.56697 14.096 8.71465C14.2371 8.86234 14.3164 9.06264 14.3164 9.2715C14.3164 9.48036 14.2371 9.68066 14.096 9.82835C13.9549 9.97603 13.7635 10.059 13.5639 10.059H13.6342Z" fill="#187163"/>
</svg>
