<svg width="10" height="10" viewBox="0 0 10 10" fill="none" xmlns="http://www.w3.org/2000/svg">
<path d="M10 4.5H0V5.5H10V4.5ZM8 2.5H2V1H8V2.5ZM9 1C9 0.734784 8.89464 0.48043 8.70711 0.292893C8.51957 0.105357 8.26522 0 8 0H2C1.73478 0 1.48043 0.105357 1.29289 0.292893C1.10536 0.48043 1 0.734784 1 1V2.5C1 2.76522 1.10536 3.01957 1.29289 3.20711C1.48043 3.39464 1.73478 3.5 2 3.5H8C8.26522 3.5 8.51957 3.39464 8.70711 3.20711C8.89464 3.01957 9 2.76522 9 2.5V1ZM8 6.5C8.26522 6.5 8.51957 6.60536 8.70711 6.79289C8.89464 6.98043 9 7.23478 9 7.5V9C9 9.26522 8.89464 9.51957 8.70711 9.70711C8.51957 9.89464 8.26522 10 8 10H2C1.73478 10 1.48043 9.89464 1.29289 9.70711C1.10536 9.51957 1 9.26522 1 9V7.5C1 7.23478 1.10536 6.98043 1.29289 6.79289C1.48043 6.60536 1.73478 6.5 2 6.5H8Z" fill="#FEA800"/>
</svg>
