<svg width="32" height="15" viewBox="0 0 32 15" fill="none" xmlns="http://www.w3.org/2000/svg">
<path d="M21.2135 3.29588L23.3109 0.580524C23.4607 0.380774 23.6386 0.234082 23.8446 0.140449C24.0506 0.0468165 24.2659 0 24.4906 0C24.7154 0 24.9307 0.0468165 25.1367 0.140449C25.3427 0.234082 25.5206 0.380774 25.6704 0.580524L27.7678 3.29588L30.9513 4.3633C31.2759 4.46317 31.5318 4.64732 31.7191 4.91573C31.9064 5.18414 32 5.48065 32 5.80524C32 5.95506 31.9782 6.10487 31.9345 6.25468C31.8908 6.40449 31.819 6.54807 31.7191 6.68539L29.6592 9.60674L29.7341 12.6779C29.7466 13.1149 29.603 13.4831 29.3034 13.7828C29.0037 14.0824 28.6542 14.2322 28.2547 14.2322C28.2297 14.2322 28.0924 14.2135 27.8427 14.176L24.4906 13.2397L21.1386 14.176C21.0762 14.201 21.0075 14.2166 20.9326 14.2228C20.8577 14.2291 20.789 14.2322 20.7266 14.2322C20.3271 14.2322 19.9775 14.0824 19.6779 13.7828C19.3783 13.4831 19.2347 13.1149 19.2472 12.6779L19.3221 9.58802L17.2809 6.68539C17.181 6.54807 17.1092 6.40449 17.0655 6.25468C17.0218 6.10487 17 5.95506 17 5.80524C17 5.49313 17.0905 5.20287 17.2715 4.93446C17.4526 4.66604 17.7054 4.47566 18.03 4.3633L21.2135 3.29588Z" fill="#FEA800"/>
<path d="M4.21348 3.29588L6.31086 0.580524C6.46067 0.380774 6.63858 0.234082 6.84457 0.140449C7.05056 0.0468165 7.26592 0 7.49064 0C7.71536 0 7.93071 0.0468165 8.1367 0.140449C8.3427 0.234082 8.5206 0.380774 8.67041 0.580524L10.7678 3.29588L13.9513 4.3633C14.2759 4.46317 14.5318 4.64732 14.7191 4.91573C14.9064 5.18414 15 5.48065 15 5.80524C15 5.95506 14.9782 6.10487 14.9345 6.25468C14.8908 6.40449 14.819 6.54807 14.7191 6.68539L12.6592 9.60674L12.7341 12.6779C12.7466 13.1149 12.603 13.4831 12.3034 13.7828C12.0037 14.0824 11.6542 14.2322 11.2547 14.2322C11.2297 14.2322 11.0924 14.2135 10.8427 14.176L7.49064 13.2397L4.13858 14.176C4.07615 14.201 4.00749 14.2166 3.93258 14.2228C3.85768 14.2291 3.78901 14.2322 3.72659 14.2322C3.32709 14.2322 2.97753 14.0824 2.6779 13.7828C2.37828 13.4831 2.23471 13.1149 2.24719 12.6779L2.3221 9.58802L0.280899 6.68539C0.181024 6.54807 0.109238 6.40449 0.0655431 6.25468C0.0218477 6.10487 0 5.95506 0 5.80524C0 5.49313 0.0905119 5.20287 0.271536 4.93446C0.452559 4.66604 0.705368 4.47566 1.02996 4.3633L4.21348 3.29588Z" fill="#FEA800"/>
</svg>
