<svg width="24" height="23" viewBox="0 0 24 23" fill="none" xmlns="http://www.w3.org/2000/svg">
<path d="M6.74157 5.27341L10.0974 0.928839C10.3371 0.609238 10.6217 0.374532 10.9513 0.224719C11.2809 0.0749064 11.6255 0 11.985 0C12.3446 0 12.6891 0.0749064 13.0187 0.224719C13.3483 0.374532 13.633 0.609238 13.8727 0.928839L17.2285 5.27341L22.3221 6.98127C22.8414 7.14107 23.2509 7.43571 23.5506 7.86517C23.8502 8.29463 24 8.76904 24 9.28839C24 9.52809 23.965 9.76779 23.8951 10.0075C23.8252 10.2472 23.7104 10.4769 23.5506 10.6966L20.2547 15.3708L20.3745 20.2846C20.3945 20.9838 20.1648 21.573 19.6854 22.0524C19.206 22.5318 18.6467 22.7715 18.0075 22.7715C17.9675 22.7715 17.7478 22.7416 17.3483 22.6816L11.985 21.1835L6.62172 22.6816C6.52185 22.7216 6.41198 22.7466 6.29213 22.7566C6.17228 22.7665 6.06242 22.7715 5.96255 22.7715C5.32335 22.7715 4.76404 22.5318 4.28464 22.0524C3.80524 21.573 3.57553 20.9838 3.59551 20.2846L3.71536 15.3408L0.449438 10.6966C0.289638 10.4769 0.174782 10.2472 0.104869 10.0075C0.0349563 9.76779 0 9.52809 0 9.28839C0 8.78901 0.144819 8.32459 0.434457 7.89513C0.724095 7.46567 1.12859 7.16105 1.64794 6.98127L6.74157 5.27341Z" fill="#FEA800"/>
</svg>
