<svg width="29" height="28" viewBox="0 0 29 28" fill="none" xmlns="http://www.w3.org/2000/svg">
<path d="M20.3708 18.6367L22.0487 16.4644C22.1685 16.3046 22.3109 16.1873 22.4757 16.1124C22.6404 16.0375 22.8127 16 22.9925 16C23.1723 16 23.3446 16.0375 23.5094 16.1124C23.6742 16.1873 23.8165 16.3046 23.9363 16.4644L25.6142 18.6367L28.161 19.4906C28.4207 19.5705 28.6255 19.7179 28.7753 19.9326C28.9251 20.1473 29 20.3845 29 20.6442C29 20.764 28.9825 20.8839 28.9476 21.0037C28.9126 21.1236 28.8552 21.2385 28.7753 21.3483L27.1273 23.6854L27.1873 26.1423C27.1973 26.4919 27.0824 26.7865 26.8427 27.0262C26.603 27.2659 26.3233 27.3858 26.0037 27.3858C25.9838 27.3858 25.8739 27.3708 25.6742 27.3408L22.9925 26.5918L20.3109 27.3408C20.2609 27.3608 20.206 27.3733 20.1461 27.3783C20.0861 27.3833 20.0312 27.3858 19.9813 27.3858C19.6617 27.3858 19.382 27.2659 19.1423 27.0262C18.9026 26.7865 18.7878 26.4919 18.7978 26.1423L18.8577 23.6704L17.2247 21.3483C17.1448 21.2385 17.0874 21.1236 17.0524 21.0037C17.0175 20.8839 17 20.764 17 20.6442C17 20.3945 17.0724 20.1623 17.2172 19.9476C17.362 19.7328 17.5643 19.5805 17.824 19.4906L20.3708 18.6367Z" fill="#FEA800"/>
<path d="M11.3708 2.6367L13.0487 0.464419C13.1685 0.304619 13.3109 0.187266 13.4757 0.11236C13.6404 0.0374532 13.8127 0 13.9925 0C14.1723 0 14.3446 0.0374532 14.5094 0.11236C14.6742 0.187266 14.8165 0.304619 14.9363 0.464419L16.6142 2.6367L19.161 3.49064C19.4207 3.57054 19.6255 3.71785 19.7753 3.93258C19.9251 4.14732 20 4.38452 20 4.64419C20 4.76404 19.9825 4.8839 19.9476 5.00375C19.9126 5.1236 19.8552 5.23845 19.7753 5.34831L18.1273 7.68539L18.1873 10.1423C18.1973 10.4919 18.0824 10.7865 17.8427 11.0262C17.603 11.2659 17.3233 11.3858 17.0037 11.3858C16.9838 11.3858 16.8739 11.3708 16.6742 11.3408L13.9925 10.5918L11.3109 11.3408C11.2609 11.3608 11.206 11.3733 11.1461 11.3783C11.0861 11.3833 11.0312 11.3858 10.9813 11.3858C10.6617 11.3858 10.382 11.2659 10.1423 11.0262C9.90262 10.7865 9.78777 10.4919 9.79775 10.1423L9.85768 7.67041L8.22472 5.34831C8.14482 5.23845 8.08739 5.1236 8.05243 5.00375C8.01748 4.8839 8 4.76404 8 4.64419C8 4.39451 8.07241 4.1623 8.21723 3.94757C8.36205 3.73283 8.56429 3.58052 8.82397 3.49064L11.3708 2.6367Z" fill="#FEA800"/>
<path d="M3.37079 19.0234L5.04869 16.8511C5.16854 16.6913 5.31086 16.574 5.47566 16.4991C5.64045 16.4242 5.81273 16.3867 5.99251 16.3867C6.17228 16.3867 6.34457 16.4242 6.50936 16.4991C6.67416 16.574 6.81648 16.6913 6.93633 16.8511L8.61423 19.0234L11.161 19.8774C11.4207 19.9573 11.6255 20.1046 11.7753 20.3193C11.9251 20.534 12 20.7712 12 21.0309C12 21.1508 11.9825 21.2706 11.9476 21.3905C11.9126 21.5103 11.8552 21.6252 11.7753 21.735L10.1273 24.0721L10.1873 26.529C10.1973 26.8786 10.0824 27.1732 9.8427 27.4129C9.603 27.6526 9.32335 27.7725 9.00375 27.7725C8.98377 27.7725 8.87391 27.7575 8.67416 27.7275L5.99251 26.9785L3.31086 27.7275C3.26092 27.7475 3.20599 27.76 3.14607 27.765C3.08614 27.77 3.03121 27.7725 2.98127 27.7725C2.66167 27.7725 2.38202 27.6526 2.14232 27.4129C1.90262 27.1732 1.78777 26.8786 1.79775 26.529L1.85768 24.0571L0.224719 21.735C0.144819 21.6252 0.0873908 21.5103 0.0524345 21.3905C0.0174782 21.2706 0 21.1508 0 21.0309C0 20.7812 0.0724095 20.549 0.217228 20.3343C0.362047 20.1196 0.564295 19.9672 0.82397 19.8774L3.37079 19.0234Z" fill="#FEA800"/>
</svg>
