<svg width="24" height="24" viewBox="0 0 24 24" fill="none" xmlns="http://www.w3.org/2000/svg">
<path d="M23.1429 2.57143H19.9232C19.8664 2.57143 19.8119 2.54885 19.7717 2.50867C19.7315 2.46848 19.7089 2.41398 19.7089 2.35714V1.71C19.7078 1.25609 19.5267 0.821151 19.2053 0.500586C18.8839 0.180022 18.4486 -1.41848e-06 17.9946 0L6.00589 0.0139285C5.55244 0.0147776 5.1178 0.19525 4.79711 0.515838C4.47642 0.836427 4.29581 1.27101 4.29482 1.72446V2.35714C4.29482 2.41398 4.27224 2.46848 4.23206 2.50867C4.19187 2.54885 4.13737 2.57143 4.08054 2.57143H0.857143C0.629814 2.57143 0.411797 2.66173 0.251051 2.82248C0.0903058 2.98323 0 3.20124 0 3.42857V4.28571C0 7.20696 1.60714 10.3098 4.09929 11.0009C4.17298 11.0214 4.23965 11.0617 4.29206 11.1174C4.34447 11.1732 4.38063 11.2422 4.39661 11.317C4.70571 12.7575 5.65661 14.1295 7.15071 15.2604C8.27089 16.1084 9.60696 16.7336 10.808 17.0004C10.903 17.0216 10.9879 17.0746 11.0487 17.1506C11.1096 17.2265 11.1428 17.3209 11.1429 17.4182V22.0714C11.1429 22.1283 11.1203 22.1828 11.0801 22.223C11.0399 22.2631 10.9854 22.2857 10.9286 22.2857H7.73839C7.27714 22.2857 6.88125 22.6404 6.85821 23.1016C6.85263 23.2175 6.87063 23.3333 6.91114 23.4421C6.95164 23.5508 7.01379 23.6502 7.09383 23.7342C7.17387 23.8182 7.27014 23.885 7.37679 23.9307C7.48344 23.9764 7.59826 24 7.71429 24H16.2616C16.7229 24 17.1188 23.6454 17.1418 23.1841C17.1474 23.0682 17.1294 22.9524 17.0889 22.8437C17.0484 22.7349 16.9862 22.6356 16.9062 22.5516C16.8261 22.4676 16.7299 22.4007 16.6232 22.355C16.5166 22.3093 16.4017 22.2857 16.2857 22.2857H13.0714C13.0146 22.2857 12.9601 22.2631 12.9199 22.223C12.8797 22.1828 12.8571 22.1283 12.8571 22.0714V17.4182C12.8572 17.3209 12.8904 17.2265 12.9513 17.1506C13.0121 17.0746 13.097 17.0216 13.192 17.0004C14.393 16.7325 15.7291 16.1084 16.8493 15.2604C18.3434 14.1295 19.2943 12.7575 19.6034 11.317C19.6194 11.2422 19.6555 11.1732 19.7079 11.1174C19.7604 11.0617 19.827 11.0214 19.9007 11.0009C22.3929 10.3098 24 7.20696 24 4.28571V3.42857C24 3.20124 23.9097 2.98323 23.7489 2.82248C23.5882 2.66173 23.3702 2.57143 23.1429 2.57143ZM4.28571 8.90464C4.28558 8.94219 4.27558 8.97905 4.25672 9.01152C4.23786 9.04399 4.2108 9.07094 4.17825 9.08965C4.14569 9.10837 4.10879 9.11821 4.07124 9.11817C4.03369 9.11814 3.99681 9.10824 3.96429 9.08946C3.41464 8.76214 3.01339 8.26607 2.77821 7.91679C2.14018 6.96911 1.76036 5.73804 1.71804 4.50804C1.71695 4.47923 1.7217 4.4505 1.73198 4.42356C1.74227 4.39663 1.75788 4.37205 1.77789 4.35129C1.79789 4.33053 1.82188 4.31403 1.84842 4.30276C1.87495 4.29149 1.90349 4.28569 1.93232 4.28571H4.07518C4.13201 4.28571 4.18652 4.30829 4.2267 4.34848C4.26689 4.38866 4.28946 4.44317 4.28946 4.5C4.28839 5.97054 4.28571 7.65375 4.28571 8.90464ZM21.2213 7.91679C20.9861 8.26607 20.5854 8.76214 20.0357 9.08946C20.0032 9.10826 19.9662 9.11816 19.9286 9.11817C19.891 9.11818 19.8541 9.1083 19.8215 9.08952C19.789 9.07074 19.7619 9.04372 19.7431 9.01117C19.7243 8.97863 19.7143 8.9417 19.7143 8.90411C19.7143 7.48393 19.7143 5.87036 19.7116 4.5C19.7116 4.44317 19.7342 4.38866 19.7744 4.34848C19.8146 4.30829 19.8691 4.28571 19.9259 4.28571H22.0688C22.0976 4.28569 22.1261 4.29149 22.1527 4.30276C22.1792 4.31403 22.2032 4.33053 22.2232 4.35129C22.2432 4.37205 22.2588 4.39663 22.2691 4.42356C22.2794 4.4505 22.2841 4.47923 22.283 4.50804C22.2407 5.73804 21.8598 6.96911 21.2218 7.91679H21.2213Z" fill="#FEA800"/>
</svg>
