<svg width="600" height="600" viewBox="0 0 600 600" fill="none" xmlns="http://www.w3.org/2000/svg">
<g clip-path="url(#clip0_1475_4406)">
<path d="M183.019 423.964C181.834 425.171 180.919 426.674 180.502 428.317C180.222 429.36 180.208 430.458 180.109 431.529C179.754 434.501 180.259 437.495 181.964 440.004C182.831 438.384 183.385 436.598 183.685 434.791C183.846 433.714 183.808 432.62 183.921 431.539C184.006 430.322 184.228 429.108 184.143 427.884C184.023 426.551 183.726 425.062 183.026 423.967L183.019 423.964Z" fill="black"/>
<path d="M187.357 401.167C186.78 401.955 186.373 402.851 186.083 403.779L186.1 403.724C185.799 404.723 185.444 405.708 185.168 406.714C184.146 410.15 183.631 413.287 185.195 416.675C186.23 415.305 187.063 413.764 187.671 412.158C188.122 410.904 188.334 409.588 188.675 408.302C188.884 407.307 189.324 406.356 189.83 404.379C190.045 402.633 189.922 400.799 189.208 399.173C188.504 399.746 187.89 400.434 187.357 401.167Z" fill="black"/>
<path d="M198.016 376.239C197.596 376.478 197.312 376.856 197.093 377.279C196.964 377.487 197.087 377.357 196.263 378.145C194.839 379.399 194.067 381.097 193.442 382.846C192.343 385.352 192.165 388.181 192.742 390.844C194.259 389.548 195.42 387.878 196.246 386.071C196.707 384.915 197.056 383.715 197.527 382.563C198.162 381.015 198.924 379.287 198.531 377.593C198.361 377.139 198.07 376.734 198.012 376.243L198.016 376.239Z" fill="black"/>
<path d="M206.09 353.842C205.291 355.832 205.53 355.972 204.441 358.168C202.545 361.437 201.118 364.819 202.446 368.603C203.72 367.198 204.868 365.675 205.776 364.007C206.507 362.572 207.105 361.076 207.931 359.685C208.474 358.594 208.905 357.445 209.226 356.269C209.24 356.225 209.263 356.156 209.298 356.051C209.984 354.404 210.759 352.757 210.947 350.961C210.978 350.637 210.995 350.313 210.992 349.989C210.387 350.184 209.789 350.415 209.233 350.726C207.907 351.421 206.736 352.478 206.087 353.842H206.09Z" fill="black"/>
<path d="M225.227 330.135C225.227 330.135 225.204 330.159 225.193 330.169C224.059 331.222 222.973 332.327 221.938 333.479C220.873 334.662 219.749 335.794 218.731 337.018C217.406 338.78 216.539 340.914 216.467 343.13C217.976 342.356 219.445 341.463 220.716 340.331C222.488 338.661 224.025 336.752 225.716 334.996C227.256 333.339 227.089 333.619 228.513 332.221C229.012 331.751 229.463 331.232 229.814 330.643C230.108 330.121 231.006 328.877 231.444 327.281C230.733 327.295 230.019 327.377 229.329 327.554C227.724 327.946 226.355 328.959 225.231 330.135H225.227Z" fill="black"/>
<path d="M256.669 308.671C256.113 308.702 255.556 308.77 255.006 308.862C254.709 308.899 254.702 308.903 254.887 308.906C254.808 308.906 254.733 308.899 254.654 308.899C253.886 308.985 253.066 308.995 252.38 309.394C250.74 310.27 249.34 311.524 247.793 312.547C243.885 315.022 241.187 316.188 239.473 320.882C242.407 320.48 244.941 318.956 247.335 317.31C248.889 316.386 250.395 315.387 251.854 314.32C252.793 313.635 253.759 312.977 254.555 312.124C255.078 311.732 255.57 311.299 255.88 310.713C256.229 310.181 256.536 309.619 256.803 309.039C256.874 308.78 257.117 308.582 256.673 308.668L256.669 308.671Z" fill="black"/>
<path d="M281.668 295.141C279.044 295.032 278.047 295.625 275.322 296.968C273.911 297.742 272.436 298.42 271.104 299.327C269.464 300.575 268.03 302.15 267.148 304.021C268.986 303.902 270.837 303.541 272.518 302.777C274.574 301.724 274.369 301.7 275.977 300.888C277.262 300.155 278.652 299.634 279.922 298.884C281.213 298.008 282.597 296.722 283.235 295.485C283.235 295.485 283.235 295.485 283.242 295.475C283.269 295.434 283.297 295.389 283.324 295.349C283.249 295.328 283.174 295.304 283.095 295.291C282.624 295.205 282.142 295.178 281.664 295.141H281.668Z" fill="black"/>
<path d="M314.214 282.502C314.139 282.482 314.064 282.458 313.992 282.434C313.132 282.161 312.182 282.233 311.304 282.4C311.058 282.393 309.194 282.966 307.902 283.573C306.519 284.108 305.068 284.452 303.657 284.906C299.962 286.116 296.399 287.616 294.828 291.465C297.338 291.127 298.049 291.001 300.17 290.354C302.031 289.621 303.848 288.765 305.778 288.226C307.568 287.674 309.436 287.244 311.048 286.249C311.96 285.594 312.728 284.752 313.398 283.859C313.661 283.518 313.879 283.147 314.163 282.823C314.224 282.686 314.511 282.526 314.214 282.506V282.502Z" fill="black"/>
<path d="M340.698 270.005C339.256 269.93 337.627 270.2 336.278 270.837C335.349 271.267 334.601 271.969 333.822 272.613C331.637 274.1 329.55 274.771 326.582 276.612C325.127 277.611 323.86 278.89 322.869 280.349C324.785 280.359 326.712 280.004 328.508 279.343C329.816 278.797 331.022 278.041 332.292 277.413C333.413 276.827 334.543 276.254 335.612 275.586C338.041 273.646 337.498 274.089 339.048 272.521C339.656 271.877 340.165 271.147 340.664 270.418C340.807 270.142 341.077 269.958 340.698 270.009V270.005Z" fill="black"/>
<path d="M359.497 254.259C357.632 255.65 356.006 257.31 354.37 258.95C354.063 259.233 353.421 259.829 353.219 260.02C351.713 261.483 350.63 263.344 349.824 265.273C351.942 265.031 353.964 264.142 355.658 262.867C356.812 261.888 357.861 260.787 358.93 259.717C360.371 258.135 360.716 258.135 362.591 256.294C363.503 255.234 364.336 254.03 364.736 252.68C364.777 252.537 364.794 252.479 364.839 252.336C364.651 252.373 364.463 252.411 364.275 252.455C362.899 252.704 361.071 253.144 359.497 254.262V254.259Z" fill="black"/>
<path d="M382.642 235.399C381.31 235.954 380.107 236.762 379.107 237.799C378.15 238.808 377.358 239.967 376.374 240.955C375.138 242.268 375.093 242.118 373.556 243.727C372.296 245.207 371.289 246.921 370.674 248.766C372.515 248.268 374.277 247.433 375.797 246.277C377.283 245.002 376.873 245.282 378.184 244.061C379.957 242.258 381.877 240.355 382.502 237.822C382.519 237.764 382.525 237.734 382.532 237.713C382.553 237.642 382.577 237.57 382.597 237.499C382.614 237.434 382.624 237.393 382.631 237.372C382.645 237.321 382.662 237.274 382.676 237.222C382.846 236.65 382.973 236.067 383.024 235.47C383.113 235.068 382.887 235.32 382.648 235.395L382.642 235.399Z" fill="black"/>
<path d="M398.89 211.896C398.453 212.152 398.036 212.442 397.657 212.772C397.237 213.123 396.277 214.081 395.498 215.257C394.402 217.102 394.702 216.795 393.671 218.37C392.619 220.109 391.348 221.721 390.457 223.552C389.75 225.164 389.333 226.913 389.361 228.676C391.15 227.67 392.783 226.337 394.053 224.721C394.781 223.692 395.44 222.614 396.13 221.557C397.257 219.713 398.634 217.934 399.197 215.82C399.487 214.552 399.477 213.212 399.265 211.934C399.265 211.586 399.095 211.794 398.886 211.893L398.89 211.896Z" fill="black"/>
<path d="M408.762 186.839C408.687 186.56 408.503 186.972 408.345 187.092C406.716 188.745 405.473 190.726 404.65 192.894C403.308 195.628 402.625 198.765 403.379 201.768C404.616 200.64 405.729 199.368 406.556 197.909C407.188 196.89 407.563 195.744 408.048 194.653C408.731 193.082 409.544 191.483 409.479 189.724C409.421 188.735 409.257 187.709 408.762 186.839Z" fill="black"/>
<path d="M414.826 167.893C414.703 167.279 414.539 166.625 414.041 166.205C414.017 166.185 413.962 166.147 413.928 166.127C413.798 165.929 413.788 165.973 413.658 166.185C413.607 166.437 413.47 166.662 413.388 166.771C410.553 169.996 409.867 174.731 410.933 178.809C413.795 176.061 415.588 171.864 414.83 167.893H414.826Z" fill="black"/>
</g>
<g clip-path="url(#clip1_1475_4406)">
<path d="M184.185 441.062C187.421 438.369 191.176 434.876 193.317 433.076C195.173 431.479 197.014 429.862 198.851 428.245C199.516 427.582 200.383 427.093 200.886 426.29C201.944 424.077 199.125 422.674 197.915 424.243C197.898 424.26 197.884 424.277 197.867 424.294C196.837 425.206 195.797 426.105 194.771 427.018C191.432 429.933 187.148 433.653 182.921 437.413C182.874 437.369 182.827 437.325 182.78 437.281C181.839 436.372 180.985 435.373 180.133 434.378C177.674 431.561 173.692 426.053 170.449 421.913C169.106 420.213 168.663 419.708 167.934 418.883C167.657 418.625 167.41 418.323 167.128 418.072C166.936 417.856 166.684 417.696 166.401 417.634C165.68 417.456 164.891 417.969 164.736 418.709C164.673 419.086 164.706 419.466 164.922 419.789C164.917 419.784 164.911 419.766 164.9 419.74C164.975 419.885 165.06 420.026 165.138 420.172C165.552 420.949 166.035 421.679 166.526 422.405C168.561 425.343 170.708 428.201 172.855 431.058C174.64 433.453 176.518 435.773 178.474 438.025C179.934 439.533 181.802 442.37 184.182 441.058L184.185 441.062Z" fill="black"/>
</g>
<g clip-path="url(#clip2_1475_4406)">
<path d="M413.444 164.547C410.125 167.138 406.263 170.512 404.067 172.243C402.161 173.781 400.271 175.34 398.384 176.9C397.698 177.541 396.816 178.003 396.289 178.79C395.162 180.969 397.936 182.458 399.194 180.928C399.212 180.912 399.226 180.895 399.244 180.879C400.301 180 401.369 179.134 402.424 178.254C405.852 175.444 410.251 171.86 414.593 168.234C414.638 168.279 414.684 168.325 414.73 168.371C415.641 169.309 416.464 170.334 417.284 171.355C419.654 174.248 423.462 179.877 426.573 184.117C427.863 185.858 428.29 186.376 428.993 187.224C429.261 187.49 429.499 187.8 429.772 188.06C429.958 188.282 430.205 188.45 430.486 188.521C431.201 188.721 432.005 188.233 432.184 187.498C432.258 187.124 432.237 186.742 432.031 186.413C432.037 186.418 432.042 186.436 432.052 186.463C431.982 186.315 431.901 186.172 431.827 186.023C431.439 185.234 430.979 184.489 430.511 183.748C428.568 180.747 426.511 177.824 424.455 174.901C422.746 172.451 420.941 170.074 419.057 167.762C417.645 166.209 415.867 163.314 413.446 164.551L413.444 164.547Z" fill="black"/>
</g>
<defs>
<clipPath id="clip0_1475_4406">
<rect width="235" height="274" fill="white" transform="translate(180 166)"/>
</clipPath>
<clipPath id="clip1_1475_4406">
<rect width="21" height="37" fill="white" transform="translate(201.455 424.01) rotate(102.358)"/>
</clipPath>
<clipPath id="clip2_1475_4406">
<rect width="21" height="37" fill="white" transform="translate(395.648 181.051) rotate(-75.8485)"/>
</clipPath>
</defs>
</svg>
