<svg width="40" height="40" viewBox="0 0 40 40" fill="none" xmlns="http://www.w3.org/2000/svg">
<rect width="40" height="40" rx="20" fill="#FEA800"/>
<path d="M12.2374 19.027C17.0692 17.0513 20.2912 15.7487 21.9033 15.1194C26.5063 13.3226 27.4627 13.0105 28.0861 13.0001C28.2232 12.9979 28.5298 13.0298 28.7284 13.1811C28.8961 13.3088 28.9422 13.4813 28.9643 13.6023C28.9864 13.7234 29.0139 13.9992 28.992 14.2147C28.7426 16.6744 27.6633 22.6434 27.1142 25.3983C26.8818 26.564 26.4244 26.9548 25.9815 26.9931C25.0189 27.0762 24.288 26.3961 23.3558 25.8226C21.897 24.9251 21.0729 24.3664 19.6569 23.4907C18.0205 22.4786 19.0813 21.9224 20.0139 21.0133C20.258 20.7754 24.4988 17.1552 24.5809 16.8268C24.5912 16.7857 24.6007 16.6326 24.5038 16.5517C24.4069 16.4709 24.2639 16.4985 24.1606 16.5205C24.0143 16.5517 21.6839 17.9973 17.1694 20.8573C16.5079 21.2836 15.9087 21.4913 15.3719 21.4805C14.7801 21.4685 13.6417 21.1664 12.7955 20.9083C11.7575 20.5916 10.9325 20.4242 11.0044 19.8864C11.0418 19.6063 11.4528 19.3198 12.2374 19.027Z" fill="white"/>
</svg>
